%TF.GenerationSoftware,KiCad,Pcbnew,7.0.2-6a45011f42~172~ubuntu22.04.1*%
%TF.CreationDate,2023-05-01T21:07:46+01:00*%
%TF.ProjectId,esp32-emon,65737033-322d-4656-9d6f-6e2e6b696361,rev?*%
%TF.SameCoordinates,Original*%
%TF.FileFunction,Soldermask,Bot*%
%TF.FilePolarity,Negative*%
%FSLAX46Y46*%
G04 Gerber Fmt 4.6, Leading zero omitted, Abs format (unit mm)*
G04 Created by KiCad (PCBNEW 7.0.2-6a45011f42~172~ubuntu22.04.1) date 2023-05-01 21:07:46*
%MOMM*%
%LPD*%
G01*
G04 APERTURE LIST*
G04 Aperture macros list*
%AMRoundRect*
0 Rectangle with rounded corners*
0 $1 Rounding radius*
0 $2 $3 $4 $5 $6 $7 $8 $9 X,Y pos of 4 corners*
0 Add a 4 corners polygon primitive as box body*
4,1,4,$2,$3,$4,$5,$6,$7,$8,$9,$2,$3,0*
0 Add four circle primitives for the rounded corners*
1,1,$1+$1,$2,$3*
1,1,$1+$1,$4,$5*
1,1,$1+$1,$6,$7*
1,1,$1+$1,$8,$9*
0 Add four rect primitives between the rounded corners*
20,1,$1+$1,$2,$3,$4,$5,0*
20,1,$1+$1,$4,$5,$6,$7,0*
20,1,$1+$1,$6,$7,$8,$9,0*
20,1,$1+$1,$8,$9,$2,$3,0*%
G04 Aperture macros list end*
%ADD10R,1.600000X1.600000*%
%ADD11C,1.600000*%
%ADD12C,3.000000*%
%ADD13R,2.000000X2.000000*%
%ADD14C,2.000000*%
%ADD15C,1.400000*%
%ADD16O,1.400000X1.400000*%
%ADD17R,3.500000X3.500000*%
%ADD18RoundRect,0.750000X-0.750000X-1.000000X0.750000X-1.000000X0.750000X1.000000X-0.750000X1.000000X0*%
%ADD19RoundRect,0.875000X-0.875000X-0.875000X0.875000X-0.875000X0.875000X0.875000X-0.875000X0.875000X0*%
%ADD20C,1.700000*%
G04 APERTURE END LIST*
D10*
%TO.C,C2*%
X144600000Y-64800000D03*
D11*
X144600000Y-66800000D03*
%TD*%
D12*
%TO.C,U1*%
X186680000Y-77075000D03*
X186680000Y-30125000D03*
X162170000Y-77075000D03*
X162170000Y-30125000D03*
D13*
X187100000Y-69115000D03*
D14*
X187100000Y-66575000D03*
X187100000Y-64035000D03*
X187100000Y-61495000D03*
X187100000Y-58955000D03*
X187100000Y-56415000D03*
X187100000Y-53875000D03*
X187100000Y-51335000D03*
X187100000Y-48795000D03*
X187100000Y-46255000D03*
X187100000Y-43715000D03*
X187100000Y-41175000D03*
X187100000Y-38635000D03*
X187100000Y-36095000D03*
X187100000Y-33555000D03*
X161700000Y-33555000D03*
X161700000Y-36095000D03*
X161700000Y-38635000D03*
X161700000Y-41175000D03*
X161700000Y-43715000D03*
X161700000Y-46255000D03*
X161700000Y-48795000D03*
X161700000Y-51335000D03*
X161700000Y-53875000D03*
X161700000Y-56415000D03*
X161700000Y-58955000D03*
X161700000Y-61495000D03*
X161700000Y-64035000D03*
X161700000Y-66575000D03*
X161700000Y-69115000D03*
%TD*%
D15*
%TO.C,R4*%
X154800000Y-59190000D03*
D16*
X154800000Y-66810000D03*
%TD*%
D15*
%TO.C,R3*%
X149200000Y-47600000D03*
D16*
X156820000Y-47600000D03*
%TD*%
D13*
%TO.C,TP1*%
X158400000Y-69200000D03*
%TD*%
D15*
%TO.C,R2*%
X141580000Y-44400000D03*
D16*
X149200000Y-44400000D03*
%TD*%
D15*
%TO.C,R1*%
X149200000Y-42200000D03*
D16*
X141580000Y-42200000D03*
%TD*%
D17*
%TO.C,J2*%
X154800000Y-73600000D03*
D18*
X148800000Y-73600000D03*
D19*
X151800000Y-78300000D03*
%TD*%
D20*
%TO.C,J1*%
X146900000Y-34000000D03*
X153900000Y-34000000D03*
%TD*%
D15*
%TO.C,R5*%
X152200000Y-66810000D03*
D16*
X152200000Y-59190000D03*
%TD*%
D15*
%TO.C,R6*%
X156810000Y-52200000D03*
D16*
X149190000Y-52200000D03*
%TD*%
D10*
%TO.C,C1*%
X155200000Y-44155113D03*
D11*
X155200000Y-42155113D03*
%TD*%
D15*
%TO.C,R7*%
X141590000Y-56600000D03*
D16*
X149210000Y-56600000D03*
%TD*%
M02*
