%TF.GenerationSoftware,KiCad,Pcbnew,7.0.2-6a45011f42~172~ubuntu22.04.1*%
%TF.CreationDate,2023-05-01T21:07:46+01:00*%
%TF.ProjectId,esp32-emon,65737033-322d-4656-9d6f-6e2e6b696361,rev?*%
%TF.SameCoordinates,Original*%
%TF.FileFunction,Copper,L1,Top*%
%TF.FilePolarity,Positive*%
%FSLAX46Y46*%
G04 Gerber Fmt 4.6, Leading zero omitted, Abs format (unit mm)*
G04 Created by KiCad (PCBNEW 7.0.2-6a45011f42~172~ubuntu22.04.1) date 2023-05-01 21:07:46*
%MOMM*%
%LPD*%
G01*
G04 APERTURE LIST*
G04 Aperture macros list*
%AMRoundRect*
0 Rectangle with rounded corners*
0 $1 Rounding radius*
0 $2 $3 $4 $5 $6 $7 $8 $9 X,Y pos of 4 corners*
0 Add a 4 corners polygon primitive as box body*
4,1,4,$2,$3,$4,$5,$6,$7,$8,$9,$2,$3,0*
0 Add four circle primitives for the rounded corners*
1,1,$1+$1,$2,$3*
1,1,$1+$1,$4,$5*
1,1,$1+$1,$6,$7*
1,1,$1+$1,$8,$9*
0 Add four rect primitives between the rounded corners*
20,1,$1+$1,$2,$3,$4,$5,0*
20,1,$1+$1,$4,$5,$6,$7,0*
20,1,$1+$1,$6,$7,$8,$9,0*
20,1,$1+$1,$8,$9,$2,$3,0*%
G04 Aperture macros list end*
%TA.AperFunction,ComponentPad*%
%ADD10R,1.600000X1.600000*%
%TD*%
%TA.AperFunction,ComponentPad*%
%ADD11C,1.600000*%
%TD*%
%TA.AperFunction,ComponentPad*%
%ADD12R,2.000000X2.000000*%
%TD*%
%TA.AperFunction,ComponentPad*%
%ADD13C,2.000000*%
%TD*%
%TA.AperFunction,ComponentPad*%
%ADD14C,1.400000*%
%TD*%
%TA.AperFunction,ComponentPad*%
%ADD15O,1.400000X1.400000*%
%TD*%
%TA.AperFunction,ComponentPad*%
%ADD16R,3.500000X3.500000*%
%TD*%
%TA.AperFunction,ComponentPad*%
%ADD17RoundRect,0.750000X-0.750000X-1.000000X0.750000X-1.000000X0.750000X1.000000X-0.750000X1.000000X0*%
%TD*%
%TA.AperFunction,ComponentPad*%
%ADD18RoundRect,0.875000X-0.875000X-0.875000X0.875000X-0.875000X0.875000X0.875000X-0.875000X0.875000X0*%
%TD*%
%TA.AperFunction,SMDPad,CuDef*%
%ADD19R,2.200000X2.800000*%
%TD*%
%TA.AperFunction,SMDPad,CuDef*%
%ADD20R,2.800000X2.800000*%
%TD*%
%TA.AperFunction,Conductor*%
%ADD21C,0.250000*%
%TD*%
G04 APERTURE END LIST*
D10*
%TO.P,C2,1*%
%TO.N,GND*%
X144600000Y-64800000D03*
D11*
%TO.P,C2,2*%
%TO.N,Net-(C2-Pad2)*%
X144600000Y-66800000D03*
%TD*%
D12*
%TO.P,U1,1,3V3*%
%TO.N,+3V3*%
X187100000Y-69115000D03*
D13*
%TO.P,U1,2,GND*%
%TO.N,GND*%
X187100000Y-66575000D03*
%TO.P,U1,3,D15*%
%TO.N,unconnected-(U1-D15-Pad3)*%
X187100000Y-64035000D03*
%TO.P,U1,4,D2*%
%TO.N,unconnected-(U1-D2-Pad4)*%
X187100000Y-61495000D03*
%TO.P,U1,5,D4*%
%TO.N,unconnected-(U1-D4-Pad5)*%
X187100000Y-58955000D03*
%TO.P,U1,6,RX2*%
%TO.N,unconnected-(U1-RX2-Pad6)*%
X187100000Y-56415000D03*
%TO.P,U1,7,TX2*%
%TO.N,unconnected-(U1-TX2-Pad7)*%
X187100000Y-53875000D03*
%TO.P,U1,8,D5*%
%TO.N,unconnected-(U1-D5-Pad8)*%
X187100000Y-51335000D03*
%TO.P,U1,9,D18*%
%TO.N,unconnected-(U1-D18-Pad9)*%
X187100000Y-48795000D03*
%TO.P,U1,10,D19*%
%TO.N,unconnected-(U1-D19-Pad10)*%
X187100000Y-46255000D03*
%TO.P,U1,11,D21*%
%TO.N,unconnected-(U1-D21-Pad11)*%
X187100000Y-43715000D03*
%TO.P,U1,12,RX0*%
%TO.N,unconnected-(U1-RX0-Pad12)*%
X187100000Y-41175000D03*
%TO.P,U1,13,TX0*%
%TO.N,unconnected-(U1-TX0-Pad13)*%
X187100000Y-38635000D03*
%TO.P,U1,14,D22*%
%TO.N,unconnected-(U1-D22-Pad14)*%
X187100000Y-36095000D03*
%TO.P,U1,15,D23*%
%TO.N,unconnected-(U1-D23-Pad15)*%
X187100000Y-33555000D03*
%TO.P,U1,16,EN*%
%TO.N,unconnected-(U1-EN-Pad16)*%
X161700000Y-33555000D03*
%TO.P,U1,17,VP*%
%TO.N,unconnected-(U1-VP-Pad17)*%
X161700000Y-36095000D03*
%TO.P,U1,18,VN*%
%TO.N,unconnected-(U1-VN-Pad18)*%
X161700000Y-38635000D03*
%TO.P,U1,19,D34*%
%TO.N,/ADC1 CH6*%
X161700000Y-41175000D03*
%TO.P,U1,20,D35*%
%TO.N,unconnected-(U1-D35-Pad20)*%
X161700000Y-43715000D03*
%TO.P,U1,21,D32*%
%TO.N,unconnected-(U1-D32-Pad21)*%
X161700000Y-46255000D03*
%TO.P,U1,22,D33*%
%TO.N,/ADC1 CH5*%
X161700000Y-48795000D03*
%TO.P,U1,23,D25*%
%TO.N,unconnected-(U1-D25-Pad23)*%
X161700000Y-51335000D03*
%TO.P,U1,24,D26*%
%TO.N,unconnected-(U1-D26-Pad24)*%
X161700000Y-53875000D03*
%TO.P,U1,25,D27*%
%TO.N,unconnected-(U1-D27-Pad25)*%
X161700000Y-56415000D03*
%TO.P,U1,26,D14*%
%TO.N,unconnected-(U1-D14-Pad26)*%
X161700000Y-58955000D03*
%TO.P,U1,27,D12*%
%TO.N,unconnected-(U1-D12-Pad27)*%
X161700000Y-61495000D03*
%TO.P,U1,28,D13*%
%TO.N,unconnected-(U1-D13-Pad28)*%
X161700000Y-64035000D03*
%TO.P,U1,29,GND*%
%TO.N,GND*%
X161700000Y-66575000D03*
%TO.P,U1,30,VIN*%
%TO.N,Net-(U1-VIN)*%
X161700000Y-69115000D03*
%TD*%
D14*
%TO.P,R4,1*%
%TO.N,/ADC1 CH5*%
X154800000Y-59190000D03*
D15*
%TO.P,R4,2*%
%TO.N,Net-(J2-Pad1)*%
X154800000Y-66810000D03*
%TD*%
D14*
%TO.P,R3,1*%
%TO.N,Net-(C1-Pad2)*%
X149200000Y-47600000D03*
D15*
%TO.P,R3,2*%
%TO.N,GND*%
X156820000Y-47600000D03*
%TD*%
D12*
%TO.P,TP1,1,1*%
%TO.N,Net-(U1-VIN)*%
X158400000Y-69200000D03*
%TD*%
D14*
%TO.P,R2,1*%
%TO.N,+3V3*%
X141580000Y-44400000D03*
D15*
%TO.P,R2,2*%
%TO.N,Net-(C1-Pad2)*%
X149200000Y-44400000D03*
%TD*%
D14*
%TO.P,R1,1*%
%TO.N,Net-(C1-Pad2)*%
X149200000Y-42200000D03*
D15*
%TO.P,R1,2*%
%TO.N,/ADC1 CH6*%
X141580000Y-42200000D03*
%TD*%
D16*
%TO.P,J2,1*%
%TO.N,Net-(J2-Pad1)*%
X154800000Y-73600000D03*
D17*
%TO.P,J2,2*%
%TO.N,Net-(C2-Pad2)*%
X148800000Y-73600000D03*
D18*
%TO.P,J2,3*%
X151800000Y-78300000D03*
%TD*%
D19*
%TO.P,J1,R*%
%TO.N,/ADC1 CH6*%
X147800000Y-30300000D03*
%TO.P,J1,S*%
X145800000Y-37700000D03*
D20*
%TO.P,J1,T*%
%TO.N,Net-(C1-Pad2)*%
X155200000Y-37700000D03*
%TD*%
D14*
%TO.P,R5,1*%
%TO.N,Net-(C2-Pad2)*%
X152200000Y-66810000D03*
D15*
%TO.P,R5,2*%
%TO.N,/ADC1 CH5*%
X152200000Y-59190000D03*
%TD*%
D14*
%TO.P,R6,1*%
%TO.N,GND*%
X156810000Y-52200000D03*
D15*
%TO.P,R6,2*%
%TO.N,Net-(C2-Pad2)*%
X149190000Y-52200000D03*
%TD*%
D10*
%TO.P,C1,1*%
%TO.N,GND*%
X155200000Y-44155113D03*
D11*
%TO.P,C1,2*%
%TO.N,Net-(C1-Pad2)*%
X155200000Y-42155113D03*
%TD*%
D14*
%TO.P,R7,1*%
%TO.N,+3V3*%
X141590000Y-56600000D03*
D15*
%TO.P,R7,2*%
%TO.N,Net-(C2-Pad2)*%
X149210000Y-56600000D03*
%TD*%
D21*
%TO.N,Net-(C1-Pad2)*%
X155200000Y-42155113D02*
X155200000Y-37700000D01*
X154600000Y-42200000D02*
X155000000Y-41800000D01*
X149200000Y-47600000D02*
X149200000Y-44400000D01*
X149200000Y-42200000D02*
X149200000Y-44400000D01*
X149200000Y-42200000D02*
X155155113Y-42200000D01*
X155155113Y-42200000D02*
X155200000Y-42155113D01*
%TO.N,/ADC1 CH6*%
X148600000Y-31100000D02*
X147800000Y-30300000D01*
X141580000Y-42200000D02*
X145800000Y-37980000D01*
X158000000Y-33400000D02*
X158000000Y-37475000D01*
X158000000Y-37475000D02*
X161700000Y-41175000D01*
X154900000Y-30300000D02*
X158000000Y-33400000D01*
X145800000Y-37700000D02*
X148600000Y-34900000D01*
X145800000Y-37980000D02*
X145800000Y-37700000D01*
X147800000Y-30300000D02*
X154900000Y-30300000D01*
X148600000Y-34900000D02*
X148600000Y-31100000D01*
%TO.N,+3V3*%
X140890000Y-78690000D02*
X143000000Y-80800000D01*
X143000000Y-80800000D02*
X179200000Y-80800000D01*
X140890000Y-57300000D02*
X140890000Y-78690000D01*
X187100000Y-72900000D02*
X187100000Y-69115000D01*
X141590000Y-56600000D02*
X141590000Y-44410000D01*
X179200000Y-80800000D02*
X187100000Y-72900000D01*
X141590000Y-56600000D02*
X140890000Y-57300000D01*
X141590000Y-44410000D02*
X141580000Y-44400000D01*
%TO.N,Net-(C2-Pad2)*%
X148000000Y-60200000D02*
X142400000Y-60200000D01*
X148010000Y-70210000D02*
X144600000Y-66800000D01*
X149210000Y-58990000D02*
X148000000Y-60200000D01*
X142400000Y-60200000D02*
X141400000Y-61200000D01*
X142200000Y-66800000D02*
X144600000Y-66800000D01*
X148800000Y-70210000D02*
X148010000Y-70210000D01*
X149210000Y-56600000D02*
X149210000Y-52220000D01*
X148800000Y-75300000D02*
X151800000Y-78300000D01*
X141400000Y-61200000D02*
X141400000Y-66000000D01*
X148800000Y-70210000D02*
X152200000Y-66810000D01*
X141400000Y-66000000D02*
X142200000Y-66800000D01*
X148800000Y-73600000D02*
X148800000Y-70210000D01*
X148800000Y-73600000D02*
X148800000Y-75300000D01*
X149210000Y-52220000D02*
X149190000Y-52200000D01*
X149210000Y-56600000D02*
X149210000Y-58990000D01*
%TO.N,Net-(J2-Pad1)*%
X154800000Y-73600000D02*
X154800000Y-66810000D01*
%TO.N,Net-(U1-VIN)*%
X161615000Y-69200000D02*
X161700000Y-69115000D01*
X158400000Y-69200000D02*
X161615000Y-69200000D01*
%TO.N,/ADC1 CH5*%
X158800000Y-51695000D02*
X158800000Y-55190000D01*
X152200000Y-59190000D02*
X154800000Y-59190000D01*
X161700000Y-48795000D02*
X158800000Y-51695000D01*
X158800000Y-55190000D02*
X154800000Y-59190000D01*
%TD*%
%TA.AperFunction,Conductor*%
%TO.N,GND*%
G36*
X186603243Y-26000669D02*
G01*
X186733628Y-26007503D01*
X186913910Y-26017628D01*
X186926309Y-26018955D01*
X187075647Y-26042608D01*
X187235321Y-26069737D01*
X187246619Y-26072205D01*
X187396693Y-26112418D01*
X187549188Y-26156351D01*
X187559253Y-26159726D01*
X187704710Y-26215562D01*
X187707599Y-26216714D01*
X187851768Y-26276430D01*
X187860594Y-26280500D01*
X188000064Y-26351565D01*
X188003748Y-26353521D01*
X188093848Y-26403316D01*
X188139548Y-26428574D01*
X188147061Y-26433081D01*
X188278754Y-26518604D01*
X188282947Y-26521452D01*
X188409147Y-26610996D01*
X188415428Y-26615759D01*
X188537567Y-26714665D01*
X188542158Y-26718571D01*
X188657424Y-26821579D01*
X188662478Y-26826358D01*
X188773640Y-26937520D01*
X188778419Y-26942574D01*
X188881427Y-27057840D01*
X188885333Y-27062431D01*
X188984239Y-27184570D01*
X188989002Y-27190851D01*
X189078546Y-27317051D01*
X189081409Y-27321266D01*
X189166907Y-27452921D01*
X189171430Y-27460460D01*
X189246477Y-27596250D01*
X189248433Y-27599934D01*
X189319498Y-27739404D01*
X189323575Y-27748247D01*
X189383259Y-27892337D01*
X189384462Y-27895353D01*
X189440265Y-28040727D01*
X189443655Y-28050836D01*
X189487579Y-28203297D01*
X189527793Y-28353379D01*
X189530262Y-28364685D01*
X189557394Y-28524369D01*
X189581040Y-28673670D01*
X189582371Y-28686108D01*
X189592509Y-28866617D01*
X189599330Y-28996756D01*
X189599500Y-29003246D01*
X189599500Y-78796753D01*
X189599330Y-78803243D01*
X189592509Y-78933382D01*
X189582372Y-79113887D01*
X189581040Y-79126331D01*
X189557394Y-79275629D01*
X189530263Y-79435308D01*
X189527791Y-79446624D01*
X189487579Y-79596701D01*
X189443653Y-79749170D01*
X189440268Y-79759263D01*
X189384462Y-79904645D01*
X189383259Y-79907661D01*
X189323575Y-80051751D01*
X189319498Y-80060594D01*
X189248433Y-80200064D01*
X189246477Y-80203748D01*
X189171430Y-80339538D01*
X189166897Y-80347094D01*
X189081412Y-80478728D01*
X189078546Y-80482947D01*
X188989002Y-80609147D01*
X188984239Y-80615428D01*
X188885333Y-80737567D01*
X188881427Y-80742158D01*
X188778419Y-80857424D01*
X188773640Y-80862478D01*
X188662478Y-80973640D01*
X188657424Y-80978419D01*
X188542158Y-81081427D01*
X188537567Y-81085333D01*
X188415428Y-81184239D01*
X188409147Y-81189002D01*
X188282947Y-81278546D01*
X188278728Y-81281412D01*
X188147094Y-81366897D01*
X188139538Y-81371430D01*
X188003748Y-81446477D01*
X188000064Y-81448433D01*
X187860594Y-81519498D01*
X187851751Y-81523575D01*
X187707661Y-81583259D01*
X187704645Y-81584462D01*
X187559271Y-81640265D01*
X187549162Y-81643655D01*
X187396702Y-81687579D01*
X187246619Y-81727793D01*
X187235313Y-81730262D01*
X187075630Y-81757394D01*
X186926328Y-81781040D01*
X186913890Y-81782371D01*
X186733382Y-81792509D01*
X186603244Y-81799330D01*
X186596754Y-81799500D01*
X142803247Y-81799500D01*
X142796757Y-81799330D01*
X142666617Y-81792509D01*
X142486111Y-81782372D01*
X142473666Y-81781040D01*
X142324369Y-81757394D01*
X142164690Y-81730263D01*
X142153374Y-81727791D01*
X142003298Y-81687579D01*
X141850828Y-81643653D01*
X141840735Y-81640268D01*
X141695353Y-81584462D01*
X141692337Y-81583259D01*
X141548247Y-81523575D01*
X141539404Y-81519498D01*
X141399934Y-81448433D01*
X141396250Y-81446477D01*
X141260460Y-81371430D01*
X141252921Y-81366907D01*
X141121266Y-81281409D01*
X141117051Y-81278546D01*
X140990851Y-81189002D01*
X140984570Y-81184239D01*
X140862431Y-81085333D01*
X140857840Y-81081427D01*
X140742574Y-80978419D01*
X140737520Y-80973640D01*
X140626358Y-80862478D01*
X140621579Y-80857424D01*
X140518571Y-80742158D01*
X140514665Y-80737567D01*
X140415759Y-80615428D01*
X140410996Y-80609147D01*
X140321452Y-80482947D01*
X140318604Y-80478754D01*
X140233081Y-80347061D01*
X140228568Y-80339538D01*
X140153521Y-80203748D01*
X140151565Y-80200064D01*
X140080500Y-80060594D01*
X140076430Y-80051768D01*
X140016714Y-79907599D01*
X140015562Y-79904710D01*
X139959729Y-79759260D01*
X139956346Y-79749170D01*
X139912414Y-79596679D01*
X139900207Y-79551122D01*
X139872202Y-79446605D01*
X139869738Y-79435323D01*
X139842601Y-79275606D01*
X139818956Y-79126316D01*
X139817627Y-79113890D01*
X139815523Y-79076416D01*
X139807490Y-78933382D01*
X139800669Y-78803243D01*
X139800500Y-78796755D01*
X139800500Y-57280194D01*
X140259840Y-57280194D01*
X140263950Y-57323673D01*
X140264500Y-57335343D01*
X140264500Y-78607256D01*
X140262235Y-78627766D01*
X140264439Y-78697872D01*
X140264500Y-78701767D01*
X140264500Y-78729350D01*
X140264988Y-78733219D01*
X140264989Y-78733225D01*
X140265004Y-78733343D01*
X140265918Y-78744967D01*
X140267290Y-78788626D01*
X140272879Y-78807860D01*
X140276825Y-78826916D01*
X140279335Y-78846792D01*
X140295414Y-78887404D01*
X140299197Y-78898451D01*
X140311382Y-78940391D01*
X140321580Y-78957635D01*
X140330136Y-78975100D01*
X140337514Y-78993732D01*
X140337515Y-78993733D01*
X140363180Y-79029059D01*
X140369593Y-79038822D01*
X140391826Y-79076416D01*
X140391829Y-79076419D01*
X140391830Y-79076420D01*
X140405995Y-79090585D01*
X140418627Y-79105375D01*
X140430406Y-79121587D01*
X140464058Y-79149426D01*
X140472699Y-79157289D01*
X142499197Y-81183787D01*
X142512098Y-81199889D01*
X142514212Y-81201874D01*
X142514214Y-81201877D01*
X142540590Y-81226646D01*
X142563240Y-81247916D01*
X142566036Y-81250626D01*
X142585530Y-81270120D01*
X142588615Y-81272513D01*
X142588701Y-81272580D01*
X142597573Y-81280158D01*
X142629418Y-81310062D01*
X142646974Y-81319714D01*
X142663231Y-81330392D01*
X142679064Y-81342674D01*
X142695185Y-81349649D01*
X142719156Y-81360023D01*
X142729643Y-81365160D01*
X142767908Y-81386197D01*
X142787316Y-81391180D01*
X142805710Y-81397478D01*
X142824105Y-81405438D01*
X142867254Y-81412271D01*
X142878680Y-81414638D01*
X142894222Y-81418629D01*
X142920980Y-81425500D01*
X142920981Y-81425500D01*
X142941016Y-81425500D01*
X142960413Y-81427026D01*
X142980196Y-81430160D01*
X143023674Y-81426050D01*
X143035344Y-81425500D01*
X179117256Y-81425500D01*
X179137762Y-81427764D01*
X179140665Y-81427672D01*
X179140667Y-81427673D01*
X179207872Y-81425561D01*
X179211768Y-81425500D01*
X179235448Y-81425500D01*
X179239350Y-81425500D01*
X179243313Y-81424999D01*
X179254962Y-81424080D01*
X179298627Y-81422709D01*
X179317859Y-81417120D01*
X179336918Y-81413174D01*
X179344091Y-81412268D01*
X179356792Y-81410664D01*
X179397407Y-81394582D01*
X179408444Y-81390803D01*
X179450390Y-81378618D01*
X179467629Y-81368422D01*
X179485102Y-81359862D01*
X179503732Y-81352486D01*
X179539064Y-81326814D01*
X179548830Y-81320400D01*
X179586418Y-81298171D01*
X179586417Y-81298171D01*
X179586420Y-81298170D01*
X179600585Y-81284004D01*
X179615373Y-81271373D01*
X179631587Y-81259594D01*
X179659438Y-81225926D01*
X179667279Y-81217309D01*
X183678407Y-77206182D01*
X184929500Y-77206182D01*
X184968604Y-77465615D01*
X185045937Y-77716323D01*
X185159772Y-77952704D01*
X185295766Y-78152170D01*
X185307571Y-78169485D01*
X185486015Y-78361801D01*
X185486019Y-78361805D01*
X185691143Y-78525386D01*
X185918357Y-78656568D01*
X186086550Y-78722579D01*
X186128721Y-78739130D01*
X186162584Y-78752420D01*
X186418370Y-78810802D01*
X186614506Y-78825500D01*
X186616823Y-78825500D01*
X186743177Y-78825500D01*
X186745494Y-78825500D01*
X186941630Y-78810802D01*
X187197416Y-78752420D01*
X187441643Y-78656568D01*
X187668857Y-78525386D01*
X187873981Y-78361805D01*
X187973273Y-78254792D01*
X188052428Y-78169485D01*
X188052429Y-78169482D01*
X188052433Y-78169479D01*
X188200228Y-77952704D01*
X188314063Y-77716323D01*
X188391396Y-77465615D01*
X188430500Y-77206182D01*
X188430500Y-76943818D01*
X188391396Y-76684385D01*
X188314063Y-76433677D01*
X188200228Y-76197296D01*
X188052433Y-75980521D01*
X188052432Y-75980520D01*
X188052428Y-75980514D01*
X187873984Y-75788198D01*
X187873983Y-75788197D01*
X187873981Y-75788195D01*
X187668857Y-75624614D01*
X187668856Y-75624613D01*
X187441641Y-75493431D01*
X187197418Y-75397580D01*
X186941627Y-75339197D01*
X186747808Y-75324673D01*
X186747797Y-75324672D01*
X186745494Y-75324500D01*
X186614506Y-75324500D01*
X186612203Y-75324672D01*
X186612191Y-75324673D01*
X186418372Y-75339197D01*
X186162581Y-75397580D01*
X185918358Y-75493431D01*
X185691143Y-75624613D01*
X185486015Y-75788198D01*
X185307571Y-75980514D01*
X185228320Y-76096755D01*
X185159772Y-76197296D01*
X185045937Y-76433677D01*
X184968604Y-76684385D01*
X184929500Y-76943818D01*
X184929500Y-77206182D01*
X183678407Y-77206182D01*
X187483789Y-73400800D01*
X187499885Y-73387906D01*
X187501873Y-73385787D01*
X187501877Y-73385786D01*
X187547949Y-73336723D01*
X187550534Y-73334055D01*
X187570120Y-73314471D01*
X187572585Y-73311292D01*
X187580167Y-73302416D01*
X187610062Y-73270582D01*
X187619717Y-73253018D01*
X187630394Y-73236764D01*
X187642673Y-73220936D01*
X187660018Y-73180852D01*
X187665160Y-73170356D01*
X187686197Y-73132092D01*
X187691179Y-73112684D01*
X187697481Y-73094280D01*
X187705437Y-73075896D01*
X187712269Y-73032752D01*
X187714633Y-73021338D01*
X187725500Y-72979019D01*
X187725500Y-72958983D01*
X187727027Y-72939584D01*
X187730160Y-72919804D01*
X187726047Y-72876303D01*
X187725500Y-72864676D01*
X187725500Y-70739498D01*
X187745185Y-70672459D01*
X187797989Y-70626705D01*
X187849500Y-70615499D01*
X188144561Y-70615499D01*
X188147872Y-70615499D01*
X188207483Y-70609091D01*
X188342331Y-70558796D01*
X188457546Y-70472546D01*
X188543796Y-70357331D01*
X188594091Y-70222483D01*
X188600500Y-70162873D01*
X188600499Y-68067128D01*
X188594091Y-68007517D01*
X188543796Y-67872669D01*
X188457546Y-67757454D01*
X188342331Y-67671204D01*
X188342328Y-67671203D01*
X188328058Y-67660520D01*
X188330076Y-67657823D01*
X188297602Y-67633514D01*
X188273183Y-67568050D01*
X188288033Y-67499777D01*
X188293058Y-67491379D01*
X188423733Y-67291365D01*
X188523586Y-67063721D01*
X188584613Y-66822732D01*
X188605141Y-66575000D01*
X188584613Y-66327267D01*
X188523586Y-66086278D01*
X188423730Y-65858630D01*
X188323434Y-65705116D01*
X187591132Y-66437418D01*
X187568682Y-66360960D01*
X187489395Y-66237587D01*
X187378562Y-66141549D01*
X187245161Y-66080627D01*
X187241363Y-66080081D01*
X187970056Y-65351389D01*
X187968655Y-65328823D01*
X187984148Y-65260693D01*
X188016250Y-65223290D01*
X188119744Y-65142738D01*
X188288164Y-64959785D01*
X188424173Y-64751607D01*
X188524063Y-64523881D01*
X188585108Y-64282821D01*
X188605643Y-64035000D01*
X188585108Y-63787179D01*
X188524063Y-63546119D01*
X188424173Y-63318393D01*
X188288164Y-63110215D01*
X188119744Y-62927262D01*
X188119743Y-62927261D01*
X188036991Y-62862852D01*
X187996178Y-62806141D01*
X187992505Y-62736368D01*
X188027136Y-62675685D01*
X188036974Y-62667160D01*
X188119744Y-62602738D01*
X188288164Y-62419785D01*
X188424173Y-62211607D01*
X188524063Y-61983881D01*
X188585108Y-61742821D01*
X188605643Y-61495000D01*
X188585108Y-61247179D01*
X188524063Y-61006119D01*
X188424173Y-60778393D01*
X188288164Y-60570215D01*
X188119744Y-60387262D01*
X188071378Y-60349617D01*
X188036992Y-60322853D01*
X187996179Y-60266143D01*
X187992504Y-60196370D01*
X188027136Y-60135687D01*
X188036992Y-60127147D01*
X188061256Y-60108260D01*
X188119744Y-60062738D01*
X188288164Y-59879785D01*
X188424173Y-59671607D01*
X188524063Y-59443881D01*
X188585108Y-59202821D01*
X188605643Y-58955000D01*
X188585108Y-58707179D01*
X188524063Y-58466119D01*
X188424173Y-58238393D01*
X188288164Y-58030215D01*
X188119744Y-57847262D01*
X188074062Y-57811706D01*
X188036992Y-57782853D01*
X187996179Y-57726143D01*
X187992504Y-57656370D01*
X188027136Y-57595687D01*
X188036992Y-57587147D01*
X188069142Y-57562123D01*
X188119744Y-57522738D01*
X188288164Y-57339785D01*
X188424173Y-57131607D01*
X188524063Y-56903881D01*
X188585108Y-56662821D01*
X188605643Y-56415000D01*
X188585108Y-56167179D01*
X188524063Y-55926119D01*
X188424173Y-55698393D01*
X188288164Y-55490215D01*
X188119744Y-55307262D01*
X188103437Y-55294570D01*
X188036992Y-55242853D01*
X187996179Y-55186143D01*
X187992504Y-55116370D01*
X188027136Y-55055687D01*
X188036992Y-55047147D01*
X188061256Y-55028260D01*
X188119744Y-54982738D01*
X188288164Y-54799785D01*
X188424173Y-54591607D01*
X188524063Y-54363881D01*
X188585108Y-54122821D01*
X188605643Y-53875000D01*
X188585108Y-53627179D01*
X188524063Y-53386119D01*
X188424173Y-53158393D01*
X188288164Y-52950215D01*
X188119744Y-52767262D01*
X188103437Y-52754570D01*
X188036992Y-52702853D01*
X187996179Y-52646143D01*
X187992504Y-52576370D01*
X188027136Y-52515687D01*
X188036992Y-52507147D01*
X188071845Y-52480019D01*
X188119744Y-52442738D01*
X188288164Y-52259785D01*
X188424173Y-52051607D01*
X188524063Y-51823881D01*
X188585108Y-51582821D01*
X188605643Y-51335000D01*
X188585108Y-51087179D01*
X188524063Y-50846119D01*
X188424173Y-50618393D01*
X188288164Y-50410215D01*
X188119744Y-50227262D01*
X188103437Y-50214570D01*
X188036992Y-50162853D01*
X187996179Y-50106143D01*
X187992504Y-50036370D01*
X188027136Y-49975687D01*
X188036992Y-49967147D01*
X188061256Y-49948260D01*
X188119744Y-49902738D01*
X188288164Y-49719785D01*
X188424173Y-49511607D01*
X188524063Y-49283881D01*
X188585108Y-49042821D01*
X188605643Y-48795000D01*
X188585108Y-48547179D01*
X188524063Y-48306119D01*
X188424173Y-48078393D01*
X188288164Y-47870215D01*
X188119744Y-47687262D01*
X188119546Y-47687108D01*
X188036991Y-47622852D01*
X187996178Y-47566141D01*
X187992505Y-47496368D01*
X188027136Y-47435685D01*
X188036974Y-47427160D01*
X188119744Y-47362738D01*
X188288164Y-47179785D01*
X188424173Y-46971607D01*
X188524063Y-46743881D01*
X188585108Y-46502821D01*
X188605643Y-46255000D01*
X188585108Y-46007179D01*
X188524063Y-45766119D01*
X188424173Y-45538393D01*
X188288164Y-45330215D01*
X188119744Y-45147262D01*
X188103437Y-45134570D01*
X188036992Y-45082853D01*
X187996179Y-45026143D01*
X187992504Y-44956370D01*
X188027136Y-44895687D01*
X188036992Y-44887147D01*
X188061256Y-44868260D01*
X188119744Y-44822738D01*
X188288164Y-44639785D01*
X188424173Y-44431607D01*
X188524063Y-44203881D01*
X188585108Y-43962821D01*
X188605643Y-43715000D01*
X188585108Y-43467179D01*
X188524063Y-43226119D01*
X188424173Y-42998393D01*
X188288164Y-42790215D01*
X188119744Y-42607262D01*
X188119743Y-42607261D01*
X188036991Y-42542852D01*
X187996178Y-42486141D01*
X187992505Y-42416368D01*
X188027136Y-42355685D01*
X188036974Y-42347160D01*
X188119744Y-42282738D01*
X188288164Y-42099785D01*
X188424173Y-41891607D01*
X188524063Y-41663881D01*
X188585108Y-41422821D01*
X188605643Y-41175000D01*
X188585108Y-40927179D01*
X188524063Y-40686119D01*
X188424173Y-40458393D01*
X188288164Y-40250215D01*
X188119744Y-40067262D01*
X188103437Y-40054570D01*
X188036992Y-40002853D01*
X187996179Y-39946143D01*
X187992504Y-39876370D01*
X188027136Y-39815687D01*
X188036992Y-39807147D01*
X188061256Y-39788260D01*
X188119744Y-39742738D01*
X188288164Y-39559785D01*
X188424173Y-39351607D01*
X188524063Y-39123881D01*
X188585108Y-38882821D01*
X188605643Y-38635000D01*
X188585108Y-38387179D01*
X188524063Y-38146119D01*
X188424173Y-37918393D01*
X188288164Y-37710215D01*
X188119744Y-37527262D01*
X188062712Y-37482872D01*
X188036992Y-37462853D01*
X187996179Y-37406143D01*
X187992504Y-37336370D01*
X188027136Y-37275687D01*
X188036992Y-37267147D01*
X188061256Y-37248260D01*
X188119744Y-37202738D01*
X188288164Y-37019785D01*
X188424173Y-36811607D01*
X188524063Y-36583881D01*
X188585108Y-36342821D01*
X188605643Y-36095000D01*
X188585108Y-35847179D01*
X188524063Y-35606119D01*
X188424173Y-35378393D01*
X188288164Y-35170215D01*
X188119744Y-34987262D01*
X188083411Y-34958983D01*
X188036992Y-34922853D01*
X187996179Y-34866143D01*
X187992504Y-34796370D01*
X188027136Y-34735687D01*
X188036992Y-34727147D01*
X188061256Y-34708260D01*
X188119744Y-34662738D01*
X188288164Y-34479785D01*
X188424173Y-34271607D01*
X188524063Y-34043881D01*
X188585108Y-33802821D01*
X188605643Y-33555000D01*
X188585108Y-33307179D01*
X188524063Y-33066119D01*
X188424173Y-32838393D01*
X188288164Y-32630215D01*
X188119744Y-32447262D01*
X188097612Y-32430036D01*
X187923514Y-32294529D01*
X187923510Y-32294526D01*
X187923509Y-32294526D01*
X187704810Y-32176172D01*
X187704806Y-32176170D01*
X187704805Y-32176170D01*
X187469615Y-32095429D01*
X187224335Y-32054500D01*
X187193511Y-32054500D01*
X187126472Y-32034815D01*
X187080717Y-31982011D01*
X187070773Y-31912853D01*
X187099798Y-31849297D01*
X187158576Y-31811523D01*
X187165909Y-31809611D01*
X187197416Y-31802420D01*
X187441643Y-31706568D01*
X187668857Y-31575386D01*
X187873981Y-31411805D01*
X187973273Y-31304792D01*
X188052428Y-31219485D01*
X188052429Y-31219482D01*
X188052433Y-31219479D01*
X188200228Y-31002704D01*
X188314063Y-30766323D01*
X188391396Y-30515615D01*
X188430500Y-30256182D01*
X188430500Y-29993818D01*
X188391396Y-29734385D01*
X188314063Y-29483677D01*
X188200228Y-29247296D01*
X188052433Y-29030521D01*
X188052432Y-29030520D01*
X188052428Y-29030514D01*
X187873984Y-28838198D01*
X187873983Y-28838197D01*
X187873981Y-28838195D01*
X187668857Y-28674614D01*
X187668856Y-28674613D01*
X187441641Y-28543431D01*
X187197418Y-28447580D01*
X186941627Y-28389197D01*
X186747808Y-28374673D01*
X186747797Y-28374672D01*
X186745494Y-28374500D01*
X186614506Y-28374500D01*
X186612203Y-28374672D01*
X186612191Y-28374673D01*
X186418372Y-28389197D01*
X186162581Y-28447580D01*
X185918358Y-28543431D01*
X185691143Y-28674613D01*
X185486015Y-28838198D01*
X185307571Y-29030514D01*
X185207070Y-29177922D01*
X185159772Y-29247296D01*
X185045937Y-29483677D01*
X184968604Y-29734385D01*
X184929500Y-29993818D01*
X184929500Y-30256182D01*
X184968604Y-30515615D01*
X185045937Y-30766323D01*
X185159772Y-31002704D01*
X185295766Y-31202170D01*
X185307571Y-31219485D01*
X185486015Y-31411801D01*
X185486019Y-31411805D01*
X185691143Y-31575386D01*
X185918357Y-31706568D01*
X186162584Y-31802420D01*
X186418370Y-31860802D01*
X186614506Y-31875500D01*
X186616823Y-31875500D01*
X186627926Y-31875500D01*
X186694965Y-31895185D01*
X186740720Y-31947989D01*
X186750664Y-32017147D01*
X186721639Y-32080703D01*
X186668189Y-32116781D01*
X186495194Y-32176170D01*
X186495190Y-32176171D01*
X186495190Y-32176172D01*
X186462079Y-32194091D01*
X186276485Y-32294529D01*
X186080259Y-32447259D01*
X185911837Y-32630214D01*
X185775825Y-32838395D01*
X185698983Y-33013579D01*
X185675937Y-33066119D01*
X185622775Y-33276050D01*
X185614891Y-33307183D01*
X185594356Y-33554999D01*
X185614891Y-33802816D01*
X185614891Y-33802819D01*
X185614892Y-33802821D01*
X185675937Y-34043881D01*
X185679763Y-34052603D01*
X185775825Y-34271604D01*
X185775827Y-34271607D01*
X185911836Y-34479785D01*
X186080256Y-34662738D01*
X186163008Y-34727147D01*
X186203821Y-34783858D01*
X186207494Y-34853631D01*
X186172863Y-34914314D01*
X186163008Y-34922853D01*
X186080256Y-34987261D01*
X185946931Y-35132092D01*
X185911836Y-35170215D01*
X185878697Y-35220938D01*
X185775825Y-35378395D01*
X185675938Y-35606117D01*
X185614891Y-35847183D01*
X185594356Y-36095000D01*
X185614891Y-36342816D01*
X185614891Y-36342819D01*
X185614892Y-36342821D01*
X185675937Y-36583881D01*
X185720960Y-36686523D01*
X185775825Y-36811604D01*
X185775827Y-36811607D01*
X185911836Y-37019785D01*
X186045099Y-37164547D01*
X186080256Y-37202738D01*
X186163008Y-37267147D01*
X186203821Y-37323858D01*
X186207494Y-37393631D01*
X186172863Y-37454314D01*
X186163008Y-37462853D01*
X186080256Y-37527261D01*
X185911837Y-37710214D01*
X185775825Y-37918395D01*
X185675938Y-38146117D01*
X185614891Y-38387183D01*
X185594356Y-38634999D01*
X185614891Y-38882816D01*
X185614891Y-38882819D01*
X185614892Y-38882821D01*
X185675937Y-39123881D01*
X185712608Y-39207483D01*
X185775825Y-39351604D01*
X185775827Y-39351607D01*
X185911836Y-39559785D01*
X186016046Y-39672987D01*
X186080256Y-39742738D01*
X186163008Y-39807147D01*
X186203821Y-39863858D01*
X186207494Y-39933631D01*
X186172863Y-39994314D01*
X186163008Y-40002853D01*
X186080256Y-40067261D01*
X185911837Y-40250214D01*
X185775825Y-40458395D01*
X185715498Y-40595928D01*
X185675937Y-40686119D01*
X185614892Y-40927179D01*
X185614891Y-40927183D01*
X185594356Y-41174999D01*
X185614891Y-41422816D01*
X185614891Y-41422819D01*
X185614892Y-41422821D01*
X185675937Y-41663881D01*
X185695559Y-41708615D01*
X185775825Y-41891604D01*
X185775827Y-41891607D01*
X185911836Y-42099785D01*
X186080255Y-42282737D01*
X186080256Y-42282738D01*
X186163008Y-42347147D01*
X186203821Y-42403858D01*
X186207494Y-42473631D01*
X186172863Y-42534314D01*
X186163008Y-42542853D01*
X186080256Y-42607261D01*
X186054235Y-42635528D01*
X185911836Y-42790215D01*
X185866499Y-42859607D01*
X185775825Y-42998395D01*
X185704008Y-43162123D01*
X185675937Y-43226119D01*
X185643705Y-43353400D01*
X185614891Y-43467183D01*
X185594356Y-43715000D01*
X185614891Y-43962816D01*
X185614891Y-43962819D01*
X185614892Y-43962821D01*
X185675937Y-44203881D01*
X185720960Y-44306523D01*
X185775825Y-44431604D01*
X185775827Y-44431607D01*
X185911836Y-44639785D01*
X186080256Y-44822738D01*
X186163008Y-44887146D01*
X186203820Y-44943856D01*
X186207495Y-45013629D01*
X186172863Y-45074312D01*
X186163009Y-45082851D01*
X186080257Y-45147260D01*
X185911837Y-45330214D01*
X185775825Y-45538395D01*
X185675938Y-45766117D01*
X185614891Y-46007183D01*
X185594356Y-46255000D01*
X185614891Y-46502816D01*
X185614891Y-46502819D01*
X185614892Y-46502821D01*
X185675937Y-46743881D01*
X185720960Y-46846523D01*
X185775825Y-46971604D01*
X185775827Y-46971607D01*
X185911836Y-47179785D01*
X186068530Y-47350000D01*
X186080256Y-47362738D01*
X186163008Y-47427147D01*
X186203821Y-47483858D01*
X186207494Y-47553631D01*
X186172863Y-47614314D01*
X186163008Y-47622853D01*
X186080256Y-47687261D01*
X185911837Y-47870214D01*
X185775825Y-48078395D01*
X185707269Y-48234689D01*
X185675937Y-48306119D01*
X185649064Y-48412237D01*
X185614891Y-48547183D01*
X185594356Y-48794999D01*
X185614891Y-49042816D01*
X185614891Y-49042819D01*
X185614892Y-49042821D01*
X185675937Y-49283881D01*
X185715497Y-49374069D01*
X185775825Y-49511604D01*
X185775827Y-49511607D01*
X185911836Y-49719785D01*
X186080256Y-49902737D01*
X186080256Y-49902738D01*
X186163008Y-49967147D01*
X186203821Y-50023858D01*
X186207494Y-50093631D01*
X186172863Y-50154314D01*
X186163008Y-50162853D01*
X186080256Y-50227261D01*
X185911837Y-50410214D01*
X185775825Y-50618395D01*
X185685780Y-50823678D01*
X185675937Y-50846119D01*
X185636969Y-51000000D01*
X185614891Y-51087183D01*
X185594356Y-51334999D01*
X185614891Y-51582816D01*
X185614891Y-51582819D01*
X185614892Y-51582821D01*
X185675937Y-51823881D01*
X185704031Y-51887928D01*
X185775825Y-52051604D01*
X185775827Y-52051607D01*
X185911836Y-52259785D01*
X186035462Y-52394079D01*
X186078036Y-52440327D01*
X186080256Y-52442738D01*
X186163008Y-52507146D01*
X186203820Y-52563856D01*
X186207495Y-52633629D01*
X186172863Y-52694312D01*
X186163009Y-52702851D01*
X186080257Y-52767260D01*
X185911837Y-52950214D01*
X185775825Y-53158395D01*
X185675938Y-53386117D01*
X185614891Y-53627183D01*
X185594356Y-53874999D01*
X185614891Y-54122816D01*
X185614891Y-54122819D01*
X185614892Y-54122821D01*
X185675937Y-54363881D01*
X185720960Y-54466523D01*
X185775825Y-54591604D01*
X185775827Y-54591607D01*
X185911836Y-54799785D01*
X186080256Y-54982738D01*
X186163008Y-55047146D01*
X186203820Y-55103856D01*
X186207495Y-55173629D01*
X186172863Y-55234312D01*
X186163009Y-55242851D01*
X186080257Y-55307260D01*
X185939323Y-55460356D01*
X185911836Y-55490215D01*
X185887963Y-55526756D01*
X185775825Y-55698395D01*
X185736625Y-55787764D01*
X185675937Y-55926119D01*
X185615578Y-56164472D01*
X185614891Y-56167183D01*
X185594356Y-56415000D01*
X185614891Y-56662816D01*
X185614891Y-56662819D01*
X185614892Y-56662821D01*
X185675937Y-56903881D01*
X185720960Y-57006523D01*
X185775825Y-57131604D01*
X185775827Y-57131607D01*
X185911836Y-57339785D01*
X185978532Y-57412236D01*
X186080256Y-57522738D01*
X186163008Y-57587147D01*
X186203821Y-57643858D01*
X186207494Y-57713631D01*
X186172863Y-57774314D01*
X186163008Y-57782853D01*
X186080256Y-57847261D01*
X185911837Y-58030214D01*
X185775825Y-58238395D01*
X185714694Y-58377762D01*
X185675937Y-58466119D01*
X185621890Y-58679546D01*
X185614891Y-58707183D01*
X185594356Y-58954999D01*
X185614891Y-59202816D01*
X185614891Y-59202819D01*
X185614892Y-59202821D01*
X185675937Y-59443881D01*
X185689932Y-59475786D01*
X185775825Y-59671604D01*
X185775827Y-59671607D01*
X185911836Y-59879785D01*
X185999355Y-59974856D01*
X186080256Y-60062738D01*
X186163008Y-60127147D01*
X186203821Y-60183858D01*
X186207494Y-60253631D01*
X186172863Y-60314314D01*
X186163008Y-60322853D01*
X186080256Y-60387261D01*
X185911837Y-60570214D01*
X185775825Y-60778395D01*
X185675938Y-61006117D01*
X185614891Y-61247183D01*
X185594356Y-61494999D01*
X185614891Y-61742816D01*
X185614891Y-61742819D01*
X185614892Y-61742821D01*
X185675937Y-61983881D01*
X185720960Y-62086523D01*
X185775825Y-62211604D01*
X185775827Y-62211607D01*
X185911836Y-62419785D01*
X186080256Y-62602737D01*
X186080256Y-62602738D01*
X186163008Y-62667147D01*
X186203821Y-62723858D01*
X186207494Y-62793631D01*
X186172863Y-62854314D01*
X186163008Y-62862853D01*
X186080256Y-62927261D01*
X185911837Y-63110214D01*
X185775825Y-63318395D01*
X185675938Y-63546117D01*
X185614891Y-63787183D01*
X185594356Y-64035000D01*
X185614891Y-64282816D01*
X185614891Y-64282819D01*
X185614892Y-64282821D01*
X185675937Y-64523881D01*
X185687394Y-64550000D01*
X185775825Y-64751604D01*
X185775827Y-64751607D01*
X185911836Y-64959785D01*
X186080256Y-65142738D01*
X186183745Y-65223286D01*
X186224556Y-65279995D01*
X186231343Y-65328822D01*
X186229941Y-65351389D01*
X186958634Y-66080081D01*
X186954839Y-66080627D01*
X186821438Y-66141549D01*
X186710605Y-66237587D01*
X186631318Y-66360960D01*
X186608866Y-66437419D01*
X185876564Y-65705116D01*
X185776266Y-65858634D01*
X185676413Y-66086278D01*
X185615386Y-66327267D01*
X185594858Y-66574999D01*
X185615386Y-66822732D01*
X185676413Y-67063721D01*
X185776267Y-67291368D01*
X185906941Y-67491380D01*
X185927128Y-67558269D01*
X185907948Y-67625455D01*
X185870412Y-67658476D01*
X185871942Y-67660520D01*
X185857670Y-67671203D01*
X185857669Y-67671204D01*
X185770883Y-67736172D01*
X185742454Y-67757454D01*
X185656204Y-67872668D01*
X185605909Y-68007516D01*
X185601472Y-68048790D01*
X185599500Y-68067127D01*
X185599500Y-68070448D01*
X185599500Y-68070449D01*
X185599500Y-70159560D01*
X185599500Y-70159578D01*
X185599501Y-70162872D01*
X185599853Y-70166152D01*
X185599854Y-70166159D01*
X185605909Y-70222484D01*
X185614139Y-70244550D01*
X185656204Y-70357331D01*
X185742454Y-70472546D01*
X185857669Y-70558796D01*
X185992517Y-70609091D01*
X186052127Y-70615500D01*
X186350500Y-70615499D01*
X186417539Y-70635183D01*
X186463294Y-70687987D01*
X186474500Y-70739499D01*
X186474500Y-72589547D01*
X186454815Y-72656586D01*
X186438181Y-72677228D01*
X178977228Y-80138181D01*
X178915905Y-80171666D01*
X178889547Y-80174500D01*
X153898188Y-80174500D01*
X153831149Y-80154815D01*
X153785394Y-80102011D01*
X153775450Y-80032853D01*
X153798211Y-79982105D01*
X153796728Y-79981235D01*
X153839939Y-79907599D01*
X153920574Y-79770190D01*
X154003245Y-79551126D01*
X154047705Y-79321241D01*
X154050500Y-79268622D01*
X154050500Y-77331378D01*
X154047705Y-77278759D01*
X154033669Y-77206182D01*
X160419500Y-77206182D01*
X160458604Y-77465615D01*
X160535937Y-77716323D01*
X160649772Y-77952704D01*
X160785766Y-78152170D01*
X160797571Y-78169485D01*
X160976015Y-78361801D01*
X160976019Y-78361805D01*
X161181143Y-78525386D01*
X161408357Y-78656568D01*
X161576550Y-78722579D01*
X161618721Y-78739130D01*
X161652584Y-78752420D01*
X161908370Y-78810802D01*
X162104506Y-78825500D01*
X162106823Y-78825500D01*
X162233177Y-78825500D01*
X162235494Y-78825500D01*
X162431630Y-78810802D01*
X162687416Y-78752420D01*
X162931643Y-78656568D01*
X163158857Y-78525386D01*
X163363981Y-78361805D01*
X163463273Y-78254792D01*
X163542428Y-78169485D01*
X163542429Y-78169482D01*
X163542433Y-78169479D01*
X163690228Y-77952704D01*
X163804063Y-77716323D01*
X163881396Y-77465615D01*
X163920500Y-77206182D01*
X163920500Y-76943818D01*
X163881396Y-76684385D01*
X163804063Y-76433677D01*
X163690228Y-76197296D01*
X163542433Y-75980521D01*
X163542432Y-75980520D01*
X163542428Y-75980514D01*
X163363984Y-75788198D01*
X163363983Y-75788197D01*
X163363981Y-75788195D01*
X163158857Y-75624614D01*
X163158856Y-75624613D01*
X162931641Y-75493431D01*
X162687418Y-75397580D01*
X162431627Y-75339197D01*
X162237808Y-75324673D01*
X162237797Y-75324672D01*
X162235494Y-75324500D01*
X162104506Y-75324500D01*
X162102203Y-75324672D01*
X162102191Y-75324673D01*
X161908372Y-75339197D01*
X161652581Y-75397580D01*
X161408358Y-75493431D01*
X161181143Y-75624613D01*
X160976015Y-75788198D01*
X160797571Y-75980514D01*
X160718320Y-76096755D01*
X160649772Y-76197296D01*
X160535937Y-76433677D01*
X160458604Y-76684385D01*
X160419500Y-76943818D01*
X160419500Y-77206182D01*
X154033669Y-77206182D01*
X154003245Y-77048874D01*
X153920574Y-76829810D01*
X153802070Y-76627868D01*
X153651142Y-76448858D01*
X153472132Y-76297930D01*
X153270190Y-76179426D01*
X153051126Y-76096755D01*
X153051121Y-76096754D01*
X153048475Y-76096242D01*
X153044974Y-76094434D01*
X153041251Y-76093029D01*
X153041414Y-76092595D01*
X152986395Y-76064182D01*
X152951503Y-76003648D01*
X152954876Y-75933860D01*
X152995445Y-75876975D01*
X153060328Y-75851052D01*
X153072007Y-75850499D01*
X156597872Y-75850499D01*
X156657483Y-75844091D01*
X156792331Y-75793796D01*
X156907546Y-75707546D01*
X156993796Y-75592331D01*
X157044091Y-75457483D01*
X157050500Y-75397873D01*
X157050499Y-71802128D01*
X157044091Y-71742517D01*
X156993796Y-71607669D01*
X156907546Y-71492454D01*
X156792331Y-71406204D01*
X156657483Y-71355909D01*
X156597873Y-71349500D01*
X156594551Y-71349500D01*
X155549500Y-71349500D01*
X155482461Y-71329815D01*
X155436706Y-71277011D01*
X155425500Y-71225500D01*
X155425500Y-67903765D01*
X155445185Y-67836726D01*
X155484223Y-67798338D01*
X155526562Y-67772124D01*
X155690981Y-67622236D01*
X155825058Y-67444689D01*
X155924229Y-67245528D01*
X155933932Y-67211428D01*
X155947369Y-67164199D01*
X155985115Y-67031536D01*
X156005643Y-66810000D01*
X155985115Y-66588464D01*
X155960421Y-66501673D01*
X155924230Y-66374473D01*
X155825058Y-66175311D01*
X155690980Y-65997762D01*
X155526562Y-65847875D01*
X155337404Y-65730754D01*
X155231036Y-65689547D01*
X155129940Y-65650382D01*
X154911243Y-65609500D01*
X154688757Y-65609500D01*
X154470060Y-65650382D01*
X154262595Y-65730754D01*
X154073437Y-65847875D01*
X153909019Y-65997762D01*
X153774941Y-66175311D01*
X153675769Y-66374473D01*
X153619266Y-66573064D01*
X153581987Y-66632158D01*
X153518677Y-66661715D01*
X153449438Y-66652353D01*
X153396251Y-66607043D01*
X153380734Y-66573064D01*
X153324230Y-66374473D01*
X153225058Y-66175311D01*
X153090980Y-65997762D01*
X152926562Y-65847875D01*
X152737404Y-65730754D01*
X152631036Y-65689547D01*
X152529940Y-65650382D01*
X152311243Y-65609500D01*
X152088757Y-65609500D01*
X151870059Y-65650382D01*
X151870060Y-65650382D01*
X151662595Y-65730754D01*
X151473437Y-65847875D01*
X151309019Y-65997762D01*
X151174941Y-66175311D01*
X151075769Y-66374473D01*
X151014885Y-66588462D01*
X150994357Y-66809999D01*
X151015945Y-67042977D01*
X151012270Y-67043317D01*
X151011845Y-67092829D01*
X150980853Y-67144554D01*
X148577228Y-69548181D01*
X148515905Y-69581666D01*
X148489547Y-69584500D01*
X148320453Y-69584500D01*
X148253414Y-69564815D01*
X148232772Y-69548181D01*
X145899413Y-67214822D01*
X145865928Y-67153499D01*
X145867319Y-67095047D01*
X145867860Y-67093028D01*
X145885635Y-67026692D01*
X145905468Y-66800000D01*
X145885635Y-66573308D01*
X145826739Y-66353504D01*
X145730568Y-66147266D01*
X145721301Y-66134031D01*
X145698975Y-66067828D01*
X145715985Y-66000060D01*
X145748569Y-65963641D01*
X145757189Y-65957187D01*
X145843352Y-65842089D01*
X145893599Y-65707371D01*
X145899645Y-65651132D01*
X145900000Y-65644518D01*
X145900000Y-65050000D01*
X144915686Y-65050000D01*
X144927641Y-65038045D01*
X144985165Y-64925148D01*
X145004986Y-64800000D01*
X144985165Y-64674852D01*
X144927641Y-64561955D01*
X144915686Y-64550000D01*
X145900000Y-64550000D01*
X145900000Y-63955481D01*
X145899645Y-63948867D01*
X145893599Y-63892628D01*
X145843352Y-63757910D01*
X145757188Y-63642811D01*
X145642089Y-63556647D01*
X145507371Y-63506400D01*
X145451132Y-63500354D01*
X145444518Y-63500000D01*
X144850000Y-63500000D01*
X144850000Y-64484314D01*
X144838045Y-64472359D01*
X144725148Y-64414835D01*
X144631481Y-64400000D01*
X144568519Y-64400000D01*
X144474852Y-64414835D01*
X144361955Y-64472359D01*
X144350000Y-64484314D01*
X144350000Y-63500000D01*
X143755482Y-63500000D01*
X143748867Y-63500354D01*
X143692628Y-63506400D01*
X143557910Y-63556647D01*
X143442811Y-63642811D01*
X143356647Y-63757910D01*
X143306400Y-63892628D01*
X143300354Y-63948867D01*
X143300000Y-63955481D01*
X143300000Y-64550000D01*
X144284314Y-64550000D01*
X144272359Y-64561955D01*
X144214835Y-64674852D01*
X144195014Y-64800000D01*
X144214835Y-64925148D01*
X144272359Y-65038045D01*
X144284314Y-65050000D01*
X143300000Y-65050000D01*
X143300000Y-65644518D01*
X143300354Y-65651132D01*
X143306400Y-65707371D01*
X143356647Y-65842089D01*
X143453495Y-65971461D01*
X143451253Y-65973139D01*
X143476725Y-66007165D01*
X143481710Y-66076857D01*
X143448226Y-66138180D01*
X143386903Y-66171666D01*
X143360544Y-66174500D01*
X142510452Y-66174500D01*
X142443413Y-66154815D01*
X142422771Y-66138181D01*
X142061819Y-65777228D01*
X142028334Y-65715905D01*
X142025500Y-65689547D01*
X142025500Y-61510452D01*
X142045185Y-61443413D01*
X142061819Y-61422771D01*
X142622771Y-60861819D01*
X142684094Y-60828334D01*
X142710452Y-60825500D01*
X147917256Y-60825500D01*
X147937762Y-60827764D01*
X147940665Y-60827672D01*
X147940667Y-60827673D01*
X148007872Y-60825561D01*
X148011768Y-60825500D01*
X148035448Y-60825500D01*
X148039350Y-60825500D01*
X148043313Y-60824999D01*
X148054962Y-60824080D01*
X148098627Y-60822709D01*
X148117859Y-60817120D01*
X148136918Y-60813174D01*
X148143196Y-60812381D01*
X148156792Y-60810664D01*
X148197407Y-60794582D01*
X148208444Y-60790803D01*
X148250390Y-60778618D01*
X148267629Y-60768422D01*
X148285102Y-60759862D01*
X148303732Y-60752486D01*
X148339064Y-60726814D01*
X148348830Y-60720400D01*
X148386418Y-60698171D01*
X148386417Y-60698171D01*
X148386420Y-60698170D01*
X148400585Y-60684004D01*
X148415373Y-60671373D01*
X148431587Y-60659594D01*
X148459438Y-60625926D01*
X148467279Y-60617309D01*
X149593788Y-59490801D01*
X149609885Y-59477906D01*
X149611873Y-59475787D01*
X149611877Y-59475786D01*
X149657949Y-59426723D01*
X149660534Y-59424055D01*
X149680120Y-59404471D01*
X149682585Y-59401292D01*
X149690167Y-59392416D01*
X149720062Y-59360582D01*
X149729717Y-59343018D01*
X149740394Y-59326764D01*
X149752673Y-59310936D01*
X149770018Y-59270852D01*
X149775160Y-59260356D01*
X149796197Y-59222092D01*
X149801179Y-59202684D01*
X149807481Y-59184280D01*
X149815437Y-59165896D01*
X149822269Y-59122752D01*
X149824633Y-59111338D01*
X149835500Y-59069019D01*
X149835500Y-59048983D01*
X149837027Y-59029584D01*
X149840160Y-59009804D01*
X149836050Y-58966324D01*
X149835500Y-58954655D01*
X149835500Y-57693765D01*
X149855185Y-57626726D01*
X149894223Y-57588338D01*
X149936562Y-57562124D01*
X150100981Y-57412236D01*
X150235058Y-57234689D01*
X150334229Y-57035528D01*
X150335904Y-57029644D01*
X150368525Y-56914991D01*
X150395115Y-56821536D01*
X150415643Y-56600000D01*
X150395115Y-56378464D01*
X150372227Y-56298021D01*
X150334230Y-56164473D01*
X150235058Y-55965311D01*
X150100980Y-55787762D01*
X149936560Y-55637874D01*
X149894222Y-55611659D01*
X149847587Y-55559631D01*
X149835500Y-55506233D01*
X149835500Y-53281382D01*
X149855185Y-53214343D01*
X149862773Y-53206881D01*
X156156672Y-53206881D01*
X156272816Y-53278795D01*
X156480198Y-53359135D01*
X156698806Y-53400000D01*
X156921194Y-53400000D01*
X157139801Y-53359135D01*
X157347180Y-53278797D01*
X157463326Y-53206880D01*
X157463326Y-53206879D01*
X156810001Y-52553553D01*
X156810000Y-52553553D01*
X156156672Y-53206879D01*
X156156672Y-53206881D01*
X149862773Y-53206881D01*
X149894224Y-53175954D01*
X149916562Y-53162124D01*
X150080981Y-53012236D01*
X150215058Y-52834689D01*
X150314229Y-52635528D01*
X150314281Y-52635347D01*
X150349355Y-52512072D01*
X150375115Y-52421536D01*
X150395643Y-52200000D01*
X155604859Y-52200000D01*
X155625378Y-52421445D01*
X155686238Y-52635347D01*
X155785367Y-52834425D01*
X155801137Y-52855308D01*
X155801138Y-52855308D01*
X156427145Y-52229302D01*
X156456372Y-52229302D01*
X156485047Y-52342538D01*
X156548936Y-52440327D01*
X156641115Y-52512072D01*
X156751595Y-52550000D01*
X156839005Y-52550000D01*
X156925216Y-52535614D01*
X157027947Y-52480019D01*
X157107060Y-52394079D01*
X157153982Y-52287108D01*
X157163628Y-52170698D01*
X157134953Y-52057462D01*
X157071064Y-51959673D01*
X156978885Y-51887928D01*
X156868405Y-51850000D01*
X156780995Y-51850000D01*
X156694784Y-51864386D01*
X156592053Y-51919981D01*
X156512940Y-52005921D01*
X156466018Y-52112892D01*
X156456372Y-52229302D01*
X156427145Y-52229302D01*
X156456447Y-52200000D01*
X155801138Y-51544691D01*
X155801137Y-51544691D01*
X155785368Y-51565574D01*
X155686237Y-51764654D01*
X155625378Y-51978554D01*
X155604859Y-52200000D01*
X150395643Y-52200000D01*
X150375115Y-51978464D01*
X150336444Y-51842548D01*
X150314230Y-51764473D01*
X150215058Y-51565311D01*
X150080980Y-51387762D01*
X149916562Y-51237875D01*
X149844278Y-51193119D01*
X156156671Y-51193119D01*
X156810000Y-51846447D01*
X156810001Y-51846447D01*
X157463327Y-51193119D01*
X157347179Y-51121202D01*
X157139801Y-51040864D01*
X156921194Y-51000000D01*
X156698806Y-51000000D01*
X156480198Y-51040864D01*
X156272821Y-51121202D01*
X156156671Y-51193119D01*
X149844278Y-51193119D01*
X149727404Y-51120754D01*
X149640737Y-51087179D01*
X149519940Y-51040382D01*
X149301243Y-50999500D01*
X149078757Y-50999500D01*
X148860060Y-51040381D01*
X148860060Y-51040382D01*
X148652595Y-51120754D01*
X148463437Y-51237875D01*
X148299019Y-51387762D01*
X148164941Y-51565311D01*
X148065769Y-51764473D01*
X148004885Y-51978462D01*
X147984357Y-52200000D01*
X148004885Y-52421537D01*
X148065769Y-52635526D01*
X148164941Y-52834688D01*
X148299019Y-53012237D01*
X148463433Y-53162120D01*
X148463434Y-53162121D01*
X148463438Y-53162124D01*
X148525779Y-53200724D01*
X148572413Y-53252749D01*
X148584500Y-53306149D01*
X148584499Y-55506233D01*
X148564814Y-55573273D01*
X148525778Y-55611659D01*
X148483437Y-55637875D01*
X148319019Y-55787762D01*
X148184941Y-55965311D01*
X148085769Y-56164473D01*
X148024885Y-56378462D01*
X148004357Y-56600000D01*
X148024885Y-56821537D01*
X148085769Y-57035526D01*
X148184941Y-57234688D01*
X148319019Y-57412237D01*
X148440236Y-57522740D01*
X148483438Y-57562124D01*
X148525776Y-57588338D01*
X148572412Y-57640364D01*
X148584500Y-57693765D01*
X148584500Y-58679546D01*
X148564815Y-58746585D01*
X148548181Y-58767227D01*
X147777228Y-59538181D01*
X147715905Y-59571666D01*
X147689547Y-59574500D01*
X142482744Y-59574500D01*
X142462236Y-59572235D01*
X142392113Y-59574439D01*
X142388219Y-59574500D01*
X142360650Y-59574500D01*
X142356794Y-59574986D01*
X142356791Y-59574987D01*
X142356735Y-59574994D01*
X142356662Y-59575003D01*
X142345043Y-59575917D01*
X142301372Y-59577289D01*
X142282128Y-59582880D01*
X142263084Y-59586824D01*
X142243208Y-59589335D01*
X142202600Y-59605413D01*
X142191554Y-59609194D01*
X142149610Y-59621382D01*
X142149607Y-59621383D01*
X142132365Y-59631579D01*
X142114904Y-59640133D01*
X142096267Y-59647512D01*
X142060931Y-59673185D01*
X142051174Y-59679595D01*
X142013580Y-59701829D01*
X141999413Y-59715996D01*
X141984624Y-59728626D01*
X141968413Y-59740404D01*
X141940572Y-59774058D01*
X141932711Y-59782697D01*
X141727181Y-59988227D01*
X141665858Y-60021712D01*
X141596166Y-60016728D01*
X141540233Y-59974856D01*
X141515816Y-59909392D01*
X141515500Y-59900546D01*
X141515500Y-57924500D01*
X141535185Y-57857461D01*
X141587989Y-57811706D01*
X141639500Y-57800500D01*
X141701241Y-57800500D01*
X141701243Y-57800500D01*
X141919940Y-57759618D01*
X142127401Y-57679247D01*
X142316562Y-57562124D01*
X142480981Y-57412236D01*
X142615058Y-57234689D01*
X142714229Y-57035528D01*
X142715904Y-57029644D01*
X142748525Y-56914991D01*
X142775115Y-56821536D01*
X142795643Y-56600000D01*
X142775115Y-56378464D01*
X142752227Y-56298021D01*
X142714230Y-56164473D01*
X142615058Y-55965311D01*
X142480980Y-55787762D01*
X142316560Y-55637874D01*
X142274222Y-55611659D01*
X142227587Y-55559631D01*
X142215500Y-55506233D01*
X142215500Y-47600000D01*
X147994357Y-47600000D01*
X148014885Y-47821537D01*
X148075769Y-48035526D01*
X148174941Y-48234688D01*
X148309019Y-48412237D01*
X148473437Y-48562124D01*
X148662595Y-48679245D01*
X148662597Y-48679245D01*
X148662599Y-48679247D01*
X148870060Y-48759618D01*
X149088757Y-48800500D01*
X149088759Y-48800500D01*
X149311241Y-48800500D01*
X149311243Y-48800500D01*
X149529940Y-48759618D01*
X149737401Y-48679247D01*
X149926562Y-48562124D01*
X150090981Y-48412236D01*
X150225058Y-48234689D01*
X150324229Y-48035528D01*
X150324280Y-48035351D01*
X150368475Y-47880019D01*
X150377016Y-47850000D01*
X155643505Y-47850000D01*
X155696240Y-48035351D01*
X155795365Y-48234422D01*
X155929390Y-48411899D01*
X156093737Y-48561721D01*
X156282821Y-48678797D01*
X156490199Y-48759135D01*
X156570000Y-48774052D01*
X156570000Y-47850000D01*
X155643505Y-47850000D01*
X150377016Y-47850000D01*
X150385115Y-47821536D01*
X150402928Y-47629302D01*
X156466372Y-47629302D01*
X156495047Y-47742538D01*
X156558936Y-47840327D01*
X156651115Y-47912072D01*
X156761595Y-47950000D01*
X156849005Y-47950000D01*
X156935216Y-47935614D01*
X157037947Y-47880019D01*
X157065581Y-47850000D01*
X157070000Y-47850000D01*
X157070000Y-48774052D01*
X157149800Y-48759135D01*
X157357178Y-48678797D01*
X157546262Y-48561721D01*
X157710609Y-48411899D01*
X157844634Y-48234422D01*
X157943759Y-48035351D01*
X157996495Y-47850000D01*
X157070000Y-47850000D01*
X157065581Y-47850000D01*
X157117060Y-47794079D01*
X157163982Y-47687108D01*
X157173628Y-47570698D01*
X157144953Y-47457462D01*
X157081064Y-47359673D01*
X156988885Y-47287928D01*
X156878405Y-47250000D01*
X156790995Y-47250000D01*
X156704784Y-47264386D01*
X156602053Y-47319981D01*
X156522940Y-47405921D01*
X156476018Y-47512892D01*
X156466372Y-47629302D01*
X150402928Y-47629302D01*
X150405643Y-47600000D01*
X150385115Y-47378464D01*
X150377016Y-47350000D01*
X155643505Y-47350000D01*
X156570000Y-47350000D01*
X156570000Y-46425946D01*
X157070000Y-46425946D01*
X157070000Y-47350000D01*
X157996495Y-47350000D01*
X157943759Y-47164648D01*
X157844634Y-46965577D01*
X157710609Y-46788100D01*
X157546262Y-46638278D01*
X157357178Y-46521202D01*
X157149802Y-46440864D01*
X157070000Y-46425946D01*
X156570000Y-46425946D01*
X156490197Y-46440864D01*
X156282821Y-46521202D01*
X156093737Y-46638278D01*
X155929390Y-46788100D01*
X155795365Y-46965577D01*
X155696240Y-47164648D01*
X155643505Y-47350000D01*
X150377016Y-47350000D01*
X150348564Y-47250000D01*
X150324230Y-47164473D01*
X150225058Y-46965311D01*
X150090980Y-46787762D01*
X149926560Y-46637874D01*
X149884222Y-46611659D01*
X149837587Y-46559631D01*
X149825500Y-46506233D01*
X149825500Y-45493765D01*
X149845185Y-45426726D01*
X149884223Y-45388338D01*
X149926562Y-45362124D01*
X150090981Y-45212236D01*
X150225058Y-45034689D01*
X150324229Y-44835528D01*
X150327869Y-44822737D01*
X150347116Y-44755085D01*
X150385115Y-44621536D01*
X150405643Y-44400000D01*
X150385115Y-44178464D01*
X150362227Y-44098021D01*
X150324230Y-43964473D01*
X150225058Y-43765311D01*
X150090980Y-43587762D01*
X149926560Y-43437874D01*
X149884222Y-43411659D01*
X149837587Y-43359631D01*
X149825500Y-43306233D01*
X149825500Y-43293765D01*
X149845185Y-43226726D01*
X149884223Y-43188338D01*
X149926562Y-43162124D01*
X150090981Y-43012236D01*
X150194788Y-42874772D01*
X150250897Y-42833137D01*
X150293742Y-42825500D01*
X153924166Y-42825500D01*
X153991205Y-42845185D01*
X154036960Y-42897989D01*
X154046904Y-42967147D01*
X154023432Y-43023811D01*
X153956648Y-43113021D01*
X153906400Y-43247741D01*
X153900354Y-43303980D01*
X153900000Y-43310594D01*
X153900000Y-43905113D01*
X154884314Y-43905113D01*
X154872359Y-43917068D01*
X154814835Y-44029965D01*
X154795014Y-44155113D01*
X154814835Y-44280261D01*
X154872359Y-44393158D01*
X154884314Y-44405113D01*
X153900000Y-44405113D01*
X153900000Y-44999631D01*
X153900354Y-45006245D01*
X153906400Y-45062484D01*
X153956647Y-45197202D01*
X154042811Y-45312301D01*
X154157910Y-45398465D01*
X154292628Y-45448712D01*
X154348867Y-45454758D01*
X154355482Y-45455113D01*
X154950000Y-45455113D01*
X154950000Y-44470798D01*
X154961955Y-44482754D01*
X155074852Y-44540278D01*
X155168519Y-44555113D01*
X155231481Y-44555113D01*
X155325148Y-44540278D01*
X155438045Y-44482754D01*
X155450000Y-44470798D01*
X155450000Y-45455113D01*
X156044518Y-45455113D01*
X156051132Y-45454758D01*
X156107371Y-45448712D01*
X156242089Y-45398465D01*
X156357188Y-45312301D01*
X156443352Y-45197202D01*
X156493599Y-45062484D01*
X156499645Y-45006245D01*
X156500000Y-44999631D01*
X156500000Y-44405113D01*
X155515686Y-44405113D01*
X155527641Y-44393158D01*
X155585165Y-44280261D01*
X155604986Y-44155113D01*
X155585165Y-44029965D01*
X155527641Y-43917068D01*
X155515686Y-43905113D01*
X156500000Y-43905113D01*
X156500000Y-43310594D01*
X156499645Y-43303980D01*
X156493599Y-43247741D01*
X156443352Y-43113023D01*
X156357187Y-42997922D01*
X156348567Y-42991469D01*
X156306695Y-42935536D01*
X156301711Y-42865844D01*
X156321302Y-42821079D01*
X156330568Y-42807847D01*
X156426739Y-42601609D01*
X156485635Y-42381805D01*
X156505468Y-42155113D01*
X156485635Y-41928421D01*
X156426739Y-41708617D01*
X156330568Y-41502379D01*
X156274862Y-41422821D01*
X156200046Y-41315972D01*
X156039140Y-41155066D01*
X155878377Y-41042500D01*
X155834752Y-40987924D01*
X155825500Y-40940925D01*
X155825500Y-39724499D01*
X155845185Y-39657460D01*
X155897989Y-39611705D01*
X155949500Y-39600499D01*
X156644561Y-39600499D01*
X156647872Y-39600499D01*
X156707483Y-39594091D01*
X156842331Y-39543796D01*
X156957546Y-39457546D01*
X157043796Y-39342331D01*
X157094091Y-39207483D01*
X157100500Y-39147873D01*
X157100499Y-36252128D01*
X157094091Y-36192517D01*
X157043796Y-36057669D01*
X156957546Y-35942454D01*
X156842331Y-35856204D01*
X156707483Y-35805909D01*
X156647873Y-35799500D01*
X156644550Y-35799500D01*
X153755439Y-35799500D01*
X153755420Y-35799500D01*
X153752128Y-35799501D01*
X153748848Y-35799853D01*
X153748840Y-35799854D01*
X153692515Y-35805909D01*
X153557669Y-35856204D01*
X153442454Y-35942454D01*
X153356204Y-36057668D01*
X153305910Y-36192515D01*
X153305909Y-36192517D01*
X153299500Y-36252127D01*
X153299500Y-36255448D01*
X153299500Y-36255449D01*
X153299500Y-39144560D01*
X153299500Y-39144578D01*
X153299501Y-39147872D01*
X153305909Y-39207483D01*
X153356204Y-39342331D01*
X153442454Y-39457546D01*
X153557669Y-39543796D01*
X153692517Y-39594091D01*
X153752127Y-39600500D01*
X154450500Y-39600499D01*
X154517539Y-39620183D01*
X154563294Y-39672987D01*
X154574500Y-39724499D01*
X154574500Y-40940925D01*
X154554815Y-41007964D01*
X154521623Y-41042500D01*
X154360859Y-41155066D01*
X154199953Y-41315972D01*
X154069432Y-41502377D01*
X154069187Y-41502905D01*
X154068584Y-41503589D01*
X154063210Y-41511265D01*
X154062353Y-41510665D01*
X154023015Y-41555344D01*
X153956805Y-41574500D01*
X150293742Y-41574500D01*
X150226703Y-41554815D01*
X150194788Y-41525227D01*
X150090980Y-41387762D01*
X149926562Y-41237875D01*
X149737404Y-41120754D01*
X149676174Y-41097033D01*
X149529940Y-41040382D01*
X149311243Y-40999500D01*
X149088757Y-40999500D01*
X148954780Y-41024545D01*
X148870060Y-41040382D01*
X148662595Y-41120754D01*
X148473437Y-41237875D01*
X148309019Y-41387762D01*
X148174941Y-41565311D01*
X148075769Y-41764473D01*
X148014885Y-41978462D01*
X147994357Y-42200000D01*
X148014885Y-42421537D01*
X148075769Y-42635526D01*
X148174941Y-42834688D01*
X148309019Y-43012237D01*
X148419577Y-43113023D01*
X148473438Y-43162124D01*
X148515776Y-43188338D01*
X148562412Y-43240364D01*
X148574500Y-43293765D01*
X148574500Y-43306233D01*
X148554815Y-43373272D01*
X148515778Y-43411659D01*
X148473439Y-43437874D01*
X148309019Y-43587762D01*
X148174941Y-43765311D01*
X148075769Y-43964473D01*
X148014885Y-44178462D01*
X147994357Y-44400000D01*
X148014885Y-44621537D01*
X148075769Y-44835526D01*
X148174941Y-45034688D01*
X148309019Y-45212237D01*
X148460086Y-45349952D01*
X148473438Y-45362124D01*
X148515776Y-45388338D01*
X148562412Y-45440364D01*
X148574500Y-45493765D01*
X148574500Y-46506233D01*
X148554815Y-46573272D01*
X148515778Y-46611659D01*
X148473439Y-46637874D01*
X148309019Y-46787762D01*
X148174941Y-46965311D01*
X148075769Y-47164473D01*
X148014885Y-47378462D01*
X147994357Y-47600000D01*
X142215500Y-47600000D01*
X142215500Y-45487574D01*
X142235185Y-45420535D01*
X142274223Y-45382147D01*
X142306562Y-45362124D01*
X142470981Y-45212236D01*
X142605058Y-45034689D01*
X142704229Y-44835528D01*
X142707869Y-44822737D01*
X142727116Y-44755085D01*
X142765115Y-44621536D01*
X142785643Y-44400000D01*
X142765115Y-44178464D01*
X142742227Y-44098021D01*
X142704230Y-43964473D01*
X142605058Y-43765311D01*
X142470980Y-43587762D01*
X142306562Y-43437876D01*
X142254155Y-43405427D01*
X142207519Y-43353400D01*
X142196415Y-43284418D01*
X142224368Y-43220383D01*
X142254155Y-43194573D01*
X142264226Y-43188337D01*
X142306562Y-43162124D01*
X142470981Y-43012236D01*
X142605058Y-42834689D01*
X142704229Y-42635528D01*
X142712272Y-42607262D01*
X142746733Y-42486141D01*
X142765115Y-42421536D01*
X142785643Y-42200000D01*
X142765115Y-41978464D01*
X142764055Y-41967022D01*
X142767735Y-41966680D01*
X142768134Y-41917232D01*
X142799143Y-41865445D01*
X145027771Y-39636818D01*
X145089094Y-39603333D01*
X145115452Y-39600499D01*
X146944561Y-39600499D01*
X146947872Y-39600499D01*
X147007483Y-39594091D01*
X147142331Y-39543796D01*
X147257546Y-39457546D01*
X147343796Y-39342331D01*
X147394091Y-39207483D01*
X147400500Y-39147873D01*
X147400499Y-37035451D01*
X147420184Y-36968413D01*
X147436813Y-36947776D01*
X148983789Y-35400800D01*
X148999885Y-35387906D01*
X149001873Y-35385787D01*
X149001877Y-35385786D01*
X149047949Y-35336723D01*
X149050534Y-35334055D01*
X149070120Y-35314471D01*
X149072585Y-35311292D01*
X149080167Y-35302416D01*
X149110062Y-35270582D01*
X149119712Y-35253027D01*
X149130400Y-35236757D01*
X149142671Y-35220938D01*
X149142673Y-35220936D01*
X149160026Y-35180832D01*
X149165157Y-35170362D01*
X149165238Y-35170215D01*
X149186197Y-35132092D01*
X149191175Y-35112699D01*
X149197481Y-35094282D01*
X149201362Y-35085313D01*
X149205438Y-35075896D01*
X149212272Y-35032745D01*
X149214635Y-35021331D01*
X149225500Y-34979019D01*
X149225500Y-34958982D01*
X149227027Y-34939584D01*
X149228543Y-34930011D01*
X149230160Y-34919804D01*
X149226050Y-34876324D01*
X149225500Y-34864655D01*
X149225500Y-33947396D01*
X152795746Y-33947396D01*
X152805746Y-34157330D01*
X152855297Y-34361580D01*
X152942602Y-34552752D01*
X153020925Y-34662740D01*
X153064514Y-34723952D01*
X153216622Y-34868986D01*
X153287153Y-34914314D01*
X153393425Y-34982612D01*
X153432580Y-34998287D01*
X153588543Y-35060725D01*
X153717233Y-35085528D01*
X153794914Y-35100500D01*
X153794915Y-35100500D01*
X153949471Y-35100500D01*
X153952425Y-35100500D01*
X153955376Y-35100218D01*
X153955380Y-35100218D01*
X154017542Y-35094282D01*
X154109218Y-35085528D01*
X154310875Y-35026316D01*
X154497682Y-34930011D01*
X154662886Y-34800092D01*
X154800519Y-34641256D01*
X154905604Y-34459244D01*
X154974344Y-34260633D01*
X155004254Y-34052602D01*
X154994254Y-33842670D01*
X154944704Y-33638424D01*
X154944702Y-33638419D01*
X154857397Y-33447247D01*
X154735487Y-33276050D01*
X154735486Y-33276048D01*
X154583378Y-33131014D01*
X154529314Y-33096269D01*
X154406574Y-33017387D01*
X154214699Y-32940573D01*
X154211457Y-32939275D01*
X154211456Y-32939274D01*
X154211454Y-32939274D01*
X154005086Y-32899500D01*
X154005085Y-32899500D01*
X153847575Y-32899500D01*
X153844645Y-32899779D01*
X153844619Y-32899781D01*
X153690784Y-32914471D01*
X153489126Y-32973683D01*
X153302315Y-33069990D01*
X153137115Y-33199906D01*
X152999479Y-33358745D01*
X152894396Y-33540754D01*
X152825655Y-33739366D01*
X152795746Y-33947396D01*
X149225500Y-33947396D01*
X149225500Y-32141624D01*
X149245185Y-32074585D01*
X149250234Y-32067313D01*
X149257546Y-32057546D01*
X149343796Y-31942331D01*
X149394091Y-31807483D01*
X149400500Y-31747873D01*
X149400500Y-31049500D01*
X149420185Y-30982461D01*
X149472989Y-30936706D01*
X149524500Y-30925500D01*
X154589548Y-30925500D01*
X154656587Y-30945185D01*
X154677229Y-30961819D01*
X157338181Y-33622771D01*
X157371666Y-33684094D01*
X157374500Y-33710452D01*
X157374500Y-37392256D01*
X157372235Y-37412766D01*
X157374439Y-37482872D01*
X157374500Y-37486767D01*
X157374500Y-37514350D01*
X157374988Y-37518219D01*
X157374989Y-37518225D01*
X157375004Y-37518343D01*
X157375918Y-37529967D01*
X157377290Y-37573626D01*
X157382879Y-37592860D01*
X157386825Y-37611916D01*
X157389335Y-37631792D01*
X157405414Y-37672404D01*
X157409197Y-37683451D01*
X157421382Y-37725391D01*
X157431580Y-37742635D01*
X157440136Y-37760100D01*
X157447514Y-37778732D01*
X157447515Y-37778733D01*
X157473180Y-37814059D01*
X157479593Y-37823822D01*
X157501826Y-37861416D01*
X157501829Y-37861419D01*
X157501830Y-37861420D01*
X157515995Y-37875585D01*
X157528627Y-37890375D01*
X157540406Y-37906587D01*
X157574058Y-37934426D01*
X157582699Y-37942289D01*
X160236338Y-40595928D01*
X160269823Y-40657251D01*
X160268863Y-40714049D01*
X160214891Y-40927182D01*
X160194356Y-41174999D01*
X160214891Y-41422816D01*
X160214891Y-41422819D01*
X160214892Y-41422821D01*
X160275937Y-41663881D01*
X160295559Y-41708615D01*
X160375825Y-41891604D01*
X160375827Y-41891607D01*
X160511836Y-42099785D01*
X160680255Y-42282737D01*
X160680256Y-42282738D01*
X160763008Y-42347147D01*
X160803821Y-42403858D01*
X160807494Y-42473631D01*
X160772863Y-42534314D01*
X160763008Y-42542853D01*
X160680256Y-42607261D01*
X160654235Y-42635528D01*
X160511836Y-42790215D01*
X160466499Y-42859607D01*
X160375825Y-42998395D01*
X160304008Y-43162123D01*
X160275937Y-43226119D01*
X160243705Y-43353400D01*
X160214891Y-43467183D01*
X160194356Y-43714999D01*
X160214891Y-43962816D01*
X160214891Y-43962819D01*
X160214892Y-43962821D01*
X160275937Y-44203881D01*
X160320960Y-44306523D01*
X160375825Y-44431604D01*
X160375827Y-44431607D01*
X160511836Y-44639785D01*
X160680255Y-44822737D01*
X160680256Y-44822738D01*
X160763008Y-44887147D01*
X160803821Y-44943858D01*
X160807494Y-45013631D01*
X160772863Y-45074314D01*
X160763008Y-45082853D01*
X160680256Y-45147261D01*
X160511837Y-45330214D01*
X160375825Y-45538395D01*
X160275938Y-45766117D01*
X160214891Y-46007183D01*
X160194356Y-46255000D01*
X160214891Y-46502816D01*
X160214891Y-46502819D01*
X160214892Y-46502821D01*
X160275937Y-46743881D01*
X160320960Y-46846523D01*
X160375825Y-46971604D01*
X160375827Y-46971607D01*
X160511836Y-47179785D01*
X160668530Y-47350000D01*
X160680256Y-47362738D01*
X160763008Y-47427147D01*
X160803821Y-47483858D01*
X160807494Y-47553631D01*
X160772863Y-47614314D01*
X160763008Y-47622853D01*
X160680256Y-47687261D01*
X160511837Y-47870214D01*
X160375825Y-48078395D01*
X160307269Y-48234689D01*
X160275937Y-48306119D01*
X160249064Y-48412237D01*
X160214891Y-48547183D01*
X160194356Y-48794999D01*
X160214891Y-49042816D01*
X160268863Y-49255948D01*
X160266238Y-49325768D01*
X160236338Y-49374069D01*
X158416208Y-51194199D01*
X158400110Y-51207096D01*
X158352096Y-51258225D01*
X158349392Y-51261016D01*
X158332628Y-51277780D01*
X158332621Y-51277787D01*
X158329880Y-51280529D01*
X158327499Y-51283597D01*
X158327490Y-51283608D01*
X158327411Y-51283711D01*
X158319842Y-51292572D01*
X158289935Y-51324420D01*
X158280285Y-51341974D01*
X158269609Y-51358228D01*
X158257326Y-51374063D01*
X158239975Y-51414158D01*
X158234838Y-51424644D01*
X158213802Y-51462907D01*
X158208821Y-51482309D01*
X158202520Y-51500711D01*
X158194561Y-51519102D01*
X158187728Y-51562242D01*
X158185360Y-51573674D01*
X158174500Y-51615977D01*
X158174500Y-51636016D01*
X158172973Y-51655414D01*
X158169839Y-51675196D01*
X158172848Y-51707027D01*
X158159559Y-51775621D01*
X158111294Y-51826141D01*
X158043378Y-51842548D01*
X157977373Y-51819632D01*
X157938398Y-51773966D01*
X157834630Y-51565572D01*
X157818860Y-51544690D01*
X157163553Y-52199999D01*
X157163553Y-52200000D01*
X157818861Y-52855308D01*
X157834632Y-52834424D01*
X157938883Y-52625062D01*
X157942264Y-52626745D01*
X157968508Y-52585141D01*
X158031816Y-52555580D01*
X158101056Y-52564938D01*
X158154245Y-52610245D01*
X158174496Y-52677115D01*
X158174500Y-52678164D01*
X158174500Y-54879545D01*
X158154815Y-54946584D01*
X158138181Y-54967226D01*
X155129892Y-57975515D01*
X155068569Y-58009000D01*
X155019426Y-58009722D01*
X154911243Y-57989500D01*
X154688757Y-57989500D01*
X154516328Y-58021733D01*
X154470060Y-58030382D01*
X154262595Y-58110754D01*
X154073437Y-58227875D01*
X153909019Y-58377762D01*
X153805212Y-58515227D01*
X153749103Y-58556863D01*
X153706258Y-58564500D01*
X153293742Y-58564500D01*
X153226703Y-58544815D01*
X153194788Y-58515227D01*
X153090980Y-58377762D01*
X152926562Y-58227875D01*
X152737404Y-58110754D01*
X152676174Y-58087033D01*
X152529940Y-58030382D01*
X152311243Y-57989500D01*
X152088757Y-57989500D01*
X151916328Y-58021733D01*
X151870060Y-58030382D01*
X151662595Y-58110754D01*
X151473437Y-58227875D01*
X151309019Y-58377762D01*
X151174941Y-58555311D01*
X151075769Y-58754473D01*
X151014885Y-58968462D01*
X150994357Y-59189999D01*
X151014885Y-59411537D01*
X151075769Y-59625526D01*
X151174941Y-59824688D01*
X151309019Y-60002237D01*
X151473437Y-60152124D01*
X151662595Y-60269245D01*
X151662597Y-60269245D01*
X151662599Y-60269247D01*
X151870060Y-60349618D01*
X152088757Y-60390500D01*
X152088759Y-60390500D01*
X152311241Y-60390500D01*
X152311243Y-60390500D01*
X152529940Y-60349618D01*
X152737401Y-60269247D01*
X152926562Y-60152124D01*
X152926561Y-60152123D01*
X153090980Y-60002237D01*
X153167774Y-59900546D01*
X153194788Y-59864772D01*
X153250897Y-59823137D01*
X153293742Y-59815500D01*
X153706258Y-59815500D01*
X153773297Y-59835185D01*
X153805212Y-59864773D01*
X153909019Y-60002237D01*
X154073437Y-60152124D01*
X154262595Y-60269245D01*
X154262597Y-60269245D01*
X154262599Y-60269247D01*
X154470060Y-60349618D01*
X154688757Y-60390500D01*
X154688759Y-60390500D01*
X154911241Y-60390500D01*
X154911243Y-60390500D01*
X155129940Y-60349618D01*
X155337401Y-60269247D01*
X155526562Y-60152124D01*
X155526561Y-60152123D01*
X155690980Y-60002237D01*
X155761093Y-59909392D01*
X155825058Y-59824689D01*
X155924229Y-59625528D01*
X155925409Y-59621383D01*
X155966834Y-59475786D01*
X155985115Y-59411536D01*
X156005643Y-59190000D01*
X155985115Y-58968464D01*
X155984055Y-58957022D01*
X155987735Y-58956680D01*
X155988134Y-58907232D01*
X156019143Y-58855445D01*
X159183789Y-55690800D01*
X159199885Y-55677906D01*
X159201873Y-55675787D01*
X159201877Y-55675786D01*
X159247949Y-55626723D01*
X159250534Y-55624055D01*
X159270120Y-55604471D01*
X159272585Y-55601292D01*
X159280167Y-55592416D01*
X159310062Y-55560582D01*
X159319717Y-55543018D01*
X159330394Y-55526764D01*
X159342673Y-55510936D01*
X159360018Y-55470852D01*
X159365160Y-55460356D01*
X159386197Y-55422092D01*
X159391179Y-55402684D01*
X159397481Y-55384280D01*
X159405437Y-55365896D01*
X159412269Y-55322752D01*
X159414633Y-55311338D01*
X159425500Y-55269019D01*
X159425500Y-55248983D01*
X159427027Y-55229584D01*
X159430160Y-55209804D01*
X159426050Y-55166324D01*
X159425500Y-55154655D01*
X159425500Y-52005452D01*
X159445185Y-51938413D01*
X159461819Y-51917771D01*
X159724176Y-51655414D01*
X159993732Y-51385857D01*
X160055053Y-51352374D01*
X160124744Y-51357358D01*
X160180678Y-51399229D01*
X160204987Y-51463300D01*
X160214891Y-51582816D01*
X160214891Y-51582819D01*
X160214892Y-51582821D01*
X160275937Y-51823881D01*
X160304031Y-51887928D01*
X160375825Y-52051604D01*
X160375827Y-52051607D01*
X160511836Y-52259785D01*
X160660738Y-52421536D01*
X160680256Y-52442738D01*
X160763008Y-52507147D01*
X160803821Y-52563858D01*
X160807494Y-52633631D01*
X160772863Y-52694314D01*
X160763008Y-52702853D01*
X160680256Y-52767261D01*
X160511837Y-52950214D01*
X160375825Y-53158395D01*
X160275938Y-53386117D01*
X160214891Y-53627183D01*
X160194356Y-53875000D01*
X160214891Y-54122816D01*
X160214891Y-54122819D01*
X160214892Y-54122821D01*
X160275937Y-54363881D01*
X160320960Y-54466523D01*
X160375825Y-54591604D01*
X160375827Y-54591607D01*
X160511836Y-54799785D01*
X160680256Y-54982738D01*
X160763008Y-55047146D01*
X160803820Y-55103856D01*
X160807495Y-55173629D01*
X160772863Y-55234312D01*
X160763009Y-55242851D01*
X160680257Y-55307260D01*
X160539323Y-55460356D01*
X160511836Y-55490215D01*
X160487963Y-55526756D01*
X160375825Y-55698395D01*
X160336625Y-55787764D01*
X160275937Y-55926119D01*
X160215578Y-56164472D01*
X160214891Y-56167183D01*
X160194356Y-56415000D01*
X160214891Y-56662816D01*
X160214891Y-56662819D01*
X160214892Y-56662821D01*
X160275937Y-56903881D01*
X160320960Y-57006523D01*
X160375825Y-57131604D01*
X160375827Y-57131607D01*
X160511836Y-57339785D01*
X160578532Y-57412236D01*
X160680256Y-57522738D01*
X160763008Y-57587147D01*
X160803821Y-57643858D01*
X160807494Y-57713631D01*
X160772863Y-57774314D01*
X160763008Y-57782853D01*
X160680256Y-57847261D01*
X160511837Y-58030214D01*
X160375825Y-58238395D01*
X160314694Y-58377762D01*
X160275937Y-58466119D01*
X160221890Y-58679546D01*
X160214891Y-58707183D01*
X160194356Y-58954999D01*
X160214891Y-59202816D01*
X160214891Y-59202819D01*
X160214892Y-59202821D01*
X160275937Y-59443881D01*
X160289932Y-59475786D01*
X160375825Y-59671604D01*
X160375827Y-59671607D01*
X160511836Y-59879785D01*
X160599355Y-59974856D01*
X160680256Y-60062738D01*
X160763008Y-60127147D01*
X160803821Y-60183858D01*
X160807494Y-60253631D01*
X160772863Y-60314314D01*
X160763008Y-60322853D01*
X160680256Y-60387261D01*
X160511837Y-60570214D01*
X160375825Y-60778395D01*
X160275938Y-61006117D01*
X160214891Y-61247183D01*
X160194356Y-61494999D01*
X160214891Y-61742816D01*
X160214891Y-61742819D01*
X160214892Y-61742821D01*
X160275937Y-61983881D01*
X160320960Y-62086523D01*
X160375825Y-62211604D01*
X160375827Y-62211607D01*
X160511836Y-62419785D01*
X160680256Y-62602738D01*
X160763008Y-62667146D01*
X160803820Y-62723856D01*
X160807495Y-62793629D01*
X160772863Y-62854312D01*
X160763009Y-62862851D01*
X160680257Y-62927260D01*
X160511837Y-63110214D01*
X160375825Y-63318395D01*
X160275938Y-63546117D01*
X160214891Y-63787183D01*
X160194356Y-64034999D01*
X160214891Y-64282816D01*
X160214891Y-64282819D01*
X160214892Y-64282821D01*
X160275937Y-64523881D01*
X160287394Y-64550000D01*
X160375825Y-64751604D01*
X160375827Y-64751607D01*
X160511836Y-64959785D01*
X160594885Y-65050000D01*
X160680256Y-65142738D01*
X160783744Y-65223286D01*
X160824557Y-65279996D01*
X160831343Y-65328823D01*
X160829941Y-65351389D01*
X161558634Y-66080081D01*
X161554839Y-66080627D01*
X161421438Y-66141549D01*
X161310605Y-66237587D01*
X161231318Y-66360960D01*
X161208867Y-66437419D01*
X160476564Y-65705116D01*
X160376266Y-65858634D01*
X160276413Y-66086278D01*
X160215386Y-66327267D01*
X160194858Y-66575000D01*
X160215386Y-66822732D01*
X160276413Y-67063721D01*
X160376268Y-67291370D01*
X160476563Y-67444882D01*
X160476564Y-67444882D01*
X161208866Y-66712580D01*
X161231318Y-66789040D01*
X161310605Y-66912413D01*
X161421438Y-67008451D01*
X161554839Y-67069373D01*
X161558634Y-67069918D01*
X160829942Y-67798610D01*
X160831343Y-67821178D01*
X160815850Y-67889308D01*
X160783744Y-67926714D01*
X160680256Y-68007261D01*
X160511835Y-68190216D01*
X160375828Y-68398390D01*
X160375827Y-68398393D01*
X160331120Y-68500312D01*
X160286166Y-68553796D01*
X160219429Y-68574486D01*
X160217566Y-68574500D01*
X160024499Y-68574500D01*
X159957460Y-68554815D01*
X159911705Y-68502011D01*
X159900499Y-68450500D01*
X159900499Y-68155439D01*
X159900499Y-68152128D01*
X159894091Y-68092517D01*
X159843796Y-67957669D01*
X159757546Y-67842454D01*
X159642331Y-67756204D01*
X159507483Y-67705909D01*
X159447873Y-67699500D01*
X159444550Y-67699500D01*
X157355439Y-67699500D01*
X157355420Y-67699500D01*
X157352128Y-67699501D01*
X157348848Y-67699853D01*
X157348840Y-67699854D01*
X157292515Y-67705909D01*
X157157669Y-67756204D01*
X157042454Y-67842454D01*
X156956204Y-67957668D01*
X156905909Y-68092516D01*
X156904517Y-68105468D01*
X156899500Y-68152127D01*
X156899500Y-68155448D01*
X156899500Y-68155449D01*
X156899500Y-70244560D01*
X156899500Y-70244578D01*
X156899501Y-70247872D01*
X156905909Y-70307483D01*
X156956204Y-70442331D01*
X157042454Y-70557546D01*
X157157669Y-70643796D01*
X157292517Y-70694091D01*
X157352127Y-70700500D01*
X159447872Y-70700499D01*
X159507483Y-70694091D01*
X159642331Y-70643796D01*
X159757546Y-70557546D01*
X159843796Y-70442331D01*
X159894091Y-70307483D01*
X159900500Y-70247873D01*
X159900500Y-69949499D01*
X159920185Y-69882461D01*
X159972989Y-69836706D01*
X160024500Y-69825500D01*
X160304731Y-69825500D01*
X160371770Y-69845185D01*
X160408539Y-69881677D01*
X160511836Y-70039785D01*
X160680256Y-70222738D01*
X160716771Y-70251159D01*
X160876485Y-70375470D01*
X160876487Y-70375471D01*
X160876491Y-70375474D01*
X161095190Y-70493828D01*
X161330386Y-70574571D01*
X161575665Y-70615500D01*
X161824335Y-70615500D01*
X162069614Y-70574571D01*
X162304810Y-70493828D01*
X162523509Y-70375474D01*
X162719744Y-70222738D01*
X162888164Y-70039785D01*
X163024173Y-69831607D01*
X163124063Y-69603881D01*
X163185108Y-69362821D01*
X163205643Y-69115000D01*
X163185108Y-68867179D01*
X163124063Y-68626119D01*
X163024173Y-68398393D01*
X162888164Y-68190215D01*
X162719744Y-68007262D01*
X162616253Y-67926712D01*
X162575442Y-67870003D01*
X162568655Y-67821176D01*
X162570056Y-67798609D01*
X161841365Y-67069918D01*
X161845161Y-67069373D01*
X161978562Y-67008451D01*
X162089395Y-66912413D01*
X162168682Y-66789040D01*
X162191133Y-66712579D01*
X162923434Y-67444882D01*
X163023730Y-67291369D01*
X163123586Y-67063721D01*
X163184613Y-66822732D01*
X163205141Y-66574999D01*
X163184613Y-66327267D01*
X163123586Y-66086278D01*
X163023730Y-65858630D01*
X162923434Y-65705116D01*
X162191132Y-66437418D01*
X162168682Y-66360960D01*
X162089395Y-66237587D01*
X161978562Y-66141549D01*
X161845161Y-66080627D01*
X161841366Y-66080081D01*
X162570056Y-65351390D01*
X162568655Y-65328825D01*
X162584147Y-65260694D01*
X162616250Y-65223290D01*
X162719744Y-65142738D01*
X162888164Y-64959785D01*
X163024173Y-64751607D01*
X163124063Y-64523881D01*
X163185108Y-64282821D01*
X163205643Y-64035000D01*
X163185108Y-63787179D01*
X163124063Y-63546119D01*
X163024173Y-63318393D01*
X162888164Y-63110215D01*
X162719744Y-62927262D01*
X162703437Y-62914570D01*
X162636992Y-62862853D01*
X162596179Y-62806143D01*
X162592504Y-62736370D01*
X162627136Y-62675687D01*
X162636992Y-62667147D01*
X162661256Y-62648260D01*
X162719744Y-62602738D01*
X162888164Y-62419785D01*
X163024173Y-62211607D01*
X163124063Y-61983881D01*
X163185108Y-61742821D01*
X163205643Y-61495000D01*
X163185108Y-61247179D01*
X163124063Y-61006119D01*
X163024173Y-60778393D01*
X162888164Y-60570215D01*
X162719744Y-60387262D01*
X162671378Y-60349617D01*
X162636992Y-60322853D01*
X162596179Y-60266143D01*
X162592504Y-60196370D01*
X162627136Y-60135687D01*
X162636992Y-60127147D01*
X162661256Y-60108260D01*
X162719744Y-60062738D01*
X162888164Y-59879785D01*
X163024173Y-59671607D01*
X163124063Y-59443881D01*
X163185108Y-59202821D01*
X163205643Y-58955000D01*
X163185108Y-58707179D01*
X163124063Y-58466119D01*
X163024173Y-58238393D01*
X162888164Y-58030215D01*
X162719744Y-57847262D01*
X162674062Y-57811706D01*
X162636992Y-57782853D01*
X162596179Y-57726143D01*
X162592504Y-57656370D01*
X162627136Y-57595687D01*
X162636992Y-57587147D01*
X162669142Y-57562123D01*
X162719744Y-57522738D01*
X162888164Y-57339785D01*
X163024173Y-57131607D01*
X163124063Y-56903881D01*
X163185108Y-56662821D01*
X163205643Y-56415000D01*
X163185108Y-56167179D01*
X163124063Y-55926119D01*
X163024173Y-55698393D01*
X162888164Y-55490215D01*
X162719744Y-55307262D01*
X162703437Y-55294570D01*
X162636992Y-55242853D01*
X162596179Y-55186143D01*
X162592504Y-55116370D01*
X162627136Y-55055687D01*
X162636992Y-55047147D01*
X162661256Y-55028260D01*
X162719744Y-54982738D01*
X162888164Y-54799785D01*
X163024173Y-54591607D01*
X163124063Y-54363881D01*
X163185108Y-54122821D01*
X163205643Y-53875000D01*
X163185108Y-53627179D01*
X163124063Y-53386119D01*
X163024173Y-53158393D01*
X162888164Y-52950215D01*
X162719744Y-52767262D01*
X162703437Y-52754570D01*
X162636992Y-52702853D01*
X162596179Y-52646143D01*
X162592504Y-52576370D01*
X162627136Y-52515687D01*
X162636992Y-52507147D01*
X162671845Y-52480019D01*
X162719744Y-52442738D01*
X162888164Y-52259785D01*
X163024173Y-52051607D01*
X163124063Y-51823881D01*
X163185108Y-51582821D01*
X163205643Y-51335000D01*
X163185108Y-51087179D01*
X163124063Y-50846119D01*
X163024173Y-50618393D01*
X162888164Y-50410215D01*
X162719744Y-50227262D01*
X162703437Y-50214570D01*
X162636992Y-50162853D01*
X162596179Y-50106143D01*
X162592504Y-50036370D01*
X162627136Y-49975687D01*
X162636992Y-49967147D01*
X162661256Y-49948260D01*
X162719744Y-49902738D01*
X162888164Y-49719785D01*
X163024173Y-49511607D01*
X163124063Y-49283881D01*
X163185108Y-49042821D01*
X163205643Y-48795000D01*
X163185108Y-48547179D01*
X163124063Y-48306119D01*
X163024173Y-48078393D01*
X162888164Y-47870215D01*
X162719744Y-47687262D01*
X162703437Y-47674570D01*
X162636992Y-47622853D01*
X162596179Y-47566143D01*
X162592504Y-47496370D01*
X162627136Y-47435687D01*
X162636992Y-47427147D01*
X162661256Y-47408260D01*
X162719744Y-47362738D01*
X162888164Y-47179785D01*
X163024173Y-46971607D01*
X163124063Y-46743881D01*
X163185108Y-46502821D01*
X163205643Y-46255000D01*
X163185108Y-46007179D01*
X163124063Y-45766119D01*
X163024173Y-45538393D01*
X162888164Y-45330215D01*
X162719744Y-45147262D01*
X162703437Y-45134570D01*
X162636992Y-45082853D01*
X162596179Y-45026143D01*
X162592504Y-44956370D01*
X162627136Y-44895687D01*
X162636992Y-44887147D01*
X162661256Y-44868260D01*
X162719744Y-44822738D01*
X162888164Y-44639785D01*
X163024173Y-44431607D01*
X163124063Y-44203881D01*
X163185108Y-43962821D01*
X163205643Y-43715000D01*
X163185108Y-43467179D01*
X163124063Y-43226119D01*
X163024173Y-42998393D01*
X162888164Y-42790215D01*
X162719744Y-42607262D01*
X162719743Y-42607261D01*
X162636991Y-42542852D01*
X162596178Y-42486141D01*
X162592505Y-42416368D01*
X162627136Y-42355685D01*
X162636974Y-42347160D01*
X162719744Y-42282738D01*
X162888164Y-42099785D01*
X163024173Y-41891607D01*
X163124063Y-41663881D01*
X163185108Y-41422821D01*
X163205643Y-41175000D01*
X163185108Y-40927179D01*
X163124063Y-40686119D01*
X163024173Y-40458393D01*
X162888164Y-40250215D01*
X162719744Y-40067262D01*
X162719740Y-40067259D01*
X162636991Y-40002852D01*
X162596178Y-39946141D01*
X162592505Y-39876368D01*
X162627136Y-39815685D01*
X162636974Y-39807160D01*
X162719744Y-39742738D01*
X162888164Y-39559785D01*
X163024173Y-39351607D01*
X163124063Y-39123881D01*
X163185108Y-38882821D01*
X163205643Y-38635000D01*
X163185108Y-38387179D01*
X163124063Y-38146119D01*
X163024173Y-37918393D01*
X162888164Y-37710215D01*
X162719744Y-37527262D01*
X162662712Y-37482872D01*
X162636992Y-37462853D01*
X162596179Y-37406143D01*
X162592504Y-37336370D01*
X162627136Y-37275687D01*
X162636992Y-37267147D01*
X162661256Y-37248260D01*
X162719744Y-37202738D01*
X162888164Y-37019785D01*
X163024173Y-36811607D01*
X163124063Y-36583881D01*
X163185108Y-36342821D01*
X163205643Y-36095000D01*
X163185108Y-35847179D01*
X163124063Y-35606119D01*
X163024173Y-35378393D01*
X162888164Y-35170215D01*
X162719744Y-34987262D01*
X162683411Y-34958983D01*
X162636992Y-34922853D01*
X162596179Y-34866143D01*
X162592504Y-34796370D01*
X162627136Y-34735687D01*
X162636992Y-34727147D01*
X162661256Y-34708260D01*
X162719744Y-34662738D01*
X162888164Y-34479785D01*
X163024173Y-34271607D01*
X163124063Y-34043881D01*
X163185108Y-33802821D01*
X163205643Y-33555000D01*
X163185108Y-33307179D01*
X163124063Y-33066119D01*
X163024173Y-32838393D01*
X162888164Y-32630215D01*
X162719744Y-32447262D01*
X162697612Y-32430036D01*
X162523514Y-32294529D01*
X162523510Y-32294526D01*
X162523509Y-32294526D01*
X162304810Y-32176172D01*
X162304806Y-32176170D01*
X162304805Y-32176170D01*
X162131811Y-32116781D01*
X162074796Y-32076396D01*
X162048665Y-32011596D01*
X162061716Y-31942956D01*
X162109805Y-31892268D01*
X162172074Y-31875500D01*
X162233177Y-31875500D01*
X162235494Y-31875500D01*
X162431630Y-31860802D01*
X162687416Y-31802420D01*
X162931643Y-31706568D01*
X163158857Y-31575386D01*
X163363981Y-31411805D01*
X163463273Y-31304792D01*
X163542428Y-31219485D01*
X163542429Y-31219482D01*
X163542433Y-31219479D01*
X163690228Y-31002704D01*
X163804063Y-30766323D01*
X163881396Y-30515615D01*
X163920500Y-30256182D01*
X163920500Y-29993818D01*
X163881396Y-29734385D01*
X163804063Y-29483677D01*
X163690228Y-29247296D01*
X163542433Y-29030521D01*
X163542432Y-29030520D01*
X163542428Y-29030514D01*
X163363984Y-28838198D01*
X163363983Y-28838197D01*
X163363981Y-28838195D01*
X163158857Y-28674614D01*
X163158856Y-28674613D01*
X162931641Y-28543431D01*
X162687418Y-28447580D01*
X162431627Y-28389197D01*
X162237808Y-28374673D01*
X162237797Y-28374672D01*
X162235494Y-28374500D01*
X162104506Y-28374500D01*
X162102203Y-28374672D01*
X162102191Y-28374673D01*
X161908372Y-28389197D01*
X161652581Y-28447580D01*
X161408358Y-28543431D01*
X161181143Y-28674613D01*
X160976015Y-28838198D01*
X160797571Y-29030514D01*
X160697070Y-29177922D01*
X160649772Y-29247296D01*
X160535937Y-29483677D01*
X160458604Y-29734385D01*
X160419500Y-29993818D01*
X160419500Y-30256182D01*
X160458604Y-30515615D01*
X160535937Y-30766323D01*
X160649772Y-31002704D01*
X160785766Y-31202170D01*
X160797571Y-31219485D01*
X160976015Y-31411801D01*
X160976019Y-31411805D01*
X161181143Y-31575386D01*
X161408357Y-31706568D01*
X161652584Y-31802420D01*
X161684082Y-31809609D01*
X161745060Y-31843718D01*
X161777918Y-31905380D01*
X161772223Y-31975017D01*
X161729783Y-32030520D01*
X161664073Y-32054268D01*
X161656489Y-32054500D01*
X161575665Y-32054500D01*
X161330384Y-32095429D01*
X161095194Y-32176170D01*
X161095190Y-32176171D01*
X161095190Y-32176172D01*
X161062079Y-32194091D01*
X160876485Y-32294529D01*
X160680259Y-32447259D01*
X160511837Y-32630214D01*
X160375825Y-32838395D01*
X160298983Y-33013579D01*
X160275937Y-33066119D01*
X160222775Y-33276050D01*
X160214891Y-33307183D01*
X160194356Y-33555000D01*
X160214891Y-33802816D01*
X160214891Y-33802819D01*
X160214892Y-33802821D01*
X160275937Y-34043881D01*
X160279763Y-34052603D01*
X160375825Y-34271604D01*
X160375827Y-34271607D01*
X160511836Y-34479785D01*
X160680255Y-34662738D01*
X160680256Y-34662738D01*
X160763008Y-34727147D01*
X160803821Y-34783858D01*
X160807494Y-34853631D01*
X160772863Y-34914314D01*
X160763008Y-34922853D01*
X160680256Y-34987261D01*
X160546931Y-35132092D01*
X160511836Y-35170215D01*
X160478697Y-35220938D01*
X160375825Y-35378395D01*
X160275938Y-35606117D01*
X160214891Y-35847183D01*
X160194356Y-36095000D01*
X160214891Y-36342816D01*
X160214891Y-36342819D01*
X160214892Y-36342821D01*
X160275937Y-36583881D01*
X160320960Y-36686523D01*
X160375825Y-36811604D01*
X160375827Y-36811607D01*
X160511836Y-37019785D01*
X160645099Y-37164547D01*
X160680256Y-37202738D01*
X160763008Y-37267147D01*
X160803821Y-37323858D01*
X160807494Y-37393631D01*
X160772863Y-37454314D01*
X160763008Y-37462853D01*
X160680256Y-37527261D01*
X160511837Y-37710214D01*
X160375825Y-37918395D01*
X160275938Y-38146117D01*
X160214891Y-38387183D01*
X160204987Y-38506699D01*
X160179834Y-38571883D01*
X160123431Y-38613121D01*
X160053688Y-38617319D01*
X159993730Y-38584139D01*
X158661819Y-37252228D01*
X158628334Y-37190905D01*
X158625500Y-37164547D01*
X158625500Y-33482741D01*
X158627763Y-33462237D01*
X158625561Y-33392144D01*
X158625500Y-33388250D01*
X158625500Y-33364544D01*
X158625500Y-33360650D01*
X158624998Y-33356681D01*
X158624080Y-33345024D01*
X158623815Y-33336584D01*
X158622709Y-33301373D01*
X158617120Y-33282140D01*
X158613174Y-33263082D01*
X158610664Y-33243206D01*
X158594588Y-33202604D01*
X158590804Y-33191553D01*
X158584881Y-33171168D01*
X158578618Y-33149610D01*
X158568414Y-33132355D01*
X158559861Y-33114895D01*
X158552486Y-33096269D01*
X158552486Y-33096268D01*
X158526808Y-33060925D01*
X158520401Y-33051171D01*
X158498169Y-33013579D01*
X158484006Y-32999416D01*
X158471367Y-32984617D01*
X158459595Y-32968413D01*
X158425941Y-32940573D01*
X158417299Y-32932709D01*
X155400802Y-29916211D01*
X155387906Y-29900113D01*
X155336775Y-29852098D01*
X155333978Y-29849387D01*
X155317227Y-29832636D01*
X155314471Y-29829880D01*
X155311290Y-29827412D01*
X155302422Y-29819837D01*
X155270582Y-29789938D01*
X155253024Y-29780285D01*
X155236764Y-29769604D01*
X155220936Y-29757327D01*
X155180851Y-29739980D01*
X155170361Y-29734841D01*
X155132091Y-29713802D01*
X155112691Y-29708821D01*
X155094284Y-29702519D01*
X155075897Y-29694562D01*
X155032758Y-29687729D01*
X155021324Y-29685361D01*
X154979019Y-29674500D01*
X154958984Y-29674500D01*
X154939586Y-29672973D01*
X154932162Y-29671797D01*
X154919805Y-29669840D01*
X154919804Y-29669840D01*
X154886751Y-29672964D01*
X154876325Y-29673950D01*
X154864656Y-29674500D01*
X149524499Y-29674500D01*
X149457460Y-29654815D01*
X149411705Y-29602011D01*
X149400499Y-29550500D01*
X149400499Y-29247296D01*
X149400499Y-28852128D01*
X149394091Y-28792517D01*
X149343796Y-28657669D01*
X149257546Y-28542454D01*
X149142331Y-28456204D01*
X149007483Y-28405909D01*
X148947873Y-28399500D01*
X148944550Y-28399500D01*
X146655439Y-28399500D01*
X146655420Y-28399500D01*
X146652128Y-28399501D01*
X146648848Y-28399853D01*
X146648840Y-28399854D01*
X146592515Y-28405909D01*
X146457669Y-28456204D01*
X146342454Y-28542454D01*
X146256204Y-28657668D01*
X146205909Y-28792516D01*
X146200998Y-28838198D01*
X146199500Y-28852127D01*
X146199500Y-28855448D01*
X146199500Y-28855449D01*
X146199500Y-31744560D01*
X146199500Y-31744578D01*
X146199501Y-31747872D01*
X146199853Y-31751152D01*
X146199854Y-31751159D01*
X146205909Y-31807484D01*
X146225796Y-31860802D01*
X146256204Y-31942331D01*
X146342454Y-32057546D01*
X146457669Y-32143796D01*
X146592517Y-32194091D01*
X146652127Y-32200500D01*
X147850500Y-32200499D01*
X147917539Y-32220184D01*
X147963294Y-32272987D01*
X147974500Y-32324499D01*
X147974500Y-33223790D01*
X147954815Y-33290829D01*
X147902011Y-33336584D01*
X147832853Y-33346528D01*
X147769297Y-33317503D01*
X147749494Y-33295718D01*
X147735489Y-33276051D01*
X147732044Y-33272766D01*
X147583378Y-33131014D01*
X147529314Y-33096269D01*
X147406574Y-33017387D01*
X147214699Y-32940573D01*
X147211457Y-32939275D01*
X147211456Y-32939274D01*
X147211454Y-32939274D01*
X147005086Y-32899500D01*
X147005085Y-32899500D01*
X146847575Y-32899500D01*
X146844645Y-32899779D01*
X146844619Y-32899781D01*
X146690784Y-32914471D01*
X146489126Y-32973683D01*
X146302315Y-33069990D01*
X146137115Y-33199906D01*
X145999479Y-33358745D01*
X145894396Y-33540754D01*
X145825655Y-33739366D01*
X145795746Y-33947396D01*
X145805746Y-34157330D01*
X145855297Y-34361580D01*
X145942602Y-34552752D01*
X146020925Y-34662740D01*
X146064514Y-34723952D01*
X146216622Y-34868986D01*
X146287153Y-34914314D01*
X146393425Y-34982612D01*
X146432580Y-34998287D01*
X146588543Y-35060725D01*
X146717233Y-35085528D01*
X146794914Y-35100500D01*
X146794915Y-35100500D01*
X146949471Y-35100500D01*
X146952425Y-35100500D01*
X146955376Y-35100218D01*
X146955380Y-35100218D01*
X147017542Y-35094282D01*
X147109218Y-35085528D01*
X147238596Y-35047539D01*
X147308464Y-35047539D01*
X147367243Y-35085313D01*
X147396268Y-35148868D01*
X147386325Y-35218027D01*
X147361211Y-35254197D01*
X146852227Y-35763181D01*
X146790904Y-35796666D01*
X146764546Y-35799500D01*
X144655439Y-35799500D01*
X144655420Y-35799500D01*
X144652128Y-35799501D01*
X144648848Y-35799853D01*
X144648840Y-35799854D01*
X144592515Y-35805909D01*
X144457669Y-35856204D01*
X144342454Y-35942454D01*
X144256204Y-36057668D01*
X144205910Y-36192515D01*
X144205909Y-36192517D01*
X144199500Y-36252127D01*
X144199500Y-36255448D01*
X144199500Y-36255449D01*
X144199500Y-38644546D01*
X144179815Y-38711585D01*
X144163181Y-38732227D01*
X141909892Y-40985515D01*
X141848569Y-41019000D01*
X141799426Y-41019722D01*
X141691243Y-40999500D01*
X141468757Y-40999500D01*
X141334780Y-41024545D01*
X141250060Y-41040382D01*
X141042595Y-41120754D01*
X140853437Y-41237875D01*
X140689019Y-41387762D01*
X140554941Y-41565311D01*
X140455769Y-41764473D01*
X140394885Y-41978462D01*
X140374357Y-42200000D01*
X140394885Y-42421537D01*
X140455769Y-42635526D01*
X140554941Y-42834688D01*
X140689019Y-43012237D01*
X140853435Y-43162122D01*
X140905845Y-43194573D01*
X140952480Y-43246601D01*
X140963584Y-43315583D01*
X140935631Y-43379617D01*
X140905845Y-43405427D01*
X140853435Y-43437877D01*
X140689019Y-43587762D01*
X140554941Y-43765311D01*
X140455769Y-43964473D01*
X140394885Y-44178462D01*
X140374357Y-44400000D01*
X140394885Y-44621537D01*
X140455769Y-44835526D01*
X140554941Y-45034688D01*
X140689019Y-45212237D01*
X140853435Y-45362122D01*
X140853437Y-45362123D01*
X140853438Y-45362124D01*
X140905778Y-45394531D01*
X140952412Y-45446556D01*
X140964500Y-45499957D01*
X140964500Y-55506233D01*
X140944815Y-55573272D01*
X140905778Y-55611659D01*
X140863439Y-55637874D01*
X140699019Y-55787762D01*
X140564941Y-55965311D01*
X140465769Y-56164473D01*
X140404885Y-56378462D01*
X140384357Y-56600000D01*
X140405945Y-56832977D01*
X140403270Y-56833224D01*
X140402818Y-56886236D01*
X140386200Y-56914991D01*
X140387482Y-56915696D01*
X140370285Y-56946974D01*
X140359609Y-56963228D01*
X140347326Y-56979063D01*
X140329975Y-57019158D01*
X140324838Y-57029644D01*
X140303802Y-57067907D01*
X140298821Y-57087309D01*
X140292520Y-57105711D01*
X140284561Y-57124102D01*
X140277728Y-57167242D01*
X140275360Y-57178674D01*
X140264500Y-57220977D01*
X140264500Y-57241016D01*
X140262973Y-57260414D01*
X140259840Y-57280194D01*
X139800500Y-57280194D01*
X139800500Y-29003245D01*
X139800670Y-28996755D01*
X139807490Y-28866625D01*
X139809086Y-28838198D01*
X139817628Y-28686089D01*
X139818955Y-28673692D01*
X139842611Y-28524331D01*
X139869739Y-28364669D01*
X139872206Y-28353379D01*
X139912425Y-28203279D01*
X139934977Y-28125000D01*
X165620000Y-28125000D01*
X165620000Y-34615000D01*
X183310000Y-34615000D01*
X183310000Y-28125000D01*
X165620000Y-28125000D01*
X139934977Y-28125000D01*
X139956353Y-28050803D01*
X139959721Y-28040759D01*
X140015583Y-27895233D01*
X140016692Y-27892452D01*
X140076439Y-27748212D01*
X140080488Y-27739429D01*
X140151569Y-27599925D01*
X140153521Y-27596250D01*
X140228588Y-27460426D01*
X140233065Y-27452962D01*
X140318633Y-27321199D01*
X140321434Y-27317077D01*
X140411010Y-27190832D01*
X140415733Y-27184603D01*
X140514702Y-27062386D01*
X140518532Y-27057885D01*
X140621613Y-26942537D01*
X140626323Y-26937556D01*
X140737556Y-26826323D01*
X140742537Y-26821613D01*
X140857885Y-26718532D01*
X140862386Y-26714702D01*
X140984603Y-26615733D01*
X140990832Y-26611010D01*
X141117077Y-26521434D01*
X141121199Y-26518633D01*
X141252962Y-26433065D01*
X141260426Y-26428588D01*
X141396255Y-26353517D01*
X141399934Y-26351565D01*
X141539429Y-26280488D01*
X141548212Y-26276439D01*
X141692452Y-26216692D01*
X141695233Y-26215583D01*
X141840753Y-26159724D01*
X141850818Y-26156349D01*
X142003292Y-26112422D01*
X142153407Y-26072198D01*
X142164672Y-26069739D01*
X142324337Y-26042610D01*
X142473688Y-26018955D01*
X142486098Y-26017627D01*
X142666566Y-26007493D01*
X142796756Y-26000669D01*
X142803245Y-26000500D01*
X186596755Y-26000500D01*
X186603243Y-26000669D01*
G37*
%TD.AperFunction*%
%TD*%
%TA.AperFunction,NonConductor*%
G36*
X153550562Y-66967646D02*
G01*
X153603749Y-67012956D01*
X153619266Y-67046935D01*
X153675769Y-67245526D01*
X153774941Y-67444688D01*
X153909019Y-67622237D01*
X154055975Y-67756204D01*
X154073438Y-67772124D01*
X154115776Y-67798338D01*
X154162412Y-67850364D01*
X154174500Y-67903765D01*
X154174500Y-71225500D01*
X154154815Y-71292539D01*
X154102011Y-71338294D01*
X154050500Y-71349500D01*
X153005439Y-71349500D01*
X153005420Y-71349500D01*
X153002128Y-71349501D01*
X152998848Y-71349853D01*
X152998840Y-71349854D01*
X152942515Y-71355909D01*
X152807669Y-71406204D01*
X152692454Y-71492454D01*
X152606204Y-71607668D01*
X152555910Y-71742515D01*
X152555909Y-71742517D01*
X152549500Y-71802127D01*
X152549500Y-71805448D01*
X152549500Y-71805449D01*
X152549500Y-75394560D01*
X152549500Y-75394578D01*
X152549501Y-75397872D01*
X152555909Y-75457483D01*
X152606204Y-75592331D01*
X152692454Y-75707546D01*
X152807669Y-75793796D01*
X152854940Y-75811427D01*
X152910873Y-75853296D01*
X152935291Y-75918761D01*
X152920440Y-75987034D01*
X152871035Y-76036440D01*
X152805033Y-76051434D01*
X152770242Y-76049586D01*
X152770240Y-76049585D01*
X152768622Y-76049500D01*
X150831378Y-76049500D01*
X150829753Y-76049586D01*
X150829727Y-76049587D01*
X150783040Y-76052067D01*
X150783031Y-76052068D01*
X150778759Y-76052295D01*
X150774562Y-76053106D01*
X150774551Y-76053108D01*
X150556947Y-76095193D01*
X150487390Y-76088596D01*
X150445721Y-76061130D01*
X150219695Y-75835104D01*
X150186210Y-75773781D01*
X150191194Y-75704089D01*
X150233066Y-75648156D01*
X150236701Y-75645537D01*
X150354654Y-75563819D01*
X150513819Y-75404654D01*
X150642007Y-75219626D01*
X150735096Y-75014683D01*
X150790096Y-74796412D01*
X150800500Y-74664217D01*
X150800499Y-72535784D01*
X150790096Y-72403588D01*
X150790095Y-72403583D01*
X150735097Y-72185318D01*
X150642007Y-71980374D01*
X150513819Y-71795345D01*
X150354654Y-71636180D01*
X150169625Y-71507992D01*
X149964681Y-71414902D01*
X149746416Y-71359904D01*
X149616651Y-71349691D01*
X149616636Y-71349690D01*
X149614217Y-71349500D01*
X149611772Y-71349500D01*
X149549500Y-71349500D01*
X149482461Y-71329815D01*
X149436706Y-71277011D01*
X149425500Y-71225500D01*
X149425500Y-70520452D01*
X149445185Y-70453413D01*
X149461819Y-70432771D01*
X150531774Y-69362816D01*
X151870107Y-68024482D01*
X151931428Y-67990999D01*
X151980570Y-67990276D01*
X152088757Y-68010500D01*
X152088758Y-68010500D01*
X152311241Y-68010500D01*
X152311243Y-68010500D01*
X152529940Y-67969618D01*
X152737401Y-67889247D01*
X152926562Y-67772124D01*
X153005838Y-67699854D01*
X153090980Y-67622237D01*
X153131900Y-67568050D01*
X153225058Y-67444689D01*
X153324229Y-67245528D01*
X153327288Y-67234780D01*
X153380734Y-67046935D01*
X153418013Y-66987842D01*
X153481323Y-66958284D01*
X153550562Y-66967646D01*
G37*
%TD.AperFunction*%
%TA.AperFunction,NonConductor*%
G36*
X141720703Y-67208106D02*
G01*
X141724385Y-67211428D01*
X141763224Y-67247901D01*
X141766020Y-67250611D01*
X141785529Y-67270120D01*
X141788709Y-67272587D01*
X141797571Y-67280155D01*
X141829418Y-67310062D01*
X141846972Y-67319712D01*
X141863236Y-67330396D01*
X141874972Y-67339499D01*
X141879064Y-67342673D01*
X141903909Y-67353424D01*
X141919152Y-67360021D01*
X141929631Y-67365154D01*
X141967908Y-67386197D01*
X141987306Y-67391177D01*
X142005708Y-67397477D01*
X142024104Y-67405438D01*
X142067261Y-67412273D01*
X142078664Y-67414634D01*
X142120981Y-67425500D01*
X142141016Y-67425500D01*
X142160413Y-67427026D01*
X142180196Y-67430160D01*
X142223674Y-67426050D01*
X142235344Y-67425500D01*
X143385812Y-67425500D01*
X143452851Y-67445185D01*
X143487387Y-67478377D01*
X143599953Y-67639140D01*
X143760859Y-67800046D01*
X143947264Y-67930567D01*
X143947265Y-67930567D01*
X143947266Y-67930568D01*
X144153504Y-68026739D01*
X144373308Y-68085635D01*
X144600000Y-68105468D01*
X144826692Y-68085635D01*
X144895047Y-68067319D01*
X144964897Y-68068982D01*
X145014822Y-68099413D01*
X147509196Y-70593787D01*
X147522096Y-70609888D01*
X147573223Y-70657900D01*
X147576020Y-70660611D01*
X147595529Y-70680120D01*
X147598709Y-70682587D01*
X147607571Y-70690155D01*
X147639418Y-70720062D01*
X147656970Y-70729711D01*
X147673238Y-70740397D01*
X147689064Y-70752673D01*
X147729146Y-70770017D01*
X147739633Y-70775155D01*
X147777907Y-70796197D01*
X147786410Y-70798379D01*
X147797308Y-70801178D01*
X147815713Y-70807478D01*
X147834104Y-70815437D01*
X147877250Y-70822270D01*
X147888668Y-70824635D01*
X147930981Y-70835500D01*
X147951016Y-70835500D01*
X147970415Y-70837027D01*
X147990196Y-70840160D01*
X148033674Y-70836050D01*
X148045344Y-70835500D01*
X148050500Y-70835500D01*
X148117539Y-70855185D01*
X148163294Y-70907989D01*
X148174500Y-70959500D01*
X148174500Y-71225500D01*
X148154815Y-71292539D01*
X148102011Y-71338294D01*
X148050502Y-71349500D01*
X147988205Y-71349500D01*
X147988179Y-71349500D01*
X147985784Y-71349501D01*
X147983392Y-71349689D01*
X147983372Y-71349690D01*
X147853583Y-71359904D01*
X147635318Y-71414902D01*
X147430374Y-71507992D01*
X147245345Y-71636180D01*
X147086180Y-71795345D01*
X146957992Y-71980374D01*
X146864902Y-72185318D01*
X146809904Y-72403583D01*
X146799691Y-72533348D01*
X146799690Y-72533364D01*
X146799500Y-72535783D01*
X146799500Y-72538227D01*
X146799500Y-72538228D01*
X146799500Y-74661770D01*
X146799500Y-74661795D01*
X146799501Y-74664216D01*
X146799691Y-74666635D01*
X146799692Y-74666651D01*
X146809904Y-74796416D01*
X146864902Y-75014681D01*
X146957992Y-75219625D01*
X147086180Y-75404654D01*
X147245345Y-75563819D01*
X147430374Y-75692007D01*
X147635318Y-75785097D01*
X147853583Y-75840095D01*
X147853584Y-75840095D01*
X147853588Y-75840096D01*
X147985783Y-75850500D01*
X148414547Y-75850499D01*
X148481586Y-75870183D01*
X148502228Y-75886818D01*
X149561130Y-76945720D01*
X149594615Y-77007043D01*
X149595193Y-77056946D01*
X149553108Y-77274551D01*
X149553106Y-77274562D01*
X149552295Y-77278759D01*
X149552068Y-77283031D01*
X149552067Y-77283040D01*
X149549587Y-77329727D01*
X149549586Y-77329753D01*
X149549500Y-77331378D01*
X149549500Y-79268622D01*
X149549586Y-79270247D01*
X149549587Y-79270272D01*
X149552067Y-79316959D01*
X149552067Y-79316966D01*
X149552295Y-79321241D01*
X149553107Y-79325440D01*
X149553108Y-79325447D01*
X149576543Y-79446619D01*
X149596755Y-79551126D01*
X149679426Y-79770190D01*
X149679427Y-79770192D01*
X149803272Y-79981235D01*
X149801713Y-79982149D01*
X149824777Y-80034515D01*
X149813899Y-80103533D01*
X149767434Y-80155713D01*
X149701812Y-80174500D01*
X143310452Y-80174500D01*
X143243413Y-80154815D01*
X143222771Y-80138181D01*
X141551819Y-78467228D01*
X141518334Y-78405905D01*
X141515500Y-78379547D01*
X141515500Y-67301819D01*
X141535185Y-67234780D01*
X141587989Y-67189025D01*
X141657147Y-67179081D01*
X141720703Y-67208106D01*
G37*
%TD.AperFunction*%
M02*
