M48
; DRILL file {KiCad 7.0.2-6a45011f42~172~ubuntu22.04.1} date Mon 01 May 2023 21:07:50 BST
; FORMAT={-:-/ absolute / inch / decimal}
; #@! TF.CreationDate,2023-05-01T21:07:50+01:00
; #@! TF.GenerationSoftware,Kicad,Pcbnew,7.0.2-6a45011f42~172~ubuntu22.04.1
; #@! TF.FileFunction,Plated,1,2,PTH
FMAT,2
INCH
; #@! TA.AperFunction,Plated,PTH,ComponentDrill
T1C0.0276
; #@! TA.AperFunction,Plated,PTH,ComponentDrill
T2C0.0315
; #@! TA.AperFunction,Plated,PTH,ComponentDrill
T3C0.0394
; #@! TA.AperFunction,Plated,PTH,ComponentDrill
T4C0.0402
%
G90
G05
T1
X5.574Y-1.6614
X5.574Y-1.748
X5.5744Y-2.2283
X5.8736Y-2.0551
X5.874Y-1.6614
X5.874Y-1.748
X5.874Y-1.874
X5.8744Y-2.2283
X5.9921Y-2.3303
X5.9921Y-2.6303
X6.0945Y-2.3303
X6.0945Y-2.6303
X6.1736Y-2.0551
X6.174Y-1.874
T2
X5.6929Y-2.5512
X5.6929Y-2.6299
X6.1102Y-1.6597
X6.1102Y-1.7384
T3
X6.2362Y-2.7244
T4
X6.3661Y-1.3211
X6.3661Y-1.4211
X6.3661Y-1.5211
X6.3661Y-1.6211
X6.3661Y-1.7211
X6.3661Y-1.8211
X6.3661Y-1.9211
X6.3661Y-2.0211
X6.3661Y-2.1211
X6.3661Y-2.2211
X6.3661Y-2.3211
X6.3661Y-2.4211
X6.3661Y-2.5211
X6.3661Y-2.6211
X6.3661Y-2.7211
X7.3661Y-1.3211
X7.3661Y-1.4211
X7.3661Y-1.5211
X7.3661Y-1.6211
X7.3661Y-1.7211
X7.3661Y-1.8211
X7.3661Y-1.9211
X7.3661Y-2.0211
X7.3661Y-2.1211
X7.3661Y-2.2211
X7.3661Y-2.3211
X7.3661Y-2.4211
X7.3661Y-2.5211
X7.3661Y-2.6211
X7.3661Y-2.7211
T3
G00X5.8583Y-2.8583
M15
G01X5.8583Y-2.937
M16
G05
G00X5.937Y-3.0827
M15
G01X6.0157Y-3.0827
M16
G05
G00X6.0945Y-2.8583
M15
G01X6.0945Y-2.937
M16
G05
T0
M30
