%TF.GenerationSoftware,KiCad,Pcbnew,7.0.2-6a45011f42~172~ubuntu22.04.1*%
%TF.CreationDate,2023-05-01T21:07:46+01:00*%
%TF.ProjectId,esp32-emon,65737033-322d-4656-9d6f-6e2e6b696361,rev?*%
%TF.SameCoordinates,Original*%
%TF.FileFunction,Legend,Top*%
%TF.FilePolarity,Positive*%
%FSLAX46Y46*%
G04 Gerber Fmt 4.6, Leading zero omitted, Abs format (unit mm)*
G04 Created by KiCad (PCBNEW 7.0.2-6a45011f42~172~ubuntu22.04.1) date 2023-05-01 21:07:46*
%MOMM*%
%LPD*%
G01*
G04 APERTURE LIST*
%ADD10C,0.300000*%
%ADD11C,0.150000*%
%ADD12C,0.108000*%
%ADD13C,0.120000*%
%ADD14C,0.127000*%
%ADD15C,0.200000*%
G04 APERTURE END LIST*
D10*
X143092857Y-30073571D02*
X143021429Y-30145000D01*
X143021429Y-30145000D02*
X142807143Y-30216428D01*
X142807143Y-30216428D02*
X142664286Y-30216428D01*
X142664286Y-30216428D02*
X142450000Y-30145000D01*
X142450000Y-30145000D02*
X142307143Y-30002142D01*
X142307143Y-30002142D02*
X142235714Y-29859285D01*
X142235714Y-29859285D02*
X142164286Y-29573571D01*
X142164286Y-29573571D02*
X142164286Y-29359285D01*
X142164286Y-29359285D02*
X142235714Y-29073571D01*
X142235714Y-29073571D02*
X142307143Y-28930714D01*
X142307143Y-28930714D02*
X142450000Y-28787857D01*
X142450000Y-28787857D02*
X142664286Y-28716428D01*
X142664286Y-28716428D02*
X142807143Y-28716428D01*
X142807143Y-28716428D02*
X143021429Y-28787857D01*
X143021429Y-28787857D02*
X143092857Y-28859285D01*
X143521429Y-28716428D02*
X144378572Y-28716428D01*
X143950000Y-30216428D02*
X143950000Y-28716428D01*
X142307143Y-78716428D02*
X142807143Y-80216428D01*
X142807143Y-80216428D02*
X143307143Y-78716428D01*
X145807142Y-80216428D02*
X145307142Y-79502142D01*
X144949999Y-80216428D02*
X144949999Y-78716428D01*
X144949999Y-78716428D02*
X145521428Y-78716428D01*
X145521428Y-78716428D02*
X145664285Y-78787857D01*
X145664285Y-78787857D02*
X145735714Y-78859285D01*
X145735714Y-78859285D02*
X145807142Y-79002142D01*
X145807142Y-79002142D02*
X145807142Y-79216428D01*
X145807142Y-79216428D02*
X145735714Y-79359285D01*
X145735714Y-79359285D02*
X145664285Y-79430714D01*
X145664285Y-79430714D02*
X145521428Y-79502142D01*
X145521428Y-79502142D02*
X144949999Y-79502142D01*
X147021428Y-80145000D02*
X146878571Y-80216428D01*
X146878571Y-80216428D02*
X146592857Y-80216428D01*
X146592857Y-80216428D02*
X146449999Y-80145000D01*
X146449999Y-80145000D02*
X146378571Y-80002142D01*
X146378571Y-80002142D02*
X146378571Y-79430714D01*
X146378571Y-79430714D02*
X146449999Y-79287857D01*
X146449999Y-79287857D02*
X146592857Y-79216428D01*
X146592857Y-79216428D02*
X146878571Y-79216428D01*
X146878571Y-79216428D02*
X147021428Y-79287857D01*
X147021428Y-79287857D02*
X147092857Y-79430714D01*
X147092857Y-79430714D02*
X147092857Y-79573571D01*
X147092857Y-79573571D02*
X146378571Y-79716428D01*
X147521428Y-79216428D02*
X148092856Y-79216428D01*
X147735713Y-80216428D02*
X147735713Y-78930714D01*
X147735713Y-78930714D02*
X147807142Y-78787857D01*
X147807142Y-78787857D02*
X147949999Y-78716428D01*
X147949999Y-78716428D02*
X148092856Y-78716428D01*
D11*
%TO.C,C2*%
X144433333Y-62567380D02*
X144385714Y-62615000D01*
X144385714Y-62615000D02*
X144242857Y-62662619D01*
X144242857Y-62662619D02*
X144147619Y-62662619D01*
X144147619Y-62662619D02*
X144004762Y-62615000D01*
X144004762Y-62615000D02*
X143909524Y-62519761D01*
X143909524Y-62519761D02*
X143861905Y-62424523D01*
X143861905Y-62424523D02*
X143814286Y-62234047D01*
X143814286Y-62234047D02*
X143814286Y-62091190D01*
X143814286Y-62091190D02*
X143861905Y-61900714D01*
X143861905Y-61900714D02*
X143909524Y-61805476D01*
X143909524Y-61805476D02*
X144004762Y-61710238D01*
X144004762Y-61710238D02*
X144147619Y-61662619D01*
X144147619Y-61662619D02*
X144242857Y-61662619D01*
X144242857Y-61662619D02*
X144385714Y-61710238D01*
X144385714Y-61710238D02*
X144433333Y-61757857D01*
X144814286Y-61757857D02*
X144861905Y-61710238D01*
X144861905Y-61710238D02*
X144957143Y-61662619D01*
X144957143Y-61662619D02*
X145195238Y-61662619D01*
X145195238Y-61662619D02*
X145290476Y-61710238D01*
X145290476Y-61710238D02*
X145338095Y-61757857D01*
X145338095Y-61757857D02*
X145385714Y-61853095D01*
X145385714Y-61853095D02*
X145385714Y-61948333D01*
X145385714Y-61948333D02*
X145338095Y-62091190D01*
X145338095Y-62091190D02*
X144766667Y-62662619D01*
X144766667Y-62662619D02*
X145385714Y-62662619D01*
%TO.C,U1*%
X184993095Y-80422619D02*
X184993095Y-81232142D01*
X184993095Y-81232142D02*
X185040714Y-81327380D01*
X185040714Y-81327380D02*
X185088333Y-81375000D01*
X185088333Y-81375000D02*
X185183571Y-81422619D01*
X185183571Y-81422619D02*
X185374047Y-81422619D01*
X185374047Y-81422619D02*
X185469285Y-81375000D01*
X185469285Y-81375000D02*
X185516904Y-81327380D01*
X185516904Y-81327380D02*
X185564523Y-81232142D01*
X185564523Y-81232142D02*
X185564523Y-80422619D01*
X186564523Y-81422619D02*
X185993095Y-81422619D01*
X186278809Y-81422619D02*
X186278809Y-80422619D01*
X186278809Y-80422619D02*
X186183571Y-80565476D01*
X186183571Y-80565476D02*
X186088333Y-80660714D01*
X186088333Y-80660714D02*
X185993095Y-80708333D01*
X167414286Y-38538809D02*
X167747619Y-38538809D01*
X167890476Y-39062619D02*
X167414286Y-39062619D01*
X167414286Y-39062619D02*
X167414286Y-38062619D01*
X167414286Y-38062619D02*
X167890476Y-38062619D01*
X168271429Y-39015000D02*
X168414286Y-39062619D01*
X168414286Y-39062619D02*
X168652381Y-39062619D01*
X168652381Y-39062619D02*
X168747619Y-39015000D01*
X168747619Y-39015000D02*
X168795238Y-38967380D01*
X168795238Y-38967380D02*
X168842857Y-38872142D01*
X168842857Y-38872142D02*
X168842857Y-38776904D01*
X168842857Y-38776904D02*
X168795238Y-38681666D01*
X168795238Y-38681666D02*
X168747619Y-38634047D01*
X168747619Y-38634047D02*
X168652381Y-38586428D01*
X168652381Y-38586428D02*
X168461905Y-38538809D01*
X168461905Y-38538809D02*
X168366667Y-38491190D01*
X168366667Y-38491190D02*
X168319048Y-38443571D01*
X168319048Y-38443571D02*
X168271429Y-38348333D01*
X168271429Y-38348333D02*
X168271429Y-38253095D01*
X168271429Y-38253095D02*
X168319048Y-38157857D01*
X168319048Y-38157857D02*
X168366667Y-38110238D01*
X168366667Y-38110238D02*
X168461905Y-38062619D01*
X168461905Y-38062619D02*
X168700000Y-38062619D01*
X168700000Y-38062619D02*
X168842857Y-38110238D01*
X169271429Y-39062619D02*
X169271429Y-38062619D01*
X169271429Y-38062619D02*
X169652381Y-38062619D01*
X169652381Y-38062619D02*
X169747619Y-38110238D01*
X169747619Y-38110238D02*
X169795238Y-38157857D01*
X169795238Y-38157857D02*
X169842857Y-38253095D01*
X169842857Y-38253095D02*
X169842857Y-38395952D01*
X169842857Y-38395952D02*
X169795238Y-38491190D01*
X169795238Y-38491190D02*
X169747619Y-38538809D01*
X169747619Y-38538809D02*
X169652381Y-38586428D01*
X169652381Y-38586428D02*
X169271429Y-38586428D01*
X170176191Y-38062619D02*
X170795238Y-38062619D01*
X170795238Y-38062619D02*
X170461905Y-38443571D01*
X170461905Y-38443571D02*
X170604762Y-38443571D01*
X170604762Y-38443571D02*
X170700000Y-38491190D01*
X170700000Y-38491190D02*
X170747619Y-38538809D01*
X170747619Y-38538809D02*
X170795238Y-38634047D01*
X170795238Y-38634047D02*
X170795238Y-38872142D01*
X170795238Y-38872142D02*
X170747619Y-38967380D01*
X170747619Y-38967380D02*
X170700000Y-39015000D01*
X170700000Y-39015000D02*
X170604762Y-39062619D01*
X170604762Y-39062619D02*
X170319048Y-39062619D01*
X170319048Y-39062619D02*
X170223810Y-39015000D01*
X170223810Y-39015000D02*
X170176191Y-38967380D01*
X171176191Y-38157857D02*
X171223810Y-38110238D01*
X171223810Y-38110238D02*
X171319048Y-38062619D01*
X171319048Y-38062619D02*
X171557143Y-38062619D01*
X171557143Y-38062619D02*
X171652381Y-38110238D01*
X171652381Y-38110238D02*
X171700000Y-38157857D01*
X171700000Y-38157857D02*
X171747619Y-38253095D01*
X171747619Y-38253095D02*
X171747619Y-38348333D01*
X171747619Y-38348333D02*
X171700000Y-38491190D01*
X171700000Y-38491190D02*
X171128572Y-39062619D01*
X171128572Y-39062619D02*
X171747619Y-39062619D01*
X172176191Y-38681666D02*
X172938096Y-38681666D01*
X173414286Y-39062619D02*
X173414286Y-38062619D01*
X173414286Y-38062619D02*
X173652381Y-38062619D01*
X173652381Y-38062619D02*
X173795238Y-38110238D01*
X173795238Y-38110238D02*
X173890476Y-38205476D01*
X173890476Y-38205476D02*
X173938095Y-38300714D01*
X173938095Y-38300714D02*
X173985714Y-38491190D01*
X173985714Y-38491190D02*
X173985714Y-38634047D01*
X173985714Y-38634047D02*
X173938095Y-38824523D01*
X173938095Y-38824523D02*
X173890476Y-38919761D01*
X173890476Y-38919761D02*
X173795238Y-39015000D01*
X173795238Y-39015000D02*
X173652381Y-39062619D01*
X173652381Y-39062619D02*
X173414286Y-39062619D01*
X174414286Y-38538809D02*
X174747619Y-38538809D01*
X174890476Y-39062619D02*
X174414286Y-39062619D01*
X174414286Y-39062619D02*
X174414286Y-38062619D01*
X174414286Y-38062619D02*
X174890476Y-38062619D01*
X175176191Y-38062619D02*
X175509524Y-39062619D01*
X175509524Y-39062619D02*
X175842857Y-38062619D01*
X176176191Y-39062619D02*
X176176191Y-38062619D01*
X176747619Y-39062619D02*
X176319048Y-38491190D01*
X176747619Y-38062619D02*
X176176191Y-38634047D01*
X177176191Y-39062619D02*
X177176191Y-38062619D01*
X177509524Y-38062619D02*
X178080952Y-38062619D01*
X177795238Y-39062619D02*
X177795238Y-38062619D01*
X178414286Y-38681666D02*
X179176191Y-38681666D01*
X179509524Y-38062619D02*
X179842857Y-39062619D01*
X179842857Y-39062619D02*
X180176190Y-38062619D01*
X181033333Y-39062619D02*
X180461905Y-39062619D01*
X180747619Y-39062619D02*
X180747619Y-38062619D01*
X180747619Y-38062619D02*
X180652381Y-38205476D01*
X180652381Y-38205476D02*
X180557143Y-38300714D01*
X180557143Y-38300714D02*
X180461905Y-38348333D01*
D12*
%TO.C,R4*%
X155133085Y-63119999D02*
X154790228Y-63359999D01*
X155133085Y-63531428D02*
X154413085Y-63531428D01*
X154413085Y-63531428D02*
X154413085Y-63257142D01*
X154413085Y-63257142D02*
X154447371Y-63188571D01*
X154447371Y-63188571D02*
X154481657Y-63154285D01*
X154481657Y-63154285D02*
X154550228Y-63119999D01*
X154550228Y-63119999D02*
X154653085Y-63119999D01*
X154653085Y-63119999D02*
X154721657Y-63154285D01*
X154721657Y-63154285D02*
X154755942Y-63188571D01*
X154755942Y-63188571D02*
X154790228Y-63257142D01*
X154790228Y-63257142D02*
X154790228Y-63531428D01*
X154653085Y-62502857D02*
X155133085Y-62502857D01*
X154378800Y-62674285D02*
X154893085Y-62845714D01*
X154893085Y-62845714D02*
X154893085Y-62399999D01*
%TO.C,R3*%
X152890000Y-47933085D02*
X152650000Y-47590228D01*
X152478571Y-47933085D02*
X152478571Y-47213085D01*
X152478571Y-47213085D02*
X152752857Y-47213085D01*
X152752857Y-47213085D02*
X152821428Y-47247371D01*
X152821428Y-47247371D02*
X152855714Y-47281657D01*
X152855714Y-47281657D02*
X152890000Y-47350228D01*
X152890000Y-47350228D02*
X152890000Y-47453085D01*
X152890000Y-47453085D02*
X152855714Y-47521657D01*
X152855714Y-47521657D02*
X152821428Y-47555942D01*
X152821428Y-47555942D02*
X152752857Y-47590228D01*
X152752857Y-47590228D02*
X152478571Y-47590228D01*
X153130000Y-47213085D02*
X153575714Y-47213085D01*
X153575714Y-47213085D02*
X153335714Y-47487371D01*
X153335714Y-47487371D02*
X153438571Y-47487371D01*
X153438571Y-47487371D02*
X153507143Y-47521657D01*
X153507143Y-47521657D02*
X153541428Y-47555942D01*
X153541428Y-47555942D02*
X153575714Y-47624514D01*
X153575714Y-47624514D02*
X153575714Y-47795942D01*
X153575714Y-47795942D02*
X153541428Y-47864514D01*
X153541428Y-47864514D02*
X153507143Y-47898800D01*
X153507143Y-47898800D02*
X153438571Y-47933085D01*
X153438571Y-47933085D02*
X153232857Y-47933085D01*
X153232857Y-47933085D02*
X153164285Y-47898800D01*
X153164285Y-47898800D02*
X153130000Y-47864514D01*
D11*
%TO.C,TP1*%
X157138095Y-66664619D02*
X157709523Y-66664619D01*
X157423809Y-67664619D02*
X157423809Y-66664619D01*
X158042857Y-67664619D02*
X158042857Y-66664619D01*
X158042857Y-66664619D02*
X158423809Y-66664619D01*
X158423809Y-66664619D02*
X158519047Y-66712238D01*
X158519047Y-66712238D02*
X158566666Y-66759857D01*
X158566666Y-66759857D02*
X158614285Y-66855095D01*
X158614285Y-66855095D02*
X158614285Y-66997952D01*
X158614285Y-66997952D02*
X158566666Y-67093190D01*
X158566666Y-67093190D02*
X158519047Y-67140809D01*
X158519047Y-67140809D02*
X158423809Y-67188428D01*
X158423809Y-67188428D02*
X158042857Y-67188428D01*
X159566666Y-67664619D02*
X158995238Y-67664619D01*
X159280952Y-67664619D02*
X159280952Y-66664619D01*
X159280952Y-66664619D02*
X159185714Y-66807476D01*
X159185714Y-66807476D02*
X159090476Y-66902714D01*
X159090476Y-66902714D02*
X158995238Y-66950333D01*
X157304762Y-70712619D02*
X157638095Y-71712619D01*
X157638095Y-71712619D02*
X157971428Y-70712619D01*
X158304762Y-71712619D02*
X158304762Y-70712619D01*
X158780952Y-71712619D02*
X158780952Y-70712619D01*
X158780952Y-70712619D02*
X159352380Y-71712619D01*
X159352380Y-71712619D02*
X159352380Y-70712619D01*
D12*
%TO.C,R2*%
X145270000Y-44733085D02*
X145030000Y-44390228D01*
X144858571Y-44733085D02*
X144858571Y-44013085D01*
X144858571Y-44013085D02*
X145132857Y-44013085D01*
X145132857Y-44013085D02*
X145201428Y-44047371D01*
X145201428Y-44047371D02*
X145235714Y-44081657D01*
X145235714Y-44081657D02*
X145270000Y-44150228D01*
X145270000Y-44150228D02*
X145270000Y-44253085D01*
X145270000Y-44253085D02*
X145235714Y-44321657D01*
X145235714Y-44321657D02*
X145201428Y-44355942D01*
X145201428Y-44355942D02*
X145132857Y-44390228D01*
X145132857Y-44390228D02*
X144858571Y-44390228D01*
X145544285Y-44081657D02*
X145578571Y-44047371D01*
X145578571Y-44047371D02*
X145647143Y-44013085D01*
X145647143Y-44013085D02*
X145818571Y-44013085D01*
X145818571Y-44013085D02*
X145887143Y-44047371D01*
X145887143Y-44047371D02*
X145921428Y-44081657D01*
X145921428Y-44081657D02*
X145955714Y-44150228D01*
X145955714Y-44150228D02*
X145955714Y-44218800D01*
X145955714Y-44218800D02*
X145921428Y-44321657D01*
X145921428Y-44321657D02*
X145510000Y-44733085D01*
X145510000Y-44733085D02*
X145955714Y-44733085D01*
%TO.C,R1*%
X145270000Y-42533085D02*
X145030000Y-42190228D01*
X144858571Y-42533085D02*
X144858571Y-41813085D01*
X144858571Y-41813085D02*
X145132857Y-41813085D01*
X145132857Y-41813085D02*
X145201428Y-41847371D01*
X145201428Y-41847371D02*
X145235714Y-41881657D01*
X145235714Y-41881657D02*
X145270000Y-41950228D01*
X145270000Y-41950228D02*
X145270000Y-42053085D01*
X145270000Y-42053085D02*
X145235714Y-42121657D01*
X145235714Y-42121657D02*
X145201428Y-42155942D01*
X145201428Y-42155942D02*
X145132857Y-42190228D01*
X145132857Y-42190228D02*
X144858571Y-42190228D01*
X145955714Y-42533085D02*
X145544285Y-42533085D01*
X145750000Y-42533085D02*
X145750000Y-41813085D01*
X145750000Y-41813085D02*
X145681428Y-41915942D01*
X145681428Y-41915942D02*
X145612857Y-41984514D01*
X145612857Y-41984514D02*
X145544285Y-42018800D01*
D11*
%TO.C,J2*%
X145266666Y-73062619D02*
X145266666Y-73776904D01*
X145266666Y-73776904D02*
X145219047Y-73919761D01*
X145219047Y-73919761D02*
X145123809Y-74015000D01*
X145123809Y-74015000D02*
X144980952Y-74062619D01*
X144980952Y-74062619D02*
X144885714Y-74062619D01*
X145695238Y-73157857D02*
X145742857Y-73110238D01*
X145742857Y-73110238D02*
X145838095Y-73062619D01*
X145838095Y-73062619D02*
X146076190Y-73062619D01*
X146076190Y-73062619D02*
X146171428Y-73110238D01*
X146171428Y-73110238D02*
X146219047Y-73157857D01*
X146219047Y-73157857D02*
X146266666Y-73253095D01*
X146266666Y-73253095D02*
X146266666Y-73348333D01*
X146266666Y-73348333D02*
X146219047Y-73491190D01*
X146219047Y-73491190D02*
X145647619Y-74062619D01*
X145647619Y-74062619D02*
X146266666Y-74062619D01*
%TO.C,J1*%
X149066666Y-33462619D02*
X149066666Y-34176904D01*
X149066666Y-34176904D02*
X149019047Y-34319761D01*
X149019047Y-34319761D02*
X148923809Y-34415000D01*
X148923809Y-34415000D02*
X148780952Y-34462619D01*
X148780952Y-34462619D02*
X148685714Y-34462619D01*
X150066666Y-34462619D02*
X149495238Y-34462619D01*
X149780952Y-34462619D02*
X149780952Y-33462619D01*
X149780952Y-33462619D02*
X149685714Y-33605476D01*
X149685714Y-33605476D02*
X149590476Y-33700714D01*
X149590476Y-33700714D02*
X149495238Y-33748333D01*
D12*
%TO.C,R5*%
X152533085Y-63119999D02*
X152190228Y-63359999D01*
X152533085Y-63531428D02*
X151813085Y-63531428D01*
X151813085Y-63531428D02*
X151813085Y-63257142D01*
X151813085Y-63257142D02*
X151847371Y-63188571D01*
X151847371Y-63188571D02*
X151881657Y-63154285D01*
X151881657Y-63154285D02*
X151950228Y-63119999D01*
X151950228Y-63119999D02*
X152053085Y-63119999D01*
X152053085Y-63119999D02*
X152121657Y-63154285D01*
X152121657Y-63154285D02*
X152155942Y-63188571D01*
X152155942Y-63188571D02*
X152190228Y-63257142D01*
X152190228Y-63257142D02*
X152190228Y-63531428D01*
X151813085Y-62468571D02*
X151813085Y-62811428D01*
X151813085Y-62811428D02*
X152155942Y-62845714D01*
X152155942Y-62845714D02*
X152121657Y-62811428D01*
X152121657Y-62811428D02*
X152087371Y-62742857D01*
X152087371Y-62742857D02*
X152087371Y-62571428D01*
X152087371Y-62571428D02*
X152121657Y-62502857D01*
X152121657Y-62502857D02*
X152155942Y-62468571D01*
X152155942Y-62468571D02*
X152224514Y-62434285D01*
X152224514Y-62434285D02*
X152395942Y-62434285D01*
X152395942Y-62434285D02*
X152464514Y-62468571D01*
X152464514Y-62468571D02*
X152498800Y-62502857D01*
X152498800Y-62502857D02*
X152533085Y-62571428D01*
X152533085Y-62571428D02*
X152533085Y-62742857D01*
X152533085Y-62742857D02*
X152498800Y-62811428D01*
X152498800Y-62811428D02*
X152464514Y-62845714D01*
%TO.C,R6*%
X152880000Y-52533085D02*
X152640000Y-52190228D01*
X152468571Y-52533085D02*
X152468571Y-51813085D01*
X152468571Y-51813085D02*
X152742857Y-51813085D01*
X152742857Y-51813085D02*
X152811428Y-51847371D01*
X152811428Y-51847371D02*
X152845714Y-51881657D01*
X152845714Y-51881657D02*
X152880000Y-51950228D01*
X152880000Y-51950228D02*
X152880000Y-52053085D01*
X152880000Y-52053085D02*
X152845714Y-52121657D01*
X152845714Y-52121657D02*
X152811428Y-52155942D01*
X152811428Y-52155942D02*
X152742857Y-52190228D01*
X152742857Y-52190228D02*
X152468571Y-52190228D01*
X153497143Y-51813085D02*
X153360000Y-51813085D01*
X153360000Y-51813085D02*
X153291428Y-51847371D01*
X153291428Y-51847371D02*
X153257143Y-51881657D01*
X153257143Y-51881657D02*
X153188571Y-51984514D01*
X153188571Y-51984514D02*
X153154285Y-52121657D01*
X153154285Y-52121657D02*
X153154285Y-52395942D01*
X153154285Y-52395942D02*
X153188571Y-52464514D01*
X153188571Y-52464514D02*
X153222857Y-52498800D01*
X153222857Y-52498800D02*
X153291428Y-52533085D01*
X153291428Y-52533085D02*
X153428571Y-52533085D01*
X153428571Y-52533085D02*
X153497143Y-52498800D01*
X153497143Y-52498800D02*
X153531428Y-52464514D01*
X153531428Y-52464514D02*
X153565714Y-52395942D01*
X153565714Y-52395942D02*
X153565714Y-52224514D01*
X153565714Y-52224514D02*
X153531428Y-52155942D01*
X153531428Y-52155942D02*
X153497143Y-52121657D01*
X153497143Y-52121657D02*
X153428571Y-52087371D01*
X153428571Y-52087371D02*
X153291428Y-52087371D01*
X153291428Y-52087371D02*
X153222857Y-52121657D01*
X153222857Y-52121657D02*
X153188571Y-52155942D01*
X153188571Y-52155942D02*
X153154285Y-52224514D01*
D11*
%TO.C,C1*%
X151967380Y-43566666D02*
X152015000Y-43614285D01*
X152015000Y-43614285D02*
X152062619Y-43757142D01*
X152062619Y-43757142D02*
X152062619Y-43852380D01*
X152062619Y-43852380D02*
X152015000Y-43995237D01*
X152015000Y-43995237D02*
X151919761Y-44090475D01*
X151919761Y-44090475D02*
X151824523Y-44138094D01*
X151824523Y-44138094D02*
X151634047Y-44185713D01*
X151634047Y-44185713D02*
X151491190Y-44185713D01*
X151491190Y-44185713D02*
X151300714Y-44138094D01*
X151300714Y-44138094D02*
X151205476Y-44090475D01*
X151205476Y-44090475D02*
X151110238Y-43995237D01*
X151110238Y-43995237D02*
X151062619Y-43852380D01*
X151062619Y-43852380D02*
X151062619Y-43757142D01*
X151062619Y-43757142D02*
X151110238Y-43614285D01*
X151110238Y-43614285D02*
X151157857Y-43566666D01*
X152062619Y-42614285D02*
X152062619Y-43185713D01*
X152062619Y-42899999D02*
X151062619Y-42899999D01*
X151062619Y-42899999D02*
X151205476Y-42995237D01*
X151205476Y-42995237D02*
X151300714Y-43090475D01*
X151300714Y-43090475D02*
X151348333Y-43185713D01*
D12*
%TO.C,R7*%
X145280000Y-56933085D02*
X145040000Y-56590228D01*
X144868571Y-56933085D02*
X144868571Y-56213085D01*
X144868571Y-56213085D02*
X145142857Y-56213085D01*
X145142857Y-56213085D02*
X145211428Y-56247371D01*
X145211428Y-56247371D02*
X145245714Y-56281657D01*
X145245714Y-56281657D02*
X145280000Y-56350228D01*
X145280000Y-56350228D02*
X145280000Y-56453085D01*
X145280000Y-56453085D02*
X145245714Y-56521657D01*
X145245714Y-56521657D02*
X145211428Y-56555942D01*
X145211428Y-56555942D02*
X145142857Y-56590228D01*
X145142857Y-56590228D02*
X144868571Y-56590228D01*
X145520000Y-56213085D02*
X146000000Y-56213085D01*
X146000000Y-56213085D02*
X145691428Y-56933085D01*
D13*
%TO.C,C2*%
X146075000Y-62995225D02*
X146075000Y-63495225D01*
X146325000Y-63245225D02*
X145825000Y-63245225D01*
X147180000Y-65800000D02*
X145640000Y-65800000D01*
X143560000Y-65800000D02*
X142020000Y-65800000D01*
X147180000Y-65840000D02*
X145640000Y-65840000D01*
X143560000Y-65840000D02*
X142020000Y-65840000D01*
X147179000Y-65880000D02*
X145640000Y-65880000D01*
X143560000Y-65880000D02*
X142021000Y-65880000D01*
X147178000Y-65920000D02*
X145640000Y-65920000D01*
X143560000Y-65920000D02*
X142022000Y-65920000D01*
X147176000Y-65960000D02*
X145640000Y-65960000D01*
X143560000Y-65960000D02*
X142024000Y-65960000D01*
X147173000Y-66000000D02*
X145640000Y-66000000D01*
X143560000Y-66000000D02*
X142027000Y-66000000D01*
X147169000Y-66040000D02*
X145640000Y-66040000D01*
X143560000Y-66040000D02*
X142031000Y-66040000D01*
X147165000Y-66080000D02*
X145640000Y-66080000D01*
X143560000Y-66080000D02*
X142035000Y-66080000D01*
X147161000Y-66120000D02*
X145640000Y-66120000D01*
X143560000Y-66120000D02*
X142039000Y-66120000D01*
X147156000Y-66160000D02*
X145640000Y-66160000D01*
X143560000Y-66160000D02*
X142044000Y-66160000D01*
X147150000Y-66200000D02*
X145640000Y-66200000D01*
X143560000Y-66200000D02*
X142050000Y-66200000D01*
X147143000Y-66240000D02*
X145640000Y-66240000D01*
X143560000Y-66240000D02*
X142057000Y-66240000D01*
X147136000Y-66280000D02*
X145640000Y-66280000D01*
X143560000Y-66280000D02*
X142064000Y-66280000D01*
X147128000Y-66320000D02*
X145640000Y-66320000D01*
X143560000Y-66320000D02*
X142072000Y-66320000D01*
X147120000Y-66360000D02*
X145640000Y-66360000D01*
X143560000Y-66360000D02*
X142080000Y-66360000D01*
X147111000Y-66400000D02*
X145640000Y-66400000D01*
X143560000Y-66400000D02*
X142089000Y-66400000D01*
X147101000Y-66440000D02*
X145640000Y-66440000D01*
X143560000Y-66440000D02*
X142099000Y-66440000D01*
X147091000Y-66480000D02*
X145640000Y-66480000D01*
X143560000Y-66480000D02*
X142109000Y-66480000D01*
X147080000Y-66521000D02*
X145640000Y-66521000D01*
X143560000Y-66521000D02*
X142120000Y-66521000D01*
X147068000Y-66561000D02*
X145640000Y-66561000D01*
X143560000Y-66561000D02*
X142132000Y-66561000D01*
X147055000Y-66601000D02*
X145640000Y-66601000D01*
X143560000Y-66601000D02*
X142145000Y-66601000D01*
X147042000Y-66641000D02*
X145640000Y-66641000D01*
X143560000Y-66641000D02*
X142158000Y-66641000D01*
X147028000Y-66681000D02*
X145640000Y-66681000D01*
X143560000Y-66681000D02*
X142172000Y-66681000D01*
X147014000Y-66721000D02*
X145640000Y-66721000D01*
X143560000Y-66721000D02*
X142186000Y-66721000D01*
X146998000Y-66761000D02*
X145640000Y-66761000D01*
X143560000Y-66761000D02*
X142202000Y-66761000D01*
X146982000Y-66801000D02*
X145640000Y-66801000D01*
X143560000Y-66801000D02*
X142218000Y-66801000D01*
X146965000Y-66841000D02*
X145640000Y-66841000D01*
X143560000Y-66841000D02*
X142235000Y-66841000D01*
X146948000Y-66881000D02*
X145640000Y-66881000D01*
X143560000Y-66881000D02*
X142252000Y-66881000D01*
X146929000Y-66921000D02*
X145640000Y-66921000D01*
X143560000Y-66921000D02*
X142271000Y-66921000D01*
X146910000Y-66961000D02*
X145640000Y-66961000D01*
X143560000Y-66961000D02*
X142290000Y-66961000D01*
X146890000Y-67001000D02*
X145640000Y-67001000D01*
X143560000Y-67001000D02*
X142310000Y-67001000D01*
X146868000Y-67041000D02*
X145640000Y-67041000D01*
X143560000Y-67041000D02*
X142332000Y-67041000D01*
X146847000Y-67081000D02*
X145640000Y-67081000D01*
X143560000Y-67081000D02*
X142353000Y-67081000D01*
X146824000Y-67121000D02*
X145640000Y-67121000D01*
X143560000Y-67121000D02*
X142376000Y-67121000D01*
X146800000Y-67161000D02*
X145640000Y-67161000D01*
X143560000Y-67161000D02*
X142400000Y-67161000D01*
X146775000Y-67201000D02*
X145640000Y-67201000D01*
X143560000Y-67201000D02*
X142425000Y-67201000D01*
X146749000Y-67241000D02*
X145640000Y-67241000D01*
X143560000Y-67241000D02*
X142451000Y-67241000D01*
X146722000Y-67281000D02*
X145640000Y-67281000D01*
X143560000Y-67281000D02*
X142478000Y-67281000D01*
X146695000Y-67321000D02*
X145640000Y-67321000D01*
X143560000Y-67321000D02*
X142505000Y-67321000D01*
X146665000Y-67361000D02*
X145640000Y-67361000D01*
X143560000Y-67361000D02*
X142535000Y-67361000D01*
X146635000Y-67401000D02*
X145640000Y-67401000D01*
X143560000Y-67401000D02*
X142565000Y-67401000D01*
X146604000Y-67441000D02*
X145640000Y-67441000D01*
X143560000Y-67441000D02*
X142596000Y-67441000D01*
X146571000Y-67481000D02*
X145640000Y-67481000D01*
X143560000Y-67481000D02*
X142629000Y-67481000D01*
X146537000Y-67521000D02*
X145640000Y-67521000D01*
X143560000Y-67521000D02*
X142663000Y-67521000D01*
X146501000Y-67561000D02*
X145640000Y-67561000D01*
X143560000Y-67561000D02*
X142699000Y-67561000D01*
X146464000Y-67601000D02*
X145640000Y-67601000D01*
X143560000Y-67601000D02*
X142736000Y-67601000D01*
X146426000Y-67641000D02*
X145640000Y-67641000D01*
X143560000Y-67641000D02*
X142774000Y-67641000D01*
X146385000Y-67681000D02*
X145640000Y-67681000D01*
X143560000Y-67681000D02*
X142815000Y-67681000D01*
X146343000Y-67721000D02*
X145640000Y-67721000D01*
X143560000Y-67721000D02*
X142857000Y-67721000D01*
X146299000Y-67761000D02*
X145640000Y-67761000D01*
X143560000Y-67761000D02*
X142901000Y-67761000D01*
X146253000Y-67801000D02*
X145640000Y-67801000D01*
X143560000Y-67801000D02*
X142947000Y-67801000D01*
X146205000Y-67841000D02*
X142995000Y-67841000D01*
X146154000Y-67881000D02*
X143046000Y-67881000D01*
X146100000Y-67921000D02*
X143100000Y-67921000D01*
X146043000Y-67961000D02*
X143157000Y-67961000D01*
X145983000Y-68001000D02*
X143217000Y-68001000D01*
X145919000Y-68041000D02*
X143281000Y-68041000D01*
X145851000Y-68081000D02*
X143349000Y-68081000D01*
X145778000Y-68121000D02*
X143422000Y-68121000D01*
X145698000Y-68161000D02*
X143502000Y-68161000D01*
X145611000Y-68201000D02*
X143589000Y-68201000D01*
X145515000Y-68241000D02*
X143685000Y-68241000D01*
X145405000Y-68281000D02*
X143795000Y-68281000D01*
X145277000Y-68321000D02*
X143923000Y-68321000D01*
X145118000Y-68361000D02*
X144082000Y-68361000D01*
X144884000Y-68401000D02*
X144316000Y-68401000D01*
X147220000Y-65800000D02*
G75*
G03*
X147220000Y-65800000I-2620000J0D01*
G01*
D14*
%TO.C,U1*%
X188680000Y-79075000D02*
X177611000Y-79075000D01*
X188680000Y-79075000D02*
X160170000Y-79075000D01*
X188680000Y-28125000D02*
X188680000Y-79075000D01*
X188680000Y-28125000D02*
X188680000Y-79075000D01*
X188680000Y-28125000D02*
X183310000Y-28125000D01*
X183310000Y-28125000D02*
X165620000Y-28125000D01*
X177611000Y-79075000D02*
X170900000Y-79075000D01*
X170900000Y-79075000D02*
X160170000Y-79075000D01*
X165620000Y-28125000D02*
X160170000Y-28125000D01*
X160170000Y-79075000D02*
X160170000Y-28125000D01*
X160170000Y-79075000D02*
X160170000Y-28125000D01*
X160170000Y-28125000D02*
X188680000Y-28125000D01*
D15*
X189350000Y-69115000D02*
G75*
G03*
X189350000Y-69115000I-100000J0D01*
G01*
D13*
%TO.C,R4*%
X154800000Y-60130000D02*
X154800000Y-61080000D01*
X155720000Y-61080000D02*
X153880000Y-61080000D01*
X153880000Y-61080000D02*
X153880000Y-64920000D01*
X155720000Y-64920000D02*
X155720000Y-61080000D01*
X153880000Y-64920000D02*
X155720000Y-64920000D01*
X154800000Y-65870000D02*
X154800000Y-64920000D01*
%TO.C,R3*%
X150140000Y-47600000D02*
X151090000Y-47600000D01*
X151090000Y-46680000D02*
X151090000Y-48520000D01*
X151090000Y-48520000D02*
X154930000Y-48520000D01*
X154930000Y-46680000D02*
X151090000Y-46680000D01*
X154930000Y-48520000D02*
X154930000Y-46680000D01*
X155880000Y-47600000D02*
X154930000Y-47600000D01*
%TO.C,TP1*%
X157200000Y-68000000D02*
X159600000Y-68000000D01*
X157200000Y-70400000D02*
X157200000Y-68000000D01*
X159600000Y-68000000D02*
X159600000Y-70400000D01*
X159600000Y-70400000D02*
X157200000Y-70400000D01*
%TO.C,R2*%
X142520000Y-44400000D02*
X143470000Y-44400000D01*
X143470000Y-43480000D02*
X143470000Y-45320000D01*
X143470000Y-45320000D02*
X147310000Y-45320000D01*
X147310000Y-43480000D02*
X143470000Y-43480000D01*
X147310000Y-45320000D02*
X147310000Y-43480000D01*
X148260000Y-44400000D02*
X147310000Y-44400000D01*
%TO.C,R1*%
X148260000Y-42200000D02*
X147310000Y-42200000D01*
X147310000Y-43120000D02*
X147310000Y-41280000D01*
X147310000Y-41280000D02*
X143470000Y-41280000D01*
X143470000Y-43120000D02*
X147310000Y-43120000D01*
X143470000Y-41280000D02*
X143470000Y-43120000D01*
X142520000Y-42200000D02*
X143470000Y-42200000D01*
%TO.C,J2*%
X141000000Y-69000000D02*
X155700000Y-69000000D01*
X141000000Y-78200000D02*
X141000000Y-69000000D01*
X149800000Y-78200000D02*
X141000000Y-78200000D01*
X154850000Y-68800000D02*
X155900000Y-68800000D01*
X155700000Y-69000000D02*
X155700000Y-71600000D01*
X155700000Y-75500000D02*
X155700000Y-78200000D01*
X155700000Y-78200000D02*
X153800000Y-78200000D01*
X155900000Y-69850000D02*
X155900000Y-68800000D01*
%TO.C,J1*%
X143300000Y-37100000D02*
X143300000Y-36600000D01*
X144500000Y-37100000D02*
X144500000Y-39100000D01*
X144500000Y-37100000D02*
X143300000Y-37100000D01*
X147100000Y-37100000D02*
X147100000Y-39100000D01*
X153600000Y-37100000D02*
X147100000Y-37100000D01*
X158000000Y-37100000D02*
X156800000Y-37100000D01*
X140800000Y-36600000D02*
X140800000Y-31400000D01*
X143300000Y-36600000D02*
X140800000Y-36600000D01*
X140800000Y-31400000D02*
X143300000Y-31400000D01*
X143300000Y-31400000D02*
X143300000Y-30900000D01*
X143300000Y-30900000D02*
X146500000Y-30900000D01*
X149100000Y-30900000D02*
X158000000Y-30900000D01*
X158000000Y-30900000D02*
X158000000Y-37100000D01*
%TO.C,R5*%
X152200000Y-65870000D02*
X152200000Y-64920000D01*
X151280000Y-64920000D02*
X153120000Y-64920000D01*
X153120000Y-64920000D02*
X153120000Y-61080000D01*
X151280000Y-61080000D02*
X151280000Y-64920000D01*
X153120000Y-61080000D02*
X151280000Y-61080000D01*
X152200000Y-60130000D02*
X152200000Y-61080000D01*
%TO.C,R6*%
X155870000Y-52200000D02*
X154920000Y-52200000D01*
X154920000Y-53120000D02*
X154920000Y-51280000D01*
X154920000Y-51280000D02*
X151080000Y-51280000D01*
X151080000Y-53120000D02*
X154920000Y-53120000D01*
X151080000Y-51280000D02*
X151080000Y-53120000D01*
X150130000Y-52200000D02*
X151080000Y-52200000D01*
%TO.C,C1*%
X153725000Y-45959888D02*
X153725000Y-45459888D01*
X153475000Y-45709888D02*
X153975000Y-45709888D01*
X152620000Y-43155113D02*
X154160000Y-43155113D01*
X156240000Y-43155113D02*
X157780000Y-43155113D01*
X152620000Y-43115113D02*
X154160000Y-43115113D01*
X156240000Y-43115113D02*
X157780000Y-43115113D01*
X152621000Y-43075113D02*
X154160000Y-43075113D01*
X156240000Y-43075113D02*
X157779000Y-43075113D01*
X152622000Y-43035113D02*
X154160000Y-43035113D01*
X156240000Y-43035113D02*
X157778000Y-43035113D01*
X152624000Y-42995113D02*
X154160000Y-42995113D01*
X156240000Y-42995113D02*
X157776000Y-42995113D01*
X152627000Y-42955113D02*
X154160000Y-42955113D01*
X156240000Y-42955113D02*
X157773000Y-42955113D01*
X152631000Y-42915113D02*
X154160000Y-42915113D01*
X156240000Y-42915113D02*
X157769000Y-42915113D01*
X152635000Y-42875113D02*
X154160000Y-42875113D01*
X156240000Y-42875113D02*
X157765000Y-42875113D01*
X152639000Y-42835113D02*
X154160000Y-42835113D01*
X156240000Y-42835113D02*
X157761000Y-42835113D01*
X152644000Y-42795113D02*
X154160000Y-42795113D01*
X156240000Y-42795113D02*
X157756000Y-42795113D01*
X152650000Y-42755113D02*
X154160000Y-42755113D01*
X156240000Y-42755113D02*
X157750000Y-42755113D01*
X152657000Y-42715113D02*
X154160000Y-42715113D01*
X156240000Y-42715113D02*
X157743000Y-42715113D01*
X152664000Y-42675113D02*
X154160000Y-42675113D01*
X156240000Y-42675113D02*
X157736000Y-42675113D01*
X152672000Y-42635113D02*
X154160000Y-42635113D01*
X156240000Y-42635113D02*
X157728000Y-42635113D01*
X152680000Y-42595113D02*
X154160000Y-42595113D01*
X156240000Y-42595113D02*
X157720000Y-42595113D01*
X152689000Y-42555113D02*
X154160000Y-42555113D01*
X156240000Y-42555113D02*
X157711000Y-42555113D01*
X152699000Y-42515113D02*
X154160000Y-42515113D01*
X156240000Y-42515113D02*
X157701000Y-42515113D01*
X152709000Y-42475113D02*
X154160000Y-42475113D01*
X156240000Y-42475113D02*
X157691000Y-42475113D01*
X152720000Y-42434113D02*
X154160000Y-42434113D01*
X156240000Y-42434113D02*
X157680000Y-42434113D01*
X152732000Y-42394113D02*
X154160000Y-42394113D01*
X156240000Y-42394113D02*
X157668000Y-42394113D01*
X152745000Y-42354113D02*
X154160000Y-42354113D01*
X156240000Y-42354113D02*
X157655000Y-42354113D01*
X152758000Y-42314113D02*
X154160000Y-42314113D01*
X156240000Y-42314113D02*
X157642000Y-42314113D01*
X152772000Y-42274113D02*
X154160000Y-42274113D01*
X156240000Y-42274113D02*
X157628000Y-42274113D01*
X152786000Y-42234113D02*
X154160000Y-42234113D01*
X156240000Y-42234113D02*
X157614000Y-42234113D01*
X152802000Y-42194113D02*
X154160000Y-42194113D01*
X156240000Y-42194113D02*
X157598000Y-42194113D01*
X152818000Y-42154113D02*
X154160000Y-42154113D01*
X156240000Y-42154113D02*
X157582000Y-42154113D01*
X152835000Y-42114113D02*
X154160000Y-42114113D01*
X156240000Y-42114113D02*
X157565000Y-42114113D01*
X152852000Y-42074113D02*
X154160000Y-42074113D01*
X156240000Y-42074113D02*
X157548000Y-42074113D01*
X152871000Y-42034113D02*
X154160000Y-42034113D01*
X156240000Y-42034113D02*
X157529000Y-42034113D01*
X152890000Y-41994113D02*
X154160000Y-41994113D01*
X156240000Y-41994113D02*
X157510000Y-41994113D01*
X152910000Y-41954113D02*
X154160000Y-41954113D01*
X156240000Y-41954113D02*
X157490000Y-41954113D01*
X152932000Y-41914113D02*
X154160000Y-41914113D01*
X156240000Y-41914113D02*
X157468000Y-41914113D01*
X152953000Y-41874113D02*
X154160000Y-41874113D01*
X156240000Y-41874113D02*
X157447000Y-41874113D01*
X152976000Y-41834113D02*
X154160000Y-41834113D01*
X156240000Y-41834113D02*
X157424000Y-41834113D01*
X153000000Y-41794113D02*
X154160000Y-41794113D01*
X156240000Y-41794113D02*
X157400000Y-41794113D01*
X153025000Y-41754113D02*
X154160000Y-41754113D01*
X156240000Y-41754113D02*
X157375000Y-41754113D01*
X153051000Y-41714113D02*
X154160000Y-41714113D01*
X156240000Y-41714113D02*
X157349000Y-41714113D01*
X153078000Y-41674113D02*
X154160000Y-41674113D01*
X156240000Y-41674113D02*
X157322000Y-41674113D01*
X153105000Y-41634113D02*
X154160000Y-41634113D01*
X156240000Y-41634113D02*
X157295000Y-41634113D01*
X153135000Y-41594113D02*
X154160000Y-41594113D01*
X156240000Y-41594113D02*
X157265000Y-41594113D01*
X153165000Y-41554113D02*
X154160000Y-41554113D01*
X156240000Y-41554113D02*
X157235000Y-41554113D01*
X153196000Y-41514113D02*
X154160000Y-41514113D01*
X156240000Y-41514113D02*
X157204000Y-41514113D01*
X153229000Y-41474113D02*
X154160000Y-41474113D01*
X156240000Y-41474113D02*
X157171000Y-41474113D01*
X153263000Y-41434113D02*
X154160000Y-41434113D01*
X156240000Y-41434113D02*
X157137000Y-41434113D01*
X153299000Y-41394113D02*
X154160000Y-41394113D01*
X156240000Y-41394113D02*
X157101000Y-41394113D01*
X153336000Y-41354113D02*
X154160000Y-41354113D01*
X156240000Y-41354113D02*
X157064000Y-41354113D01*
X153374000Y-41314113D02*
X154160000Y-41314113D01*
X156240000Y-41314113D02*
X157026000Y-41314113D01*
X153415000Y-41274113D02*
X154160000Y-41274113D01*
X156240000Y-41274113D02*
X156985000Y-41274113D01*
X153457000Y-41234113D02*
X154160000Y-41234113D01*
X156240000Y-41234113D02*
X156943000Y-41234113D01*
X153501000Y-41194113D02*
X154160000Y-41194113D01*
X156240000Y-41194113D02*
X156899000Y-41194113D01*
X153547000Y-41154113D02*
X154160000Y-41154113D01*
X156240000Y-41154113D02*
X156853000Y-41154113D01*
X153595000Y-41114113D02*
X156805000Y-41114113D01*
X153646000Y-41074113D02*
X156754000Y-41074113D01*
X153700000Y-41034113D02*
X156700000Y-41034113D01*
X153757000Y-40994113D02*
X156643000Y-40994113D01*
X153817000Y-40954113D02*
X156583000Y-40954113D01*
X153881000Y-40914113D02*
X156519000Y-40914113D01*
X153949000Y-40874113D02*
X156451000Y-40874113D01*
X154022000Y-40834113D02*
X156378000Y-40834113D01*
X154102000Y-40794113D02*
X156298000Y-40794113D01*
X154189000Y-40754113D02*
X156211000Y-40754113D01*
X154285000Y-40714113D02*
X156115000Y-40714113D01*
X154395000Y-40674113D02*
X156005000Y-40674113D01*
X154523000Y-40634113D02*
X155877000Y-40634113D01*
X154682000Y-40594113D02*
X155718000Y-40594113D01*
X154916000Y-40554113D02*
X155484000Y-40554113D01*
X157820000Y-43155113D02*
G75*
G03*
X157820000Y-43155113I-2620000J0D01*
G01*
%TO.C,R7*%
X142530000Y-56600000D02*
X143480000Y-56600000D01*
X143480000Y-55680000D02*
X143480000Y-57520000D01*
X143480000Y-57520000D02*
X147320000Y-57520000D01*
X147320000Y-55680000D02*
X143480000Y-55680000D01*
X147320000Y-57520000D02*
X147320000Y-55680000D01*
X148270000Y-56600000D02*
X147320000Y-56600000D01*
%TD*%
M02*
