%TF.GenerationSoftware,KiCad,Pcbnew,7.0.2-6a45011f42~172~ubuntu22.04.1*%
%TF.CreationDate,2023-05-01T21:07:46+01:00*%
%TF.ProjectId,esp32-emon,65737033-322d-4656-9d6f-6e2e6b696361,rev?*%
%TF.SameCoordinates,Original*%
%TF.FileFunction,Copper,L2,Bot*%
%TF.FilePolarity,Positive*%
%FSLAX46Y46*%
G04 Gerber Fmt 4.6, Leading zero omitted, Abs format (unit mm)*
G04 Created by KiCad (PCBNEW 7.0.2-6a45011f42~172~ubuntu22.04.1) date 2023-05-01 21:07:46*
%MOMM*%
%LPD*%
G01*
G04 APERTURE LIST*
G04 Aperture macros list*
%AMRoundRect*
0 Rectangle with rounded corners*
0 $1 Rounding radius*
0 $2 $3 $4 $5 $6 $7 $8 $9 X,Y pos of 4 corners*
0 Add a 4 corners polygon primitive as box body*
4,1,4,$2,$3,$4,$5,$6,$7,$8,$9,$2,$3,0*
0 Add four circle primitives for the rounded corners*
1,1,$1+$1,$2,$3*
1,1,$1+$1,$4,$5*
1,1,$1+$1,$6,$7*
1,1,$1+$1,$8,$9*
0 Add four rect primitives between the rounded corners*
20,1,$1+$1,$2,$3,$4,$5,0*
20,1,$1+$1,$4,$5,$6,$7,0*
20,1,$1+$1,$6,$7,$8,$9,0*
20,1,$1+$1,$8,$9,$2,$3,0*%
G04 Aperture macros list end*
%TA.AperFunction,ComponentPad*%
%ADD10R,1.600000X1.600000*%
%TD*%
%TA.AperFunction,ComponentPad*%
%ADD11C,1.600000*%
%TD*%
%TA.AperFunction,ComponentPad*%
%ADD12R,2.000000X2.000000*%
%TD*%
%TA.AperFunction,ComponentPad*%
%ADD13C,2.000000*%
%TD*%
%TA.AperFunction,ComponentPad*%
%ADD14C,1.400000*%
%TD*%
%TA.AperFunction,ComponentPad*%
%ADD15O,1.400000X1.400000*%
%TD*%
%TA.AperFunction,ComponentPad*%
%ADD16R,3.500000X3.500000*%
%TD*%
%TA.AperFunction,ComponentPad*%
%ADD17RoundRect,0.750000X-0.750000X-1.000000X0.750000X-1.000000X0.750000X1.000000X-0.750000X1.000000X0*%
%TD*%
%TA.AperFunction,ComponentPad*%
%ADD18RoundRect,0.875000X-0.875000X-0.875000X0.875000X-0.875000X0.875000X0.875000X-0.875000X0.875000X0*%
%TD*%
G04 APERTURE END LIST*
D10*
%TO.P,C2,1*%
%TO.N,GND*%
X144600000Y-64800000D03*
D11*
%TO.P,C2,2*%
%TO.N,Net-(C2-Pad2)*%
X144600000Y-66800000D03*
%TD*%
D12*
%TO.P,U1,1,3V3*%
%TO.N,+3V3*%
X187100000Y-69115000D03*
D13*
%TO.P,U1,2,GND*%
%TO.N,GND*%
X187100000Y-66575000D03*
%TO.P,U1,3,D15*%
%TO.N,unconnected-(U1-D15-Pad3)*%
X187100000Y-64035000D03*
%TO.P,U1,4,D2*%
%TO.N,unconnected-(U1-D2-Pad4)*%
X187100000Y-61495000D03*
%TO.P,U1,5,D4*%
%TO.N,unconnected-(U1-D4-Pad5)*%
X187100000Y-58955000D03*
%TO.P,U1,6,RX2*%
%TO.N,unconnected-(U1-RX2-Pad6)*%
X187100000Y-56415000D03*
%TO.P,U1,7,TX2*%
%TO.N,unconnected-(U1-TX2-Pad7)*%
X187100000Y-53875000D03*
%TO.P,U1,8,D5*%
%TO.N,unconnected-(U1-D5-Pad8)*%
X187100000Y-51335000D03*
%TO.P,U1,9,D18*%
%TO.N,unconnected-(U1-D18-Pad9)*%
X187100000Y-48795000D03*
%TO.P,U1,10,D19*%
%TO.N,unconnected-(U1-D19-Pad10)*%
X187100000Y-46255000D03*
%TO.P,U1,11,D21*%
%TO.N,unconnected-(U1-D21-Pad11)*%
X187100000Y-43715000D03*
%TO.P,U1,12,RX0*%
%TO.N,unconnected-(U1-RX0-Pad12)*%
X187100000Y-41175000D03*
%TO.P,U1,13,TX0*%
%TO.N,unconnected-(U1-TX0-Pad13)*%
X187100000Y-38635000D03*
%TO.P,U1,14,D22*%
%TO.N,unconnected-(U1-D22-Pad14)*%
X187100000Y-36095000D03*
%TO.P,U1,15,D23*%
%TO.N,unconnected-(U1-D23-Pad15)*%
X187100000Y-33555000D03*
%TO.P,U1,16,EN*%
%TO.N,unconnected-(U1-EN-Pad16)*%
X161700000Y-33555000D03*
%TO.P,U1,17,VP*%
%TO.N,unconnected-(U1-VP-Pad17)*%
X161700000Y-36095000D03*
%TO.P,U1,18,VN*%
%TO.N,unconnected-(U1-VN-Pad18)*%
X161700000Y-38635000D03*
%TO.P,U1,19,D34*%
%TO.N,/ADC1 CH6*%
X161700000Y-41175000D03*
%TO.P,U1,20,D35*%
%TO.N,unconnected-(U1-D35-Pad20)*%
X161700000Y-43715000D03*
%TO.P,U1,21,D32*%
%TO.N,unconnected-(U1-D32-Pad21)*%
X161700000Y-46255000D03*
%TO.P,U1,22,D33*%
%TO.N,/ADC1 CH5*%
X161700000Y-48795000D03*
%TO.P,U1,23,D25*%
%TO.N,unconnected-(U1-D25-Pad23)*%
X161700000Y-51335000D03*
%TO.P,U1,24,D26*%
%TO.N,unconnected-(U1-D26-Pad24)*%
X161700000Y-53875000D03*
%TO.P,U1,25,D27*%
%TO.N,unconnected-(U1-D27-Pad25)*%
X161700000Y-56415000D03*
%TO.P,U1,26,D14*%
%TO.N,unconnected-(U1-D14-Pad26)*%
X161700000Y-58955000D03*
%TO.P,U1,27,D12*%
%TO.N,unconnected-(U1-D12-Pad27)*%
X161700000Y-61495000D03*
%TO.P,U1,28,D13*%
%TO.N,unconnected-(U1-D13-Pad28)*%
X161700000Y-64035000D03*
%TO.P,U1,29,GND*%
%TO.N,GND*%
X161700000Y-66575000D03*
%TO.P,U1,30,VIN*%
%TO.N,Net-(U1-VIN)*%
X161700000Y-69115000D03*
%TD*%
D14*
%TO.P,R4,1*%
%TO.N,/ADC1 CH5*%
X154800000Y-59190000D03*
D15*
%TO.P,R4,2*%
%TO.N,Net-(J2-Pad1)*%
X154800000Y-66810000D03*
%TD*%
D14*
%TO.P,R3,1*%
%TO.N,Net-(C1-Pad2)*%
X149200000Y-47600000D03*
D15*
%TO.P,R3,2*%
%TO.N,GND*%
X156820000Y-47600000D03*
%TD*%
D12*
%TO.P,TP1,1,1*%
%TO.N,Net-(U1-VIN)*%
X158400000Y-69200000D03*
%TD*%
D14*
%TO.P,R2,1*%
%TO.N,+3V3*%
X141580000Y-44400000D03*
D15*
%TO.P,R2,2*%
%TO.N,Net-(C1-Pad2)*%
X149200000Y-44400000D03*
%TD*%
D14*
%TO.P,R1,1*%
%TO.N,Net-(C1-Pad2)*%
X149200000Y-42200000D03*
D15*
%TO.P,R1,2*%
%TO.N,/ADC1 CH6*%
X141580000Y-42200000D03*
%TD*%
D16*
%TO.P,J2,1*%
%TO.N,Net-(J2-Pad1)*%
X154800000Y-73600000D03*
D17*
%TO.P,J2,2*%
%TO.N,Net-(C2-Pad2)*%
X148800000Y-73600000D03*
D18*
%TO.P,J2,3*%
X151800000Y-78300000D03*
%TD*%
D14*
%TO.P,R5,1*%
%TO.N,Net-(C2-Pad2)*%
X152200000Y-66810000D03*
D15*
%TO.P,R5,2*%
%TO.N,/ADC1 CH5*%
X152200000Y-59190000D03*
%TD*%
D14*
%TO.P,R6,1*%
%TO.N,GND*%
X156810000Y-52200000D03*
D15*
%TO.P,R6,2*%
%TO.N,Net-(C2-Pad2)*%
X149190000Y-52200000D03*
%TD*%
D10*
%TO.P,C1,1*%
%TO.N,GND*%
X155200000Y-44155113D03*
D11*
%TO.P,C1,2*%
%TO.N,Net-(C1-Pad2)*%
X155200000Y-42155113D03*
%TD*%
D14*
%TO.P,R7,1*%
%TO.N,+3V3*%
X141590000Y-56600000D03*
D15*
%TO.P,R7,2*%
%TO.N,Net-(C2-Pad2)*%
X149210000Y-56600000D03*
%TD*%
M02*
