%TF.GenerationSoftware,KiCad,Pcbnew,7.0.2-6a45011f42~172~ubuntu22.04.1*%
%TF.CreationDate,2023-05-01T21:07:46+01:00*%
%TF.ProjectId,esp32-emon,65737033-322d-4656-9d6f-6e2e6b696361,rev?*%
%TF.SameCoordinates,Original*%
%TF.FileFunction,Legend,Bot*%
%TF.FilePolarity,Positive*%
%FSLAX46Y46*%
G04 Gerber Fmt 4.6, Leading zero omitted, Abs format (unit mm)*
G04 Created by KiCad (PCBNEW 7.0.2-6a45011f42~172~ubuntu22.04.1) date 2023-05-01 21:07:46*
%MOMM*%
%LPD*%
G01*
G04 APERTURE LIST*
%ADD10C,0.150000*%
G04 APERTURE END LIST*
D10*
X179476190Y-79877619D02*
X179476190Y-80591904D01*
X179476190Y-80591904D02*
X179523809Y-80734761D01*
X179523809Y-80734761D02*
X179619047Y-80830000D01*
X179619047Y-80830000D02*
X179761904Y-80877619D01*
X179761904Y-80877619D02*
X179857142Y-80877619D01*
X179047618Y-80591904D02*
X178571428Y-80591904D01*
X179142856Y-80877619D02*
X178809523Y-79877619D01*
X178809523Y-79877619D02*
X178476190Y-80877619D01*
X177666666Y-80877619D02*
X178142856Y-80877619D01*
X178142856Y-80877619D02*
X178142856Y-79877619D01*
X176857142Y-80877619D02*
X177333332Y-80877619D01*
X177333332Y-80877619D02*
X177333332Y-79877619D01*
X176523808Y-80353809D02*
X176190475Y-80353809D01*
X176047618Y-80877619D02*
X176523808Y-80877619D01*
X176523808Y-80877619D02*
X176523808Y-79877619D01*
X176523808Y-79877619D02*
X176047618Y-79877619D01*
X175047618Y-80877619D02*
X175380951Y-80401428D01*
X175619046Y-80877619D02*
X175619046Y-79877619D01*
X175619046Y-79877619D02*
X175238094Y-79877619D01*
X175238094Y-79877619D02*
X175142856Y-79925238D01*
X175142856Y-79925238D02*
X175095237Y-79972857D01*
X175095237Y-79972857D02*
X175047618Y-80068095D01*
X175047618Y-80068095D02*
X175047618Y-80210952D01*
X175047618Y-80210952D02*
X175095237Y-80306190D01*
X175095237Y-80306190D02*
X175142856Y-80353809D01*
X175142856Y-80353809D02*
X175238094Y-80401428D01*
X175238094Y-80401428D02*
X175619046Y-80401428D01*
X174761903Y-79877619D02*
X174190475Y-79877619D01*
X174476189Y-80877619D02*
X174476189Y-79877619D01*
X173666665Y-79877619D02*
X173476189Y-79877619D01*
X173476189Y-79877619D02*
X173380951Y-79925238D01*
X173380951Y-79925238D02*
X173285713Y-80020476D01*
X173285713Y-80020476D02*
X173238094Y-80210952D01*
X173238094Y-80210952D02*
X173238094Y-80544285D01*
X173238094Y-80544285D02*
X173285713Y-80734761D01*
X173285713Y-80734761D02*
X173380951Y-80830000D01*
X173380951Y-80830000D02*
X173476189Y-80877619D01*
X173476189Y-80877619D02*
X173666665Y-80877619D01*
X173666665Y-80877619D02*
X173761903Y-80830000D01*
X173761903Y-80830000D02*
X173857141Y-80734761D01*
X173857141Y-80734761D02*
X173904760Y-80544285D01*
X173904760Y-80544285D02*
X173904760Y-80210952D01*
X173904760Y-80210952D02*
X173857141Y-80020476D01*
X173857141Y-80020476D02*
X173761903Y-79925238D01*
X173761903Y-79925238D02*
X173666665Y-79877619D01*
X172809522Y-80877619D02*
X172809522Y-79877619D01*
X172809522Y-79877619D02*
X172238094Y-80877619D01*
X172238094Y-80877619D02*
X172238094Y-79877619D01*
X170999998Y-80353809D02*
X170666665Y-80353809D01*
X170523808Y-80877619D02*
X170999998Y-80877619D01*
X170999998Y-80877619D02*
X170999998Y-79877619D01*
X170999998Y-79877619D02*
X170523808Y-79877619D01*
X170095236Y-80877619D02*
X170095236Y-79877619D01*
X170095236Y-79877619D02*
X169761903Y-80591904D01*
X169761903Y-80591904D02*
X169428570Y-79877619D01*
X169428570Y-79877619D02*
X169428570Y-80877619D01*
X168761903Y-79877619D02*
X168571427Y-79877619D01*
X168571427Y-79877619D02*
X168476189Y-79925238D01*
X168476189Y-79925238D02*
X168380951Y-80020476D01*
X168380951Y-80020476D02*
X168333332Y-80210952D01*
X168333332Y-80210952D02*
X168333332Y-80544285D01*
X168333332Y-80544285D02*
X168380951Y-80734761D01*
X168380951Y-80734761D02*
X168476189Y-80830000D01*
X168476189Y-80830000D02*
X168571427Y-80877619D01*
X168571427Y-80877619D02*
X168761903Y-80877619D01*
X168761903Y-80877619D02*
X168857141Y-80830000D01*
X168857141Y-80830000D02*
X168952379Y-80734761D01*
X168952379Y-80734761D02*
X168999998Y-80544285D01*
X168999998Y-80544285D02*
X168999998Y-80210952D01*
X168999998Y-80210952D02*
X168952379Y-80020476D01*
X168952379Y-80020476D02*
X168857141Y-79925238D01*
X168857141Y-79925238D02*
X168761903Y-79877619D01*
X167904760Y-80877619D02*
X167904760Y-79877619D01*
X167904760Y-79877619D02*
X167333332Y-80877619D01*
X167333332Y-80877619D02*
X167333332Y-79877619D01*
X166238093Y-79877619D02*
X165904760Y-80877619D01*
X165904760Y-80877619D02*
X165571427Y-79877619D01*
X165047617Y-79877619D02*
X164952379Y-79877619D01*
X164952379Y-79877619D02*
X164857141Y-79925238D01*
X164857141Y-79925238D02*
X164809522Y-79972857D01*
X164809522Y-79972857D02*
X164761903Y-80068095D01*
X164761903Y-80068095D02*
X164714284Y-80258571D01*
X164714284Y-80258571D02*
X164714284Y-80496666D01*
X164714284Y-80496666D02*
X164761903Y-80687142D01*
X164761903Y-80687142D02*
X164809522Y-80782380D01*
X164809522Y-80782380D02*
X164857141Y-80830000D01*
X164857141Y-80830000D02*
X164952379Y-80877619D01*
X164952379Y-80877619D02*
X165047617Y-80877619D01*
X165047617Y-80877619D02*
X165142855Y-80830000D01*
X165142855Y-80830000D02*
X165190474Y-80782380D01*
X165190474Y-80782380D02*
X165238093Y-80687142D01*
X165238093Y-80687142D02*
X165285712Y-80496666D01*
X165285712Y-80496666D02*
X165285712Y-80258571D01*
X165285712Y-80258571D02*
X165238093Y-80068095D01*
X165238093Y-80068095D02*
X165190474Y-79972857D01*
X165190474Y-79972857D02*
X165142855Y-79925238D01*
X165142855Y-79925238D02*
X165047617Y-79877619D01*
X164285712Y-80782380D02*
X164238093Y-80830000D01*
X164238093Y-80830000D02*
X164285712Y-80877619D01*
X164285712Y-80877619D02*
X164333331Y-80830000D01*
X164333331Y-80830000D02*
X164285712Y-80782380D01*
X164285712Y-80782380D02*
X164285712Y-80877619D01*
X163285713Y-80877619D02*
X163857141Y-80877619D01*
X163571427Y-80877619D02*
X163571427Y-79877619D01*
X163571427Y-79877619D02*
X163666665Y-80020476D01*
X163666665Y-80020476D02*
X163761903Y-80115714D01*
X163761903Y-80115714D02*
X163857141Y-80163333D01*
M02*
